<svg width="226" height="562" viewBox="0 0 226 562" fill="none" xmlns="http://www.w3.org/2000/svg">
<path fill-rule="evenodd" clip-rule="evenodd" d="M83.2775 1.05762C82.7095 1.76862 79.7495 7.62962 76.6985 14.0816C70.6525 26.8686 63.5325 39.1636 55.4055 50.8506C52.5375 54.9756 49.3895 60.0346 48.4115 62.0916C46.7405 65.6046 46.5225 65.7336 44.8345 64.2056C42.7075 62.2806 42.2255 63.0916 41.7795 69.3506C41.5315 72.8326 41.2025 73.3196 39.2445 73.1126C37.3975 72.9166 36.9975 73.3646 37.0115 75.6126C37.0385 79.9036 40.2615 91.2736 45.3295 104.958C53.7655 127.736 55.6255 137.689 53.9965 151.332C52.1675 166.657 51.5495 167.928 44.9945 169.873C38.5345 171.789 34.9945 173.553 34.9945 174.855C34.9945 175.368 35.7815 175.547 36.7445 175.253C37.7065 174.958 36.9275 175.985 35.0115 177.534C26.9315 184.07 23.2615 188.021 19.7335 193.986C15.7935 200.645 14.6505 205.212 17.5185 202.831C19.9475 200.815 20.2455 202.268 18.5625 207.934C16.6145 214.494 16.6155 215.009 18.5705 214.645C19.6185 214.45 20.5925 215.632 21.4755 218.167C23.1475 222.97 25.6045 225.75 29.7125 227.489C33.3385 229.024 39.9945 229.323 39.9945 227.951C39.9945 227.456 42.3325 226.49 45.1905 225.804C49.3445 224.807 51.7175 223.307 57.0285 218.319C70.6565 205.519 74.9405 204.397 84.4355 211.137C90.0525 215.124 98.9945 224.798 98.9945 226.888C98.9945 227.418 95.8655 227.851 92.0415 227.851C88.2175 227.851 83.9425 228.373 82.5415 229.012C79.6385 230.334 79.1205 232.841 81.7445 232.871C82.9535 232.884 82.1775 233.994 79.2315 236.464C73.9415 240.899 69.9945 247.471 69.9945 251.844C69.9945 255.101 70.0305 255.128 72.0005 253.345C73.1045 252.347 74.2775 251.801 74.6085 252.131C74.9385 252.462 74.2295 257.372 73.0315 263.042C70.3555 275.711 65.3435 286.437 56.8195 297.734C42.6935 316.457 40.9945 319.096 40.9945 322.313C40.9945 324.049 41.6015 326.299 42.3435 327.313C43.6005 329.032 43.7805 328.926 44.9845 325.754L46.2765 322.351L47.0305 326.948C47.8695 332.059 50.5195 337.851 52.0205 337.851C52.5565 337.851 52.9945 337.098 52.9945 336.177C52.9945 334.8 53.4485 334.929 55.5475 336.9C57.4475 338.686 58.2985 338.978 58.8755 338.044C59.4525 337.11 61.1485 337.692 65.5135 340.32C68.7385 342.262 71.7275 343.851 72.1575 343.851C72.5865 343.851 75.4845 344.977 78.5975 346.354L84.2565 348.857L81.5475 350.988C79.0805 352.929 78.4905 353.005 74.9615 351.84C69.8015 350.137 66.5595 352.146 64.8675 358.097C63.1985 363.963 62.4055 364.546 60.6645 361.181C59.2025 358.353 56.6665 356.58 52.3835 355.391C48.8385 354.406 45.6995 357.86 45.0555 363.453L44.4945 368.331L39.4945 369.035C25.8875 370.951 11.5625 377.804 8.03851 384.082C6.14251 387.46 7.03051 388.299 12.1835 387.995L16.3175 387.751L12.7715 391.676C7.63751 397.359 3.91451 404.171 1.82451 411.707C-1.61149 424.099 0.045506 433.8 4.78851 429.057C6.69351 427.152 6.72451 427.241 7.29451 436.24C7.98951 447.223 10.1115 453.772 14.4715 458.396C18.7615 462.944 22.7805 463.083 26.3785 458.806C29.1145 455.554 29.2865 455.029 33.8945 435.816C35.5475 428.921 37.3205 422.171 37.8345 420.816C38.7415 418.422 38.7855 418.452 39.3355 421.851C39.6475 423.776 40.1795 428.66 40.5195 432.703C40.8585 436.747 41.3775 440.685 41.6725 441.453C42.6785 444.075 43.9945 442.859 43.9945 439.309C43.9945 432.795 47.0925 420.417 50.3495 413.921C53.8055 407.028 56.7895 404.271 54.8865 409.731C52.5105 416.547 54.4085 416.299 60.2825 409.028C63.4665 405.087 67.5165 401.135 69.2825 400.245C71.0495 399.355 73.8595 397.333 75.5285 395.752L78.5625 392.878L82.9165 403.614C94.6855 432.637 94.3875 431.659 94.4425 441.471C94.4915 450.051 94.2775 451.013 90.8385 457.716C87.3395 464.537 87.2795 464.817 89.4515 464.273C91.5755 463.739 91.7635 464.095 92.4165 469.861C92.9565 474.638 93.4365 475.896 94.5535 475.467C95.5185 475.096 96.5265 476.142 97.6055 478.632C98.4925 480.678 99.4305 481.789 99.6895 481.101C100.674 478.492 102.206 480.088 105.622 487.281C109.72 495.91 111.885 506.415 110.423 510.582C108.256 516.76 96.1695 517.505 80.2265 512.444C66.9035 508.215 61.0425 507.35 56.3015 508.915C52.7495 510.087 52.7225 510.135 54.9445 511.324C57.1355 512.497 57.0285 512.641 51.7395 515.626C41.1885 521.58 35.5245 531.277 34.3285 545.434L33.7025 552.831L37.0985 554.252C38.9665 555.034 41.5425 557.093 42.8235 558.828L45.1525 561.984L61.3235 561.667C74.8625 561.402 78.1275 561.037 81.3835 559.421C89.9695 555.16 123.523 525.931 126.471 520.143C126.529 520.029 130.833 520.59 136.036 521.389C149.658 523.482 186.714 524.455 195.495 522.95C204.01 521.491 222.177 513.028 224.542 509.42C226.019 507.165 226.012 506.689 224.448 503.394C222.363 499 214.287 491.603 207.215 487.609C203.229 485.357 202.192 484.318 202.982 483.367C204.523 481.51 198.725 479.405 192.324 479.497C188.731 479.549 186.936 479.139 186.568 478.182C185.67 475.841 175.048 481.945 163.002 491.724C155.889 497.499 146.964 501.618 139.745 502.458L133.995 503.126V496.685C133.995 491.977 134.938 487.434 137.499 479.797C142.477 464.954 141.915 466.049 143.469 468.159C144.672 469.792 144.867 469.567 145.501 465.813C146.01 462.801 146.505 461.961 147.299 462.755C149.317 464.773 150.23 463.889 149.524 460.601C149.14 458.813 148.855 455.648 148.89 453.567C148.943 450.466 147.629 447.817 141.611 438.893C137.573 432.904 133.048 424.954 131.556 421.227C128.604 413.853 126.416 400.07 125.383 382.351C124.793 372.21 124.98 370.414 127.786 359.351C129.46 352.751 132.222 343.526 133.924 338.851C137.403 329.294 151.529 304.001 152.252 306.033C153.012 308.169 154.123 306.317 154.711 301.934C155.012 299.688 155.608 297.851 156.035 297.851C158.1 297.851 166.556 307.752 173.628 318.45C181.588 330.492 184.995 333.463 184.995 328.363C184.995 325.812 185.137 325.75 189.436 326.394C193.342 326.98 194.184 326.752 196.436 324.501C199.328 321.609 199.792 318.851 197.388 318.851C196.228 318.851 195.997 318.364 196.558 317.101C198.38 312.997 198.152 307.086 195.975 302.025C194.765 299.214 193.15 296.395 192.385 295.76C191.249 294.817 190.995 295.176 190.995 297.729C190.995 303.165 189.172 301.128 186.405 292.601C184.19 285.771 183.645 281.933 183.242 270.31L182.756 256.268L186.354 253.109C190.981 249.047 194.651 248.424 207.23 249.566C222.515 250.953 225.995 249.433 225.995 241.367C225.995 233.909 220.925 228.851 213.449 228.851C211.244 228.851 206.892 230.311 202.429 232.547C198.373 234.58 194.762 235.951 194.405 235.594C194.048 235.237 195.385 232.726 197.375 230.014C199.366 227.302 200.995 224.11 200.995 222.92C200.995 220.527 194.581 208.34 189.975 201.982C187.296 198.284 180.75 193.851 177.967 193.851C177.339 193.851 177.118 194.664 177.457 195.733C177.841 196.942 177.483 197.833 176.456 198.228C175.386 198.638 175.067 199.504 175.493 200.846C176.368 203.602 174.42 203.412 170.406 200.351C168.603 198.976 166.311 197.78 165.312 197.693C161.754 197.382 159.995 197.87 159.995 199.166C159.995 199.889 158.377 201.252 156.399 202.195C153.86 203.406 152.98 204.371 153.406 205.479C153.755 206.39 152.968 208.283 151.528 209.994C150.164 211.615 148.498 214.778 147.825 217.023C146.558 221.254 146.666 221.77 151.089 232.565C152.468 235.93 151.478 241.321 149.52 241.108C147.812 240.921 147.819 239.032 149.529 238.685C150.804 238.426 150.31 237.485 147.335 234.505C145.223 232.39 142.257 230.016 140.745 229.23C137.33 227.454 137.251 226.255 140.495 225.44C148.098 223.532 136.572 220.861 128.495 222.659C125.745 223.272 122.482 224.068 121.243 224.429C117.522 225.513 115.995 220.149 115.995 205.994C115.995 190.88 116.483 190.105 126.808 188.808C133.851 187.924 134.279 187.994 139.378 190.872C145.758 194.472 150.976 194.719 160.243 191.856C168.804 189.212 175.038 183.701 179.508 174.825C181.909 170.058 183.994 167.396 186.583 165.797C194.351 160.996 197.605 146.193 191.907 141.579C188.272 138.635 185.193 140.136 176.995 148.848C168.653 157.713 164.594 159.608 160.971 156.33C159.563 155.055 159.295 154.194 160.031 153.308C161.342 151.728 156.356 149.851 150.846 149.851C148.09 149.851 146.995 149.425 146.995 148.351C146.995 144.966 135.639 148.191 127.805 153.8C121.606 158.239 120.007 158.234 112.016 153.743C106.737 150.775 106.801 149.201 112.092 151.9C114.345 153.05 116.436 153.743 116.738 153.441C117.041 153.139 116.315 150.349 115.126 147.242C113.544 143.109 113.254 141.244 114.042 140.294C115.597 138.42 112.671 133.233 108.696 130.816C106.936 129.745 105.495 128.308 105.495 127.624C105.495 124.736 101.705 125.831 97.9165 129.812L93.9825 133.948L92.9885 131.335C90.8735 125.773 91.5745 124.538 100.745 117.668C105.558 114.062 112.689 109.243 116.592 106.959C126.292 101.282 131.995 96.2536 131.995 93.3796C131.995 92.1066 131.292 90.7946 130.432 90.4646C129.195 89.9906 130.059 88.3516 134.574 82.6076C143.331 71.4666 146.352 63.2796 142.115 62.1716C140.354 61.7116 140.461 61.0706 143.802 52.0156C147.038 43.2446 147.374 41.3596 147.431 31.6376C147.483 22.9466 147.182 20.6126 145.84 19.2696C143.624 17.0516 142.709 17.7996 138.04 25.6506C134.385 31.7966 118.951 51.8776 101.871 72.7096C96.8285 78.8596 94.9945 80.5306 94.9945 78.9736C94.9945 75.9496 93.4765 76.3446 90.6575 80.1006C84.9815 87.6636 80.6465 99.4716 78.0085 114.556C77.4115 117.968 76.3755 121.793 75.7055 123.056C73.8215 126.609 69.7095 131.851 68.8065 131.851C65.8855 131.851 70.9365 114.924 78.4335 99.5876C82.0415 92.2046 84.9945 85.2626 84.9945 84.1606C84.9945 83.0586 84.1605 81.7496 83.1405 81.2536C81.3995 80.4056 81.5735 79.5606 86.0035 67.3506C92.4085 49.6946 92.4765 49.3326 89.8465 46.7026L87.6685 44.5246L89.4675 33.7466C91.4195 22.0406 91.1955 11.1936 88.8585 4.36462C87.4435 0.229616 85.0655 -1.17938 83.2775 1.05762ZM88.7645 16.3286C89.1865 24.4806 87.2045 39.1296 84.2975 49.3506C83.7345 51.3286 83.7525 51.3296 85.8855 49.4246C87.3915 48.0786 88.3585 47.8146 89.0915 48.5476C89.8245 49.2806 88.2805 54.9896 83.9715 67.4746C76.1955 90.0006 76.1565 90.1616 79.3775 86.3896C84.2665 80.6646 83.2465 84.9846 76.2075 99.8166C70.7595 111.296 68.5925 117.197 66.9325 125.073C65.7405 130.726 64.4085 135.737 63.9725 136.208C62.7655 137.514 61.3905 134.229 58.3565 122.788C55.9325 113.649 55.5905 110.548 55.6065 97.8506C55.6295 80.2456 57.0435 74.8786 68.3935 49.3126C73.9735 36.7466 76.7225 28.9846 79.0015 19.3616C80.6935 12.2176 82.7945 5.27862 83.6695 3.94262L85.2615 1.51262L86.7795 4.40962C87.6625 6.09562 88.4925 11.0756 88.7645 16.3286ZM145.995 29.9926C145.995 39.4356 144.44 45.7876 139.299 57.3506C133.245 70.9676 133.315 70.6956 136.645 67.6006C139.923 64.5546 141.995 64.0666 141.995 66.3406C141.995 68.1936 134.303 80.2916 130.032 85.1556C128.285 87.1456 125.288 89.7426 123.372 90.9266C119.136 93.5446 119.602 94.4836 124.294 92.7866C126.191 92.1016 128.546 91.8486 129.528 92.2246C131.13 92.8396 131.015 93.2216 128.404 95.9506C126.804 97.6236 120.77 101.968 114.995 105.604C109.22 109.24 101.2 114.695 97.1735 117.727C91.2605 122.177 89.6755 122.96 88.9385 121.794C88.4365 121.001 88.0185 119.554 88.0095 118.579C87.9755 114.65 94.4465 103.017 103.472 90.7796C118.831 69.9546 127.902 54.6796 135.498 36.8506C137.49 32.1756 140.087 26.4066 141.269 24.0306C143.217 20.1176 143.541 19.8766 144.707 21.4716C145.457 22.4966 145.995 26.0576 145.995 29.9926ZM73.9665 30.5336C73.2915 32.6326 69.2275 42.6756 64.9345 52.8506C54.3825 77.8656 53.5215 81.2766 53.5805 97.8506C53.6205 108.993 54.0935 113.223 56.2845 122.068C59.0695 133.308 61.3985 139.851 62.6145 139.851C63.0115 139.851 64.1625 139.104 65.1715 138.19C66.1815 137.277 67.1535 136.715 67.3335 136.94C67.7155 137.42 70.9905 157.39 71.7065 163.601L72.1955 167.851H63.0365C57.9985 167.851 54.0945 167.498 54.3615 167.066C54.6285 166.634 55.5965 160.469 56.5115 153.367C57.8635 142.879 57.9605 139.317 57.0265 134.402C55.4685 126.2 51.5925 113.472 46.8555 100.998C42.4965 89.5216 39.6985 78.8506 41.0485 78.8506C41.5295 78.8506 42.4055 79.7506 42.9945 80.8506C44.8265 84.2746 45.7215 83.0606 45.2185 77.8326C44.8025 73.4956 44.9575 72.8996 46.3655 73.4396C47.3735 73.8266 48.0035 73.5476 48.0185 72.7076C48.0755 69.4576 53.1305 59.4776 59.6815 49.6796C63.5755 43.8566 68.4405 36.0896 70.4935 32.4196C74.5265 25.2076 75.9225 24.4496 73.9665 30.5336ZM127.08 50.6816C121.583 61.5716 112.92 75.1516 103.742 87.2656C94.8155 99.0456 90.9855 105.335 87.6995 113.601C86.0135 117.843 84.7345 118.605 82.1005 116.938C80.2555 115.77 81.1685 110.12 85.0965 98.3916C88.6335 87.8276 89.7285 86.1046 91.4265 88.4266C92.4305 89.7996 93.1185 89.2376 96.3035 84.4406C98.3435 81.3686 104.846 73.0586 110.754 65.9736C116.661 58.8896 123.229 50.9846 125.348 48.4076C127.467 45.8316 129.409 43.9316 129.663 44.1856C129.918 44.4406 128.755 47.3626 127.08 50.6816ZM87.9845 124.076C89.0635 125.849 90.4555 129.787 91.0785 132.826C92.8585 141.506 93.4805 141.917 95.9975 136.067C98.7345 129.704 100.402 128.114 102.507 129.861C103.338 130.551 105.449 131.844 107.197 132.733C108.946 133.623 110.585 135.011 110.841 135.818C111.214 136.993 110.778 136.939 108.651 135.545C105.291 133.343 105.315 133.972 108.788 139.171C111.759 143.617 114.293 148.886 113.73 149.449C113.544 149.636 110.714 148.688 107.443 147.344C104.172 145.999 100.777 144.888 99.8995 144.875C97.8915 144.845 95.4805 147.472 93.9555 151.353C92.8715 154.112 92.7105 154.192 91.9415 152.351C91.4825 151.251 90.4105 147.876 89.5595 144.851C88.7085 141.826 87.5905 138.702 87.0755 137.908C85.5925 135.625 81.4995 138.066 77.7365 143.478C70.8185 153.428 70.7825 153.431 71.3925 144.101C71.7305 138.937 71.5595 135.851 70.9375 135.851C68.9655 135.851 73.1955 129.665 76.5005 127.715C78.6365 126.455 79.6785 125.192 79.3315 124.286C78.9635 123.327 79.4605 122.851 80.8285 122.851C81.9545 122.851 83.1545 122.401 83.4945 121.851C84.5865 120.084 85.9765 120.772 87.9845 124.076ZM87.5345 144.601C90.4135 154.975 91.0195 156.292 94.6045 159.963C98.1105 163.554 98.1235 163.602 95.8225 164.169C94.5425 164.484 90.0385 165.051 85.8145 165.428L78.1345 166.114L77.4365 162.391C76.0605 155.057 78.3705 145.618 82.7705 140.601C85.1605 137.875 85.8225 138.431 87.5345 144.601ZM110.902 159.303C112.603 160.183 113.995 161.279 113.995 161.74C113.995 163.026 100.613 163.851 99.8465 162.611C98.6665 160.703 96.8775 149.85 97.5595 148.745C97.9635 148.093 100.139 149.662 103.02 152.682C105.654 155.444 109.201 158.423 110.902 159.303ZM116.09 157.998C120.03 159.178 120.878 160.187 118.937 161.387C116.997 162.586 105.137 153.778 102.746 149.361C102.153 148.267 104.035 149.499 106.927 152.1C109.819 154.7 113.943 157.354 116.09 157.998ZM186.995 148.795C186.995 149.315 185.884 151.002 184.527 152.545L182.058 155.351L182.027 152.651C182.009 151.108 182.745 149.513 183.745 148.931C185.964 147.639 186.995 147.596 186.995 148.795ZM141.295 152.765C146.129 151.379 153.253 151.588 152.73 153.101C152.487 153.804 153.625 154.818 155.329 155.418C163.002 158.117 160.277 163.086 150.45 164.313C147.359 164.7 142.322 165.879 139.256 166.933C132.889 169.124 129.43 169.364 128.395 167.689C127.723 166.602 129.018 165.213 133.626 162.081C135.325 160.927 135.267 160.869 132.995 161.443C131.62 161.791 129.353 163.143 127.957 164.447C126.561 165.752 123.277 167.464 120.659 168.252C115.811 169.711 110.47 172.659 111.255 173.444C111.493 173.682 113.318 173.196 115.309 172.364C120.312 170.274 120.714 170.448 117.919 173.488C116.586 174.939 115.945 175.927 116.495 175.685C117.045 175.443 119.095 174.512 121.05 173.616C123.006 172.72 125.823 171.681 127.312 171.308C129.531 170.751 129.907 170.916 129.403 172.23C128.945 173.423 130.743 172.941 136.447 170.341C144.235 166.792 151.412 165.459 147.745 168.243C145.388 170.032 145.517 171.177 147.929 169.886C150.96 168.264 151.359 168.646 149.539 171.424C147.931 173.878 147.937 173.951 149.674 173.001C150.676 172.453 153.52 169.909 155.995 167.348C160.328 162.863 165.701 159.224 166.625 160.148C166.87 160.393 166.546 161.743 165.906 163.148C164.429 166.388 165.434 170.538 167.882 171.315C168.918 171.644 171.717 171.474 174.103 170.938C176.489 170.402 178.561 170.084 178.708 170.231C178.855 170.378 177.82 172.817 176.407 175.651C173.419 181.649 169.477 185.272 162.495 188.438C152.126 193.142 144.137 192.548 137.327 186.569C135.149 184.657 133.579 183.902 133.163 184.568C132.418 185.759 113.191 189.09 111.848 188.26C111.379 187.97 110.995 187.026 110.995 186.163C110.995 184.81 110.131 184.714 104.745 185.472C101.308 185.955 94.5195 186.301 89.6615 186.24C82.0385 186.144 80.5325 185.834 78.6755 183.976C75.6605 180.962 77.3875 178.53 83.0965 177.751L87.4945 177.151L81.9945 176.895C69.4305 176.31 67.0205 177.221 57.3285 186.226C53.3865 189.887 48.4365 193.632 46.3285 194.548C43.7515 195.667 43.0435 196.336 44.1695 196.591C46.8755 197.201 53.0165 193.496 60.1665 186.937C63.8355 183.571 68.6725 180.17 70.9165 179.379L74.9945 177.94L75.0095 180.645C75.0305 184.343 75.9545 185.518 80.2475 187.312C84.3255 189.016 95.7415 189.303 102.995 187.883C107.094 187.081 107.74 187.236 110.244 189.613L112.993 192.224L110.994 194.352C108.652 196.845 108.302 198.671 110.519 196.831C111.357 196.135 112.216 195.743 112.427 195.958C112.638 196.174 113.222 202.325 113.726 209.626C114.805 225.272 114.945 225.541 126.582 234.322C135.2 240.826 150.539 255.13 152.178 258.192C152.931 259.599 152.848 260.324 151.865 260.932C150.765 261.611 150.859 263.044 152.396 269.009C153.424 272.998 153.866 276.393 153.38 276.554C152.893 276.715 152.637 281.345 152.811 286.843C153.075 295.188 152.891 296.748 151.697 296.29C150.624 295.878 150.106 296.957 149.62 300.618C149.166 304.043 147.134 308.599 142.796 315.923C134.361 330.164 130.743 339.159 125.425 359.114C120.265 378.475 118.629 382.189 112.265 388.993C105.149 396.601 102.613 395.373 101.429 383.747L100.778 377.351L105.473 370.98C110.023 364.807 112.995 358.438 112.995 354.86C112.995 353.903 112.11 351.996 111.029 350.622L109.064 348.123L112.972 339.237C117.422 329.122 121.515 315.643 123.158 305.696C123.774 301.963 124.623 299.121 125.043 299.381C125.464 299.641 126.117 302.103 126.495 304.852C126.873 307.602 127.549 309.851 127.996 309.851C130.569 309.851 128.664 279.561 125.357 267.881C124.496 264.84 120.278 254.926 115.983 245.851C111.688 236.776 106.954 226.296 105.463 222.562C103.54 217.748 101.041 213.966 96.8745 209.562C93.6415 206.146 90.9965 202.954 90.9965 202.469C90.9955 201.985 87.7315 201.801 83.7445 202.062C73.9375 202.702 67.0295 206.138 56.9615 215.381C51.3115 220.568 47.8555 222.974 45.3865 223.437C41.7355 224.122 35.8625 223.598 32.6295 222.298C31.0465 221.662 30.8705 221.886 31.4695 223.772C32.1585 225.942 32.1045 225.959 29.2195 224.467C25.5975 222.594 22.9945 217.395 22.9945 212.033C22.9945 209.825 22.5315 207.863 21.9655 207.675C21.3535 207.471 21.9235 204.91 23.3775 201.341C25.9615 194.997 25.9925 193.778 23.5185 195.831C21.4175 197.575 21.6175 195.982 23.9875 192.094C27.3825 186.527 34.8365 180.203 41.5275 177.215C47.6685 174.472 49.4305 172.965 46.7445 172.751C46.0575 172.696 46.6195 172.291 47.9945 171.851C52.5105 170.405 73.6725 170.767 81.7165 172.429C90.5465 174.252 94.3275 173.793 99.5315 170.262C101.884 168.665 103.62 168.076 104.216 168.672C104.813 169.269 104.309 170.218 102.857 171.235C99.5495 173.551 101.463 173.236 109.245 170.183C114.259 168.216 118.042 165.695 123.654 160.579C131.832 153.124 137.258 149.964 137.802 152.339C138.035 153.356 138.877 153.459 141.295 152.765ZM76.5125 166.907C76.9715 168.355 76.8445 168.877 76.1385 168.44C73.8045 166.998 71.9035 154.284 73.7445 152.429C74.1565 152.013 74.7915 154.607 75.1555 158.193C75.5185 161.779 76.1295 165.7 76.5125 166.907ZM95.6565 157.101C95.3795 157.789 95.1525 157.226 95.1525 155.851C95.1525 154.476 95.3795 153.914 95.6565 154.601C95.9345 155.289 95.9345 156.414 95.6565 157.101ZM113.995 165.994C113.995 166.744 111.379 167.851 109.604 167.851C108.929 167.851 107.547 167.244 106.532 166.501C104.89 165.301 105.2 165.163 109.34 165.251C111.9 165.306 113.995 165.64 113.995 165.994ZM98.0005 168.344C95.9305 170.838 89.5295 172.072 84.9945 170.851C82.7945 170.259 80.9945 169.341 80.9945 168.812C80.9945 167.538 85.7035 167.571 86.4945 168.851C87.4385 170.378 90.7075 170.042 91.3565 168.351C91.7225 167.396 93.2605 166.851 95.5855 166.851C98.7125 166.851 99.0605 167.066 98.0005 168.344ZM171.992 206.845C173.094 209.004 174.048 212.477 174.113 214.561C174.178 216.646 174.554 219.701 174.947 221.351L175.662 224.351L176.309 220.851C176.665 218.926 177.077 216.302 177.225 215.019L177.495 212.688L181.495 215.574C188.465 220.604 188.681 220.164 182.245 214.045C178.808 210.776 175.995 207.586 175.995 206.955C175.995 206.324 177.106 205.302 178.464 204.683C179.821 204.065 180.647 203.098 180.299 202.535C179.903 201.895 180.354 201.775 181.501 202.215C182.597 202.636 183.652 202.405 184.123 201.643C184.669 200.76 185.232 200.688 185.951 201.407C188.141 203.597 197.995 221.156 197.995 222.868C197.995 223.858 196.06 227.071 193.695 230.009C187.463 237.75 184.975 241.498 185.631 242.154C185.948 242.471 187.145 241.858 188.29 240.791C189.435 239.724 191.601 238.851 193.102 238.851C194.604 238.851 199.119 237.276 203.135 235.351C213.834 230.224 219.818 230.79 222.489 237.182C224.207 241.294 223.333 245.775 220.614 246.794C219.449 247.23 213.16 247.154 206.639 246.624C192.693 245.49 188.626 246.512 182.824 252.609L179.264 256.351L180.066 269.963C180.962 285.16 182.737 293.363 187.127 302.601C190.278 309.231 191.423 310.148 192.311 306.75C192.614 305.594 193.34 304.946 193.928 305.309C195.723 306.419 195.116 312.918 192.879 316.538C190.824 319.863 190.817 320.001 192.629 321.335C194.446 322.672 194.445 322.728 192.577 323.451C191.39 323.911 189.547 323.556 187.746 322.523C183.92 320.327 183.094 320.41 182.102 323.091C181.363 325.087 180.554 324.218 174.64 315.076C170.992 309.436 165.304 302.252 162.001 299.113C156.435 293.823 155.995 293.083 155.995 289.005C155.995 285.208 156.2 284.777 157.495 285.851C159.617 287.612 159.478 286.091 156.533 275.389C154.03 266.292 154.058 263.75 156.621 267.351C157.404 268.451 160.483 272.589 163.465 276.546C170.872 286.376 171.995 288.853 171.995 295.36C171.995 298.845 172.374 300.735 172.995 300.351C174.587 299.367 174.198 279.051 172.459 272.374C169.586 261.344 167.735 258.373 161.452 254.701C158.291 252.854 154.758 250.069 153.6 248.512L151.495 245.681L157.245 234.832C162.721 224.5 164.195 219.851 161.995 219.851C161.445 219.851 160.991 220.414 160.985 221.101C160.969 223.15 156.163 232.851 155.164 232.851C153.785 232.851 149.995 223.423 149.995 219.993C149.995 218.075 151.243 215.459 153.486 212.679C155.405 210.298 157.503 207.339 158.146 206.101C158.79 204.863 160.058 203.851 160.964 203.851C161.871 203.851 163.48 203.217 164.54 202.442C167.146 200.536 169.476 201.913 171.992 206.845ZM94.5295 211.101C100.496 217.126 102.174 219.585 104.46 225.655C105.973 229.672 109.608 237.612 112.538 243.301C121.268 260.25 127.138 280.003 126.931 291.732L126.867 295.351L125.25 292.101C122.934 287.448 121.995 288.071 121.995 294.263C121.995 305.213 116.687 326.079 110.463 339.601C108.627 343.589 106.509 346.851 105.756 346.851C105.003 346.851 102.246 345.493 99.6285 343.834C96.0955 341.593 95.0155 340.36 95.4335 339.042C98.1745 330.408 97.7905 315.746 94.4545 301.593C92.6355 293.88 91.6095 292.276 90.6205 295.601C90.3335 296.563 90.3335 294.426 90.6205 290.851L91.1415 284.351L88.5245 287.351L85.9075 290.351L86.5695 285.851C87.5165 279.407 89.3735 276.369 94.9705 272.106C97.6815 270.041 100.934 267.567 102.198 266.608L104.495 264.866L101.506 265.924C94.2105 268.509 86.7025 275.374 81.5415 284.181C76.0005 293.636 69.9935 308.71 70.0165 313.104C70.0755 324.507 83.3575 338.953 102.791 348.752C106.253 350.498 109.352 352.618 109.677 353.464C110.674 356.062 107.994 363.096 104.005 368.351C101.917 371.101 97.7235 377.226 94.6855 381.962C91.6475 386.698 88.4905 390.831 87.6685 391.146C83.1725 392.871 73.7315 386.662 69.2435 379.027C66.9285 375.09 66.5035 373.245 66.5495 367.351C66.6165 358.779 68.4405 354.475 72.1895 354.041C76.2295 353.573 77.7925 356.896 78.8265 368.148C79.7605 378.306 81.3765 381.851 85.0715 381.851C87.1965 381.851 88.6285 377.81 89.5005 369.351C90.4755 359.894 91.0315 357.895 93.2605 355.817C96.3355 352.953 94.7005 352.34 91.4475 355.138C89.0105 357.234 88.4735 358.805 87.0735 367.939C86.1955 373.666 85.0305 378.282 84.4855 378.198C82.6455 377.914 81.1075 371.397 81.0505 363.641C80.9985 356.488 81.1925 355.749 83.7345 353.391C85.6585 351.607 87.5935 350.851 90.2345 350.851C92.3025 350.851 93.9945 350.451 93.9945 349.961C93.9945 349.472 89.1565 347.156 83.2445 344.815C67.3835 338.536 61.3225 335.119 58.7965 331.031C57.5955 329.087 56.4355 328.027 56.2205 328.674C55.5615 330.65 54.2465 329.99 53.5835 327.351C52.8575 324.455 51.3465 324.065 50.6835 326.601C50.4325 327.563 50.1745 326.468 50.1105 324.166C50.0465 321.864 50.4575 318.764 51.0225 317.277C52.3575 313.766 51.6525 313.19 48.5255 315.239C47.1335 316.151 45.9945 316.683 45.9945 316.422C45.9945 316.16 49.7585 311.267 54.3585 305.548C68.3985 288.095 72.8605 278.744 77.3565 257.351C80.0325 244.62 79.8675 242.682 76.3865 245.952C72.2155 249.871 73.8085 246.226 78.2765 241.629C80.7915 239.041 84.9025 236.252 88.2375 234.869C93.3305 232.758 93.7405 232.375 92.2055 231.16C90.7175 229.982 91.0155 229.891 94.4945 230.462C96.6945 230.823 99.7315 231.745 101.245 232.51C103.664 233.735 103.995 233.715 103.995 232.343C103.995 229.92 99.3315 221.304 95.9105 217.408C94.2125 215.474 90.1855 211.909 86.9615 209.485C80.9205 204.945 80.5085 203.851 84.8385 203.851C86.6285 203.851 89.4105 205.932 94.5295 211.101ZM128.436 227.319C126.612 228.699 126.712 228.789 130.088 228.819C134.871 228.862 142.495 232.928 142.496 235.437C142.497 236.49 143.707 239.151 145.186 241.351C146.664 243.551 148.195 246.701 148.59 248.351C149.247 251.094 148.657 250.733 141.691 244.141C137.501 240.175 131.282 234.9 127.872 232.418C121.875 228.055 121.751 227.875 124.083 226.942C125.41 226.412 127.369 225.949 128.436 225.914C130.358 225.852 130.358 225.866 128.436 227.319ZM160.659 257.394C165.53 260.249 168.385 264.944 169.448 271.851C169.829 274.326 170.364 277.139 170.635 278.101C172.452 284.53 162.708 272.294 157.099 261.101C153.612 254.144 154.153 253.581 160.659 257.394ZM139.792 268.969C140.966 275.694 141.049 279.526 140.21 288.351C139.635 294.401 139.319 299.506 139.507 299.695C140.343 300.535 142.165 291.631 142.695 284.117C143.293 275.628 141.804 265.34 139.527 262.225C138.662 261.043 138.736 262.919 139.792 268.969ZM82.9995 294.823C81.8265 301.009 82.2065 301.874 84.9885 299.357C86.9745 297.56 86.9945 297.599 86.9945 303.196C86.9945 308.794 88.6225 310.99 89.7045 306.851C89.9925 305.751 90.6165 304.851 91.0925 304.851C92.7695 304.851 93.4945 310.495 93.4945 323.552C93.4945 341.147 93.1165 341.466 83.6945 331.811C75.9715 323.898 72.6355 318.312 72.6095 313.257C72.5915 309.469 82.0365 287.493 83.1885 288.645C83.6425 289.099 83.5585 291.88 82.9995 294.823ZM56.7835 361.126C57.9595 362.378 60.9545 367.753 63.4395 373.071C65.9245 378.388 69.4115 384.395 71.1885 386.419L74.4195 390.099L69.9565 389.357C67.5025 388.948 64.2305 387.967 62.6845 387.176C57.9735 384.765 51.7835 378.574 49.8605 374.351C48.0915 370.467 47.3145 360.864 48.6615 359.518C50.1225 358.056 54.7625 358.975 56.7835 361.126ZM47.3695 375.601C48.6945 378.214 50.7265 381.208 51.8865 382.256C53.0455 383.304 53.9945 384.476 53.9945 384.861C53.9945 385.247 51.0825 385.834 47.5225 386.166C39.8895 386.879 35.3545 388.967 33.7385 392.514C32.6825 394.83 32.8775 395.357 35.7285 397.904C39.1215 400.936 44.5125 402.836 49.7445 402.845C51.5325 402.848 52.9945 403.078 52.9945 403.356C52.9945 403.634 51.2515 407.346 49.1205 411.606C46.9895 415.866 44.5815 420.921 43.7685 422.84L42.2895 426.328L41.5665 417.078C41.1685 411.99 40.4625 408.062 39.9975 408.349C38.5465 409.246 33.1715 426.75 30.0175 440.851C28.3565 448.276 26.1645 455.476 25.1455 456.851C22.5045 460.417 19.5305 460.525 16.3765 457.169C10.0965 450.485 8.31751 439.827 10.6075 422.614C12.4125 409.052 12.0905 406.324 9.51751 413.367C6.12351 422.654 4.11051 426.851 3.05051 426.851C0.449506 426.851 3.18551 412.562 7.55751 403.314C12.1185 393.665 19.8385 387.222 31.3875 383.426C32.4285 383.084 33.0575 382.581 32.7855 382.309C32.5135 382.036 27.4495 382.748 21.5325 383.889C15.6165 385.031 10.5275 385.717 10.2245 385.414C9.22051 384.411 13.4195 380.673 18.4945 378.053C23.9705 375.226 37.8965 371.043 42.2275 370.925C44.5125 370.863 45.3555 371.63 47.3695 375.601ZM102.17 394.851C103.354 396.702 103.915 400.985 104.331 411.351C104.64 419.051 105.601 431.426 106.466 438.851C108.581 457.004 116.288 496.168 119.996 507.601C121.645 512.689 122.995 517.938 122.995 519.267C122.995 522.115 120.832 524.237 100.995 540.85C84.6315 554.553 78.7125 558.366 72.3105 559.326C65.6885 560.319 64.6545 559.016 65.2195 550.381C65.7255 542.623 68.3675 536.276 72.4145 533.093C74.2715 531.632 74.6035 530.86 73.7455 530.002C72.8875 529.144 73.0875 528.491 74.5485 527.387C76.1675 526.162 76.2225 525.909 74.8795 525.883C72.7685 525.841 67.9945 529.619 67.9945 531.33C67.9945 532.064 66.6445 535.673 64.9945 539.351C62.7495 544.354 61.9945 547.531 61.9945 551.969C61.9945 557.416 61.7845 557.98 59.4295 558.876C54.8235 560.627 48.2115 560.068 45.8735 557.73C43.9865 555.843 43.8015 554.763 44.2035 547.98C44.9385 535.575 50.4505 526.23 59.9015 521.366L64.4945 519.003L60.2445 518.299C53.7115 517.217 55.3115 514.851 62.5765 514.851C65.9395 514.851 67.1925 513.501 64.7445 512.513C64.0575 512.236 64.6765 511.973 66.1215 511.93C67.5665 511.887 73.1915 513.282 78.6215 515.031C90.5375 518.87 103.28 519.539 108.662 516.61C115.685 512.786 115.248 499.997 107.578 484.886C105.195 480.192 102.924 474.867 102.53 473.053C101.978 470.505 101.521 469.999 100.522 470.829C99.0775 472.027 97.9945 470.241 97.9945 466.662C97.9945 465.25 97.5285 464.816 96.4545 465.228C94.4565 465.995 94.5735 460.576 96.8015 449.107C98.9855 437.864 97.8605 432.127 89.6205 412.464C85.9765 403.767 82.9945 396.022 82.9945 395.252C82.9945 394.387 84.0575 393.851 85.7715 393.851C89.5905 393.851 92.2935 391.722 95.5655 386.14L98.3455 381.396L99.4575 386.874C100.07 389.886 101.29 393.476 102.17 394.851ZM122.408 385.101C122.684 386.889 123.388 393.362 123.972 399.486C125.602 416.572 129.386 426.681 139.456 440.851C143.761 446.91 143.934 447.385 141.993 447.851C139.945 448.343 139.954 448.41 142.504 451.851C145.021 455.248 145.037 455.36 143.045 455.671C141.405 455.926 141.117 456.487 141.612 458.46C142.052 460.216 141.849 460.846 140.908 460.64C140.015 460.445 139.358 461.975 138.886 465.351C138.501 468.101 136.568 474.761 134.59 480.151C131.864 487.579 130.995 491.491 130.995 496.319C130.995 504.929 131.467 505.853 135.852 505.839C145.042 505.809 155.381 501.241 167.495 491.857C177.147 484.381 179.028 483.287 179.875 484.656C180.275 485.303 182.759 484.927 186.768 483.613C190.215 482.483 193.364 481.911 193.765 482.341C194.167 482.772 193.933 483.326 193.245 483.571C190.948 484.391 191.96 485.851 194.826 485.851C202.771 485.851 224.472 502.56 222.66 507.283C222.029 508.927 218.517 511.339 215.412 512.261C213.839 512.728 213.055 512.277 212.208 510.419C208.575 502.445 194.266 492.947 187.827 494.235C183.989 495.002 175.531 498.721 176.17 499.36C176.437 499.626 179.054 499.132 181.987 498.261C186.046 497.055 187.888 496.937 189.704 497.764C191.016 498.362 193.116 498.851 194.371 498.851C197.693 498.851 205.381 504.295 207.43 508.1C210.36 513.541 209.331 515.871 202.995 518.142C192.682 521.84 148.892 521.596 130.916 517.741C126.582 516.811 126.09 516.389 124.505 512.239C122.668 507.428 122.829 504.733 125.481 495.851C129.461 482.525 129.187 451.633 124.944 435.351C122.384 425.528 115.619 411.161 110.186 404.01C107.954 401.072 106.338 398.147 106.595 397.51C106.852 396.872 108.735 395.111 110.779 393.595C112.823 392.08 115.845 388.827 117.495 386.367C119.145 383.908 120.812 381.885 121.2 381.873C121.587 381.861 122.131 383.313 122.408 385.101ZM64.2415 390.567C69.0525 392.098 72.9895 393.652 72.9915 394.019C72.9995 395.687 65.8355 398.838 59.8685 399.791C52.4865 400.971 43.4045 399.788 38.7445 397.041C31.9465 393.033 37.4235 389.767 53.9945 387.949C54.8195 387.858 59.4305 389.037 64.2415 390.567ZM60.1775 405.068C59.4605 405.785 58.9945 405.844 58.9945 405.218C58.9945 403.883 60.1775 402.7 60.8445 403.368C61.1285 403.652 60.8285 404.417 60.1775 405.068ZM114.837 416.703C122.996 432.467 126.541 450.516 125.743 472.238C125.24 485.95 122.788 499.851 120.873 499.851C120.39 499.851 119.995 499.609 119.995 499.313C119.995 499.017 118.229 490.13 116.07 479.563C111.909 459.192 108.529 434.505 107.416 416.351L106.742 405.351L108.81 407.203C109.948 408.222 112.66 412.497 114.837 416.703ZM50.7685 522.69C51.7355 523.304 51.5295 523.961 49.9105 525.425C46.3855 528.61 42.9875 536.488 41.7295 544.395C40.7315 550.668 40.2395 551.851 38.6245 551.851C36.8575 551.851 36.7515 551.291 37.2945 544.811C37.9205 537.342 41.4535 528.121 45.2265 524.104C47.4785 521.707 48.7205 521.39 50.7685 522.69Z" fill="black"/>
</svg>
