<svg width="986" height="325" viewBox="0 0 986 325" fill="none" xmlns="http://www.w3.org/2000/svg">
<path fill-rule="evenodd" clip-rule="evenodd" d="M280.108 0.805291C270.681 2.37329 260.817 7.72729 253.053 15.4913C234.806 33.7383 232.144 56.6933 245.476 80.8333C247.85 85.1333 258.666 94.5253 264.82 97.6323C274.592 102.565 287.771 105.596 308.427 107.66C331.044 109.92 338.812 113.999 346.673 127.741C351.412 136.026 352.927 143.235 352.927 157.502C352.927 171.658 351.347 179.393 346.794 187.531C342.783 194.699 338.826 198.879 333.103 201.993C327.243 205.183 322.54 206.26 308.427 207.643C289.824 209.466 274.334 212.956 265.373 217.344C249.826 224.956 238.82 241.671 237.292 259.99C235.347 283.307 252.771 307.24 276.427 313.742C283.697 315.74 299.125 315.521 306.427 313.316C328.731 306.579 340.368 289.773 347.371 254.186C351.337 234.03 354.63 227.26 363.311 221.415C368.85 217.686 374.979 216.047 390.427 214.164C406.388 212.218 422.202 209.172 429.659 206.606C444.077 201.646 456.499 189.069 460.898 174.978C466.394 157.372 463.348 138.604 452.845 125.364C445.961 116.685 438.993 112.004 427.427 108.286C417.631 105.137 412.502 104.129 393.927 101.705C370.164 98.6043 365.65 97.1133 358.589 90.0343C353.038 84.4693 350.412 77.6633 347.458 61.1863C345.525 50.4013 340.938 35.5913 336.93 27.1933C327.699 7.85129 303.977 -3.16571 280.108 0.805291ZM732.427 12.3033C716.601 16.3503 708.623 25.5333 704.295 44.6863C701.807 55.6963 702.052 79.5803 704.811 95.0353C705.975 101.553 706.927 107.456 706.927 108.153C706.927 108.858 702.357 111.05 696.64 113.087C684.037 117.577 665.071 127.039 657.576 132.576C648.798 139.061 641.114 147.56 637.628 154.642C634.876 160.232 634.43 162.199 634.448 168.665C634.466 174.951 634.955 177.171 637.427 182.186C643.102 193.702 658.168 206.459 676.91 215.618C684.905 219.525 686.298 220.092 699.256 224.717C703.562 226.254 707.25 227.675 707.451 227.877C707.652 228.078 707.398 230.03 706.886 232.214C703.004 248.792 701.843 276.751 704.463 290.563C707.256 305.288 714.637 317.382 723.686 322.061C728.119 324.354 737.644 325.539 744.427 324.642C761.303 322.411 777.3 314.094 799.816 295.847C806.899 290.107 810.633 287.683 811.455 288.291C812.121 288.783 815.762 291.81 819.547 295.018C829.254 303.245 844.078 312.953 853.983 317.569C865.648 323.006 874.407 325.033 883.823 324.476C900.436 323.492 909.368 315.086 915.147 294.995C918.3 284.036 918.262 257.794 915.07 240.251C913.875 233.686 913.242 228.02 913.662 227.658C914.083 227.297 918.027 225.768 922.427 224.26C942.642 217.333 961.323 206.528 972.507 195.296C982.026 185.736 985.347 178.873 985.393 168.671C985.422 162.201 984.983 160.253 982.229 154.654C974.374 138.682 954.834 124.819 923.927 113.29C917.602 110.931 912.495 108.592 912.578 108.093C912.66 107.594 913.551 102.686 914.557 97.1863C915.948 89.5863 916.385 82.2653 916.379 66.6863C916.371 47.0273 916.259 45.8523 913.643 38.0543C909.27 25.0203 902.414 17.1123 892.453 13.6113C881.055 9.60529 868.025 11.8053 850.204 20.7463C841.605 25.0603 824.558 36.4833 818.868 41.7443C818.01 42.5373 815.689 44.6973 813.709 46.5443L810.11 49.9013L802.394 43.3183C787.022 30.2013 768.569 19.0813 754.882 14.6853C748.461 12.6233 736.244 11.3273 732.427 12.3033ZM733.869 28.6343C723.285 31.8463 718.737 43.4973 718.828 67.1683C718.87 78.2313 721.842 102.934 723.307 104.399C723.501 104.593 728.107 103.781 733.543 102.595C738.979 101.409 749.036 99.6973 755.891 98.7913L768.355 97.1433L775.497 87.9333C782.356 79.0873 786.99 73.6563 794.797 65.3163L798.419 61.4463L793.923 57.5263C777.939 43.5913 761.016 33.3693 747.947 29.7553C740.007 27.5593 737.952 27.3953 733.869 28.6343ZM868.402 30.4573C855.399 34.8783 841.006 43.9213 826.961 56.4933L821.494 61.3863L828.55 69.2863C832.431 73.6313 839.237 81.7053 843.675 87.2273L851.743 97.2683L862.085 98.5383C867.773 99.2363 877.787 100.908 884.337 102.253C890.888 103.598 896.382 104.564 896.546 104.4C897.719 103.228 900.199 83.7303 900.645 72.1713C901.283 55.6593 900.025 46.5163 895.922 37.8393C891.006 27.4443 883.324 25.3843 868.402 30.4573ZM804.304 78.9363C799.666 83.7543 793.031 91.7673 791.678 94.1863C791.313 94.8373 797.68 95.1863 809.924 95.1863C826.343 95.1863 828.624 94.9963 827.899 93.6863C826.546 91.2413 810.934 73.6863 810.113 73.6863C809.698 73.6863 807.084 76.0493 804.304 78.9363ZM164.039 107.267C141.195 113.41 124.927 134.589 124.927 158.186C124.927 187.243 148.37 210.686 177.427 210.686C206.345 210.686 229.927 187.104 229.927 158.186C229.927 134.166 213.685 113.342 190.203 107.257C182.754 105.327 171.235 105.331 164.039 107.267ZM780.903 112.401C777.744 112.74 776.863 113.58 772.415 120.483C758.207 142.532 745.464 166.754 746.329 170.068C747.391 174.135 763.111 202.275 770.472 213.283L777.892 224.38L788.565 225.033C802.171 225.865 817.704 225.864 831.347 225.029L842.077 224.373L846.862 217.279C854.555 205.873 859.509 197.465 867.087 182.95C874.027 169.654 874.168 169.24 872.909 165.761C870.303 158.554 852.416 127.154 845.466 117.585C842.524 113.534 841.559 112.907 837.386 112.335C832.523 111.669 787.225 111.721 780.903 112.401ZM739.202 118.083C733.579 119.303 728.643 120.637 728.233 121.046C727.488 121.791 731.514 134.997 735.214 143.945L737.181 148.705L743.873 136.445C747.553 129.703 751.777 122.274 753.258 119.936L755.952 115.686L752.69 115.775C750.895 115.823 744.826 116.862 739.202 118.083ZM867.442 121.436C869.346 124.598 873.486 131.787 876.642 137.41C879.797 143.033 882.739 147.274 883.178 146.835C884.434 145.579 892.029 122.395 891.574 121.208C891.178 120.178 870.486 115.686 866.134 115.686C864.08 115.686 864.14 115.953 867.442 121.436ZM699.927 129.062C673.195 139.393 654.286 153.081 650.835 164.599C648.979 170.793 651.618 176.617 659.935 184.686C667.019 191.558 675.58 197.057 687.927 202.667C695.301 206.017 709.819 211.675 711.059 211.682C711.407 211.684 713.546 206.11 715.813 199.294C718.079 192.478 721.686 182.692 723.828 177.546C727.426 168.902 727.615 167.984 726.318 165.475C724.569 162.093 714.726 135.687 713.07 129.936C711.583 124.77 711.115 124.739 699.927 129.062ZM907.124 128.436C906.549 129.948 905.076 134.336 903.85 138.186C902.625 142.036 899.665 150.068 897.274 156.035C894.883 162.001 892.927 167.466 892.927 168.178C892.927 168.891 894.776 174.134 897.035 179.83C899.295 185.526 902.719 194.911 904.645 200.686C906.571 206.461 908.283 211.334 908.449 211.514C908.768 211.862 919.683 208.008 926.427 205.167C948.524 195.86 963.481 184.793 967.933 174.456C969.937 169.804 970.068 168.681 969.055 164.883C967.717 159.87 967.101 158.983 960.427 152.456C954.222 146.387 944.88 140.197 934.427 135.226C925.636 131.046 911.643 125.686 909.52 125.686C908.777 125.686 907.699 126.924 907.124 128.436ZM797.509 138.166C771.472 148.87 770.211 185.049 795.427 197.921C813.349 207.07 836.297 196.719 841.383 177.193C843.421 169.368 843.333 166.211 840.851 158.177C839.154 152.68 837.743 150.409 833.101 145.696C823.309 135.754 810.149 132.97 797.509 138.166ZM735.147 193.433C732.628 199.333 727.533 215.627 728.048 216.135C728.83 216.909 755.099 221.847 755.626 221.32C755.929 221.017 754.574 218.354 752.614 215.402C750.655 212.45 746.379 205.23 743.114 199.357L737.176 188.68L735.147 193.433ZM879.924 193.468C878.568 196.063 874.823 202.679 871.602 208.17C862.772 223.227 863.178 221.903 867.611 221.174C882.694 218.696 891.925 216.261 891.892 214.769C891.846 212.624 884.283 190.642 883.23 189.589C882.768 189.127 881.28 190.872 879.924 193.468ZM39.0509 212.264C6.17087 221.107 -9.68413 257.793 6.23887 288.186C12.8209 300.75 27.5629 311.808 41.6239 314.727C49.3789 316.337 62.0279 315.461 69.8169 312.774C106.108 300.257 116.834 253.202 89.5539 226.187C82.6839 219.384 72.2999 213.507 64.1279 211.796C56.9549 210.294 45.5859 210.506 39.0509 212.264ZM513.839 212.131C500.913 215.696 486.821 227.009 481.04 238.463C463.454 273.299 485.966 313.204 524.467 315.447C539.834 316.341 553.727 311.063 564.449 300.256C593.199 271.28 579.86 222.499 540.375 212.214C533.409 210.4 520.262 210.359 513.839 212.131ZM890.427 233.348C882.93 234.933 863.122 238.323 856.29 239.19C851.61 239.785 850.856 240.257 847.803 244.514C845.961 247.084 839.4 255.131 833.224 262.397L821.995 275.608L829.689 282.318C852.096 301.859 878.108 312.781 888.925 307.187C896.987 303.018 901.164 290.364 901.138 270.186C901.122 258.459 899.224 241.318 897.2 234.633L896.427 232.079L890.427 233.348ZM721.462 241.436C718.928 254.614 718.342 278.389 720.322 287.686C723.543 302.809 728.755 308.686 738.945 308.686C751.878 308.686 768.091 300.631 788.677 283.976C793.764 279.86 797.926 276.198 797.925 275.839C797.924 275.48 795.68 272.711 792.938 269.686C790.196 266.661 783.646 258.753 778.383 252.112L768.814 240.037L757.121 238.293C750.689 237.334 741.006 235.68 735.603 234.618C730.201 233.555 725.187 232.686 724.462 232.686C723.601 232.686 722.562 235.715 721.462 241.436ZM794.54 246.436C796.66 249.049 799.827 252.761 801.579 254.686C803.331 256.611 805.734 259.424 806.918 260.936C808.103 262.448 809.425 263.686 809.855 263.686C810.514 263.686 823.395 249.166 827.82 243.436C829.097 241.783 828.104 241.686 809.929 241.686H790.686L794.54 246.436Z" fill="#FF2222"/>
</svg>
