<svg aria-hidden="true" style="position: absolute; width: 0; height: 0; overflow: hidden;" version="1.1" xmlns="http://www.w3.org/2000/svg" xmlns:xlink="http://www.w3.org/1999/xlink">
<defs>
<symbol id="icon-coyote-up" viewBox="0 0 13 32">
<path d="M6.599 0.055c0.036-0.039 0.087-0.063 0.113-0.053 0.075 0.029 0.176 0.27 0.242 0.578 0.067 0.315 0.077 1.202 0.016 1.455-0.051 0.213-0.049 0.243 0.013 0.158 0.098-0.134 0.143-0.031 0.143 0.324-0 0.359-0.079 0.901-0.185 1.261-0.127 0.434-0.256 0.805-0.309 0.89-0.083 0.131-0.066 0.153 0.040 0.053 0.114-0.107 0.179-0.079 0.179 0.077 0 0.183-0.101 0.441-0.488 1.252-0.354 0.74-0.452 1.012-0.451 1.241 0.001 0.175 0.070 0.029 0.1-0.213 0.031-0.248 0.103-0.269 0.169-0.050 0.043 0.142 0.054 0.152 0.124 0.108 0.059-0.037 0.078-0.094 0.080-0.244 0.002-0.108 0.011-0.24 0.020-0.294 0.042-0.233 0.297-0.674 0.597-1.028 0.398-0.471 0.834-1.132 1.129-1.715 0.439-0.865 0.586-1.276 0.756-2.114 0.12-0.592 0.149-0.684 0.236-0.763 0.060-0.054 0.090-0.060 0.132-0.025 0.078 0.065 0.143 0.436 0.143 0.817 0 0.24 0.016 0.345 0.059 0.388 0.047 0.047 0.059 0.175 0.059 0.637 0 0.453 0.014 0.606 0.063 0.705 0.164 0.329-0.14 1.335-0.612 2.021-0.111 0.161-0.321 0.383-0.724 0.763-0.16 0.151-0.234 0.199-0.247 0.159-0.010-0.031 0.032-0.099 0.094-0.151 0.645-0.54 1.008-1.033 1.248-1.693 0.128-0.352 0.222-0.884 0.176-0.997-0.029-0.071-0.033-0.068-0.035 0.030-0.003 0.128-0.066 0.262-0.124 0.262-0.024 0-0.030-0.050-0.015-0.127 0.070-0.356 0.095-0.594 0.101-0.961 0.008-0.443-0.020-0.554-0.063-0.246-0.052 0.38-0.079 0.225-0.079-0.461-0-0.681-0.034-1.064-0.094-1.064-0.080 0-0.192 0.465-0.277 1.146-0.057 0.454-0.199 0.997-0.42 1.596-0.182 0.494-0.639 1.429-0.812 1.658-0.14 0.186-0.435 0.735-0.553 1.030-0.083 0.208-0.094 0.267-0.052 0.292 0.040 0.025 0.032 0.050-0.036 0.114-0.062 0.058-0.088 0.127-0.088 0.237 0 0.085-0.016 0.155-0.036 0.155-0.093 0-0.198 0.356-0.256 0.868-0.060 0.525-0.109 0.725-0.234 0.968-0.067 0.129-0.139 0.162-0.139 0.063 0-0.032-0.062-0.144-0.137-0.249-0.189-0.264-0.291-0.509-0.374-0.903l-0.071-0.337-0.005 0.215c-0.004 0.186-0.012 0.205-0.052 0.137-0.091-0.152-0.42-0.45-0.497-0.45-0.112 0-0.097 0.056 0.029 0.106l0.108 0.043-0.103 0.004c-0.057 0.002-0.145 0.041-0.196 0.086-0.088 0.077-0.067 0.080 0.096 0.015 0.058-0.023 0.053-0.002-0.030 0.121-0.106 0.156-0.163 0.319-0.125 0.357 0.012 0.012 0.048-0.037 0.078-0.11l0.056-0.132-0.001 0.255c-0.001 0.251 0.076 0.484 0.227 0.683 0.072 0.095 0.083 0.083 0.147-0.165l0.052-0.203 0.141 0.096c0.106 0.072 0.197 0.204 0.361 0.526 0.121 0.237 0.233 0.438 0.249 0.448s0.034 0.123 0.041 0.252c0.009 0.178-0.004 0.249-0.054 0.299-0.062 0.062-0.072 0.060-0.159-0.021-0.141-0.132-0.111-0.505 0.040-0.505 0.033 0-0.019-0.141-0.146-0.391l-0.198-0.391-0.085 0.283c-0.047 0.156-0.114 0.361-0.149 0.455-0.133 0.355-0.033 0.764 0.221 0.905 0.1 0.056 0.119 0.054 0.254-0.024 0.223-0.128 0.297-0.253 0.315-0.533 0.015-0.236 0.019-0.245 0.123-0.248 0.101-0.004 0.105 0.003 0.068 0.101-0.064 0.171 0.066 0.391 0.296 0.5 0.227 0.107 0.303 0.075 0.427-0.18 0.116-0.239 0.080-0.505-0.141-1.044-0.097-0.237-0.178-0.457-0.18-0.49-0.006-0.107-0.083 0.132-0.158 0.49-0.095 0.451-0.095 0.554-0.002 0.578 0.158 0.041 0.172 0.468 0.018 0.527-0.111 0.042-0.218-0.136-0.192-0.32 0.012-0.087 0.031-0.288 0.043-0.447 0.035-0.486 0.157-0.868 0.35-1.092 0.099-0.115 0.134-0.111 0.111 0.011-0.021 0.111 0.062 0.449 0.11 0.449 0.038 0 0.272-0.487 0.272-0.566 0-0.031 0.018-0.067 0.040-0.081s0.030-0.041 0.017-0.061 0.005-0.047 0.039-0.060c0.141-0.054 0.008-0.544-0.174-0.642-0.092-0.049-0.103-0.117-0.019-0.117 0.059 0 0.078-0.046 0.037-0.087-0.027-0.027-0.325 0.113-0.419 0.196-0.082 0.073-0.141 0.031-0.084-0.059 0.049-0.077 0.118-0.116 0.26-0.146 0.059-0.012 0.159-0.074 0.223-0.136s0.236-0.21 0.383-0.327c0.321-0.257 0.526-0.452 0.582-0.555 0.054-0.098 0.134-0.125 0.134-0.046 0 0.081-0.365 0.437-0.726 0.709-0.333 0.251-0.366 0.291-0.278 0.34 0.050 0.028 0.055 0.053 0.024 0.111s-0.023 0.092 0.036 0.152c0.16 0.16 0.214 0.615 0.087 0.736-0.040 0.039-0.103 0.151-0.14 0.251l-0.068 0.181 0.125 0.25c0.111 0.221 0.299 0.49 0.463 0.659 0.047 0.049 0.068 0.048 0.158-0.008 0.453-0.282 0.772-0.364 0.766-0.195-0.003 0.073 0.018 0.088 0.117 0.089 0.066 0 0.28 0.034 0.476 0.074 0.692 0.143 1.492 0.627 1.213 0.734-0.046 0.018-0.033 0.052 0.060 0.168 0.083 0.103 0.124 0.206 0.142 0.351 0.022 0.184 0.016 0.207-0.055 0.226-0.044 0.011-0.135 0.106-0.202 0.209-0.134 0.207-0.22 0.261-0.304 0.191-0.042-0.035-0.092-0.033-0.215 0.007-0.139 0.046-0.219 0.043-0.616-0.021-0.659-0.106-1.135-0.119-1.387-0.038-0.429 0.139-0.639 0.292-0.71 0.517-0.024 0.077-0.014 0.088 0.082 0.088 0.061-0 0.2-0.042 0.311-0.094 0.15-0.070 0.211-0.124 0.243-0.215 0.066-0.19 0.139-0.154 0.115 0.057-0.017 0.154-0.011 0.175 0.044 0.153 0.149-0.060 0.348-0.062 0.486-0.005 0.080 0.033 0.145 0.077 0.145 0.097 0 0.057-0.088 0.115-0.196 0.131-0.113 0.016-0.152 0.001 0.96 0.378 0.711 0.241 1.111 0.336 1.596 0.378l0.264 0.023-0-0.168c-0.001-0.353-0.083-1.082-0.159-1.401-0.14-0.595-0.386-1.138-0.671-1.482-0.191-0.232-0.195-0.355-0.015-0.54 0.074-0.076 0.128-0.159 0.12-0.184s-0.025-0.141-0.038-0.258c-0.013-0.117-0.059-0.293-0.103-0.392-0.204-0.459-0.207-0.899-0.007-1.267 0.208-0.385 0.71-0.812 0.956-0.812 0.048 0 0.116-0.026 0.151-0.058 0.097-0.088 0.314-0.123 0.314-0.051 0 0.032-0.033 0.087-0.073 0.124-0.055 0.049-0.078 0.139-0.092 0.351-0.017 0.259-0.041 0.328-0.28 0.778-0.216 0.406-0.268 0.541-0.295 0.762-0.018 0.147-0.028 0.294-0.021 0.327s0.013 0.112 0.014 0.176l0.003 0.117 0.206-0.224c0.233-0.254 0.471-0.423 0.594-0.423 0.131 0 0.251 0.106 0.357 0.315 0.057 0.113 0.145 0.217 0.211 0.251 0.063 0.032 0.168 0.125 0.235 0.206 0.197 0.24 0.162 0.51-0.11 0.834-0.121 0.144-0.153 0.219-0.175 0.408-0.032 0.273-0.12 0.477-0.241 0.556-0.048 0.031-0.189 0.074-0.314 0.094s-0.243 0.053-0.263 0.073c-0.037 0.037 0.014 0.451 0.088 0.71 0.021 0.075 0.171 0.406 0.332 0.736 0.316 0.644 0.413 0.916 0.413 1.152 0 0.17-0.052 0.19-0.158 0.061-0.066-0.081-0.076-0.083-0.124-0.023-0.099 0.125-0.356 0.268-0.483 0.268-0.17 0-0.249-0.093-0.162-0.189 0.061-0.067 0.049-0.070-0.259-0.068-0.177 0.001-0.622-0.010-0.988-0.024-0.611-0.025-1.462 0.026-1.527 0.091-0.012 0.012 0.017 0.107 0.063 0.212 0.074 0.168 0.079 0.212 0.040 0.359-0.025 0.092-0.045 0.252-0.045 0.354 0 0.333-0.108 0.568-0.218 0.477-0.033-0.027-0.051 0.046-0.068 0.267-0.036 0.481-0.251 0.917-0.393 0.799-0.046-0.038-0.084 0.001-0.215 0.221-0.269 0.453-0.438 0.817-0.525 1.134-0.076 0.276-0.083 0.393-0.078 1.283 0.005 0.836 0.017 1.025 0.084 1.29 0.043 0.171 0.086 0.356 0.096 0.411s0.036 0.19 0.058 0.301c0.022 0.11 0.067 0.454 0.1 0.764 0.101 0.949 0.356 1.831 0.813 2.815 0.065 0.14 0.134 0.296 0.154 0.346s0.088 0.168 0.153 0.262c0.118 0.171 0.105 0.253-0.029 0.181-0.063-0.034-0.068-0.019-0.056 0.148 0.018 0.257-0.056 0.521-0.143 0.504-0.037-0.007-0.086-0.073-0.11-0.147l-0.043-0.134-0.069 0.213c-0.038 0.117-0.242 0.565-0.454 0.996-0.329 0.669-0.664 1.494-0.664 1.635 0 0.069 0.689 0.004 1.116-0.105 0.448-0.115 0.861-0.3 1.198-0.536 0.252-0.177 0.328-0.174 0.223 0.008-0.036 0.063-0.060 0.115-0.053 0.115s0.082-0.024 0.166-0.054c0.624-0.22 1.357-0.021 1.845 0.5 0.251 0.269 0.361 0.505 0.364 0.785 0.001 0.119 0.031 0.194 0.117 0.295 0.068 0.080 0.116 0.18 0.116 0.245 0 0.131-0.012 0.133-0.183 0.027-0.128-0.079-0.137-0.080-0.21-0.014-0.098 0.088-0.097 0.217 0.002 0.379 0.073 0.119 0.107 0.305 0.056 0.305-0.012 0-0.080-0.044-0.151-0.098-0.148-0.113-0.183-0.117-0.395-0.040-0.086 0.031-0.214 0.057-0.285 0.058-0.117 0.002-0.126 0.010-0.103 0.1 0.032 0.128-0.030 0.126-0.201-0.004l-0.133-0.102-0.111 0.079c-0.291 0.207-0.795 0.177-1.497-0.091-1.044-0.398-1.544-0.532-2.251-0.604-0.215-0.022-0.391-0.036-0.392-0.031s-0.034 0.072-0.074 0.151c-0.081 0.16-0.214 0.231-0.613 0.328-0.788 0.193-1.188 0.403-2.174 1.14-0.515 0.386-0.817 0.542-1.171 0.607-0.254 0.047-0.407 0.032-0.655-0.064-0.041-0.016-0.114 0.019-0.201 0.095-0.075 0.066-0.158 0.12-0.185 0.12-0.069 0-0.014-0.263 0.084-0.4 0.043-0.060 0.072-0.109 0.065-0.109s-0.099 0.027-0.205 0.059c-0.23 0.070-0.453 0.075-0.588 0.013-0.085-0.039-0.117-0.031-0.234 0.059-0.075 0.057-0.146 0.104-0.158 0.104-0.045 0-0.020-0.203 0.039-0.318 0.096-0.187 0.045-0.325-0.149-0.401-0.155-0.061-0.166-0.060-0.245 0.014-0.046 0.043-0.104 0.078-0.13 0.078-0.063 0-0.059-0.136 0.007-0.266 0.030-0.058 0.054-0.203 0.054-0.321 0.001-0.272 0.114-0.574 0.347-0.921 0.23-0.343 0.492-0.619 0.736-0.777 0.182-0.117 0.186-0.124 0.088-0.136-0.337-0.040 0.197-0.257 0.622-0.252 0.342 0.003 0.495 0.056 0.993 0.342 0.245 0.141 0.455 0.256 0.467 0.256s-0.017-0.041-0.065-0.092c-0.1-0.107-0.174-0.327-0.121-0.36 0.020-0.012 0.146 0.056 0.281 0.151 0.449 0.318 0.933 0.51 1.411 0.558 0.406 0.041 1.047-0.117 1.047-0.259 0-0.256-0.25-1.272-0.49-1.994-0.075-0.225-0.137-0.445-0.137-0.49-0.001-0.079-0.002-0.078-0.069 0.007-0.038 0.048-0.087 0.074-0.111 0.059-0.068-0.045-0.137-0.298-0.142-0.523-0.004-0.171-0.011-0.191-0.043-0.119-0.021 0.048-0.058 0.081-0.081 0.073-0.104-0.034-0.057-0.417 0.117-0.967 0.225-0.709 0.312-1.533 0.249-2.35-0.019-0.248-0.047-0.67-0.062-0.937-0.020-0.363-0.036-0.463-0.063-0.392-0.021 0.055-0.025 0.378-0.009 0.771 0.027 0.667 0.026 0.676-0.054 0.676-0.051 0-0.104-0.044-0.141-0.115-0.088-0.171-0.131-0.176-0.095-0.011 0.063 0.285 0.153 1.096 0.129 1.159-0.048 0.124-0.16 0.072-0.288-0.132l-0.086-0.137 0.021 0.117c0.011 0.065 0.041 0.223 0.065 0.352 0.056 0.303 0.038 0.548-0.040 0.548-0.062 0-0.189-0.233-0.236-0.431-0.019-0.081-0.027-0.032-0.026 0.157 0.005 0.71-0.1 1.501-0.252 1.884s-0.491 0.592-0.731 0.446c-0.175-0.107-0.277-0.261-0.371-0.564-0.077-0.247-0.086-0.361-0.083-1.041 0.002-0.705 0.056-1.23 0.153-1.508 0.055-0.157-0.17 0.202-0.257 0.411-0.188 0.45-0.353 0.481-0.35 0.065 0.003-0.508 0.227-0.912 0.838-1.513 0.142-0.139 0.258-0.267 0.258-0.284s-0.089 0.004-0.198 0.045c-0.207 0.078-0.542 0.316-0.696 0.493-0.057 0.065-0.121 0.098-0.175 0.090-0.071-0.010-0.085-0.034-0.076-0.141 0.014-0.173 0.164-0.402 0.433-0.658 0.163-0.155 0.373-0.289 0.781-0.496 0.307-0.156 0.558-0.294 0.558-0.308 0-0.025-0.187 0.002-0.74 0.105-0.294 0.055-0.335 0.055-0.388 0.002s-0.052-0.070 0.009-0.163c0.114-0.174 0.706-0.404 1.060-0.413l0.157-0.004-0.208-0.050c-0.238-0.058-0.294-0.099-0.259-0.19 0.056-0.145 0.444-0.134 0.967 0.028 0.188 0.058 0.36 0.095 0.382 0.082s0.039-0.082 0.039-0.153c0-0.139 0.045-0.295 0.232-0.803 0.067-0.181 0.117-0.348 0.111-0.372s0.11-0.304 0.256-0.623c0.404-0.88 0.476-1.284 0.28-1.582-0.072-0.11-0.309-0.264-0.468-0.303-0.207-0.051-1.011-0.379-1.313-0.536-0.552-0.287-1.253-0.784-1.253-0.889 0-0.067 0.205-0.305 0.4-0.465 0.284-0.233 0.57-0.377 1.070-0.539 0.501-0.162 0.577-0.172 0.325-0.040-0.133 0.069-0.189 0.124-0.205 0.204-0.026 0.124-0.003 0.514 0.032 0.549 0.013 0.013 0.023 0.094 0.023 0.181 0 0.113 0.012 0.146 0.042 0.116 0.028-0.028 0.030-0.086 0.006-0.174-0.038-0.14-0.021-0.414 0.029-0.445 0.016-0.010 0.040 0.088 0.054 0.217 0.032 0.311 0.142 0.54 0.571 1.193 0.263 0.402 0.409 0.583 0.557 0.696 0.137 0.104 0.192 0.129 0.172 0.080-0.054-0.135-0.302-1.054-0.358-1.325-0.123-0.597-0.12-0.841 0.021-1.412 0.064-0.257 0.127-0.556 0.14-0.664 0.025-0.195 0.024-0.196-0.153-0.343-0.306-0.253-0.287-0.466 0.067-0.78 0.149-0.132 0.156-0.147 0.084-0.174-0.043-0.016-0.146-0.074-0.229-0.128-0.112-0.073-0.206-0.1-0.362-0.101-0.116-0.001-0.211 0.011-0.211 0.028s0.058 0.030 0.129 0.030c0.123 0 0.223 0.057 0.223 0.126 0 0.017-0.071 0.021-0.157 0.007-0.17-0.027-0.464 0.060-0.549 0.163-0.051 0.062 0.002 0.079 0.062 0.021 0.055-0.053 0.488-0.099 0.488-0.052 0 0.021-0.079 0.068-0.175 0.105-0.219 0.084-0.579 0.437-1.084 1.062-0.628 0.777-1.050 1.136-1.737 1.474-0.215 0.106-0.427 0.228-0.47 0.27-0.078 0.077-0.078 0.077 0.049 0.052 0.070-0.014 0.127-0.016 0.127-0.005s-0.035 0.097-0.077 0.191c-0.092 0.202-0.1 0.379-0.024 0.559 0.064 0.154 0.165 0.24 0.122 0.104-0.032-0.099 0.004-0.276 0.055-0.276 0.019 0 0.084 0.052 0.144 0.115 0.146 0.155 0.539 0.33 1.014 0.453 0.215 0.055 0.437 0.126 0.493 0.156s0.139 0.045 0.186 0.033c0.048-0.012 0.127 0.005 0.181 0.041 0.053 0.035 0.12 0.054 0.149 0.043s0.196 0.021 0.37 0.072c0.232 0.067 0.312 0.078 0.298 0.040-0.026-0.069 0.086-0.067 0.218 0.004 0.057 0.031 0.139 0.068 0.182 0.083l0.078 0.027-0.078 0.032c-0.074 0.031-0.074 0.032 0.010 0.035 0.052 0.002 0.168 0.085 0.284 0.203 0.108 0.11 0.196 0.205 0.196 0.211s-0.044 0.022-0.097 0.036c-0.138 0.035-0.241 0.26-0.355 0.777-0.095 0.428-0.303 0.927-0.401 0.96-0.076 0.025-0.056-0.058 0.084-0.357 0.141-0.301 0.222-0.526 0.238-0.664 0.023-0.198 0.153-0.565 0.243-0.684 0.053-0.070 0.085-0.147 0.071-0.17-0.015-0.025-0.059 0.012-0.104 0.088-0.101 0.17-0.37 0.447-0.528 0.546-0.104 0.065-0.127 0.106-0.137 0.242-0.014 0.189-0.080 0.215-0.112 0.045-0.021-0.112-0.022-0.11-0.047 0.041-0.014 0.086-0.018 0.333-0.008 0.548 0.014 0.309 0.008 0.375-0.028 0.315-0.027-0.046-0.048-0.289-0.052-0.607-0.008-0.608-0.041-0.828-0.117-0.799-0.029 0.011-0.088 0.001-0.131-0.023-0.068-0.036-0.093-0.024-0.175 0.085-0.388 0.518-0.421 1.181-0.086 1.713 0.163 0.258 0.567 0.546 0.771 0.549 0.118 0.002 0.308-0.2 0.445-0.472 0.128-0.254 0.214-0.364 0.214-0.273 0 0.094-0.23 0.542-0.348 0.676-0.164 0.186-0.302 0.216-0.535 0.113-0.373-0.165-0.642-0.456-0.781-0.846-0.063-0.178-0.159-0.381-0.389-0.823-0.067-0.129-0.084-0.244-0.095-0.646-0.011-0.423-0.002-0.52 0.069-0.709 0.045-0.121 0.117-0.251 0.16-0.29s0.078-0.084 0.078-0.1-0.093-0.050-0.206-0.074c-0.542-0.116-1.026-0.312-1.224-0.494-0.094-0.087-0.102-0.089-0.079-0.017 0.037 0.116-0.013 0.236-0.098 0.236-0.131 0-0.274-0.239-0.284-0.475-0.005-0.116 0.004-0.255 0.019-0.31 0.027-0.095 0.022-0.098-0.127-0.084-0.085 0.008-0.155-0.001-0.155-0.020 0-0.093 0.369-0.378 0.705-0.544 0.705-0.348 1.088-0.659 1.636-1.328 0.229-0.281 0.531-0.63 0.67-0.775 0.212-0.222 0.239-0.264 0.167-0.264-0.047 0-0.096-0.027-0.109-0.060-0.031-0.081 0.072-0.188 0.263-0.274l0.156-0.071-0.080-0.085c-0.103-0.11-0.069-0.138 0.166-0.138 0.192 0 0.192-0 0.167-0.114-0.037-0.168 0.029-0.175 0.179-0.018 0.125 0.13 0.65 0.431 0.687 0.394 0.026-0.025-0.224-0.229-0.425-0.346-0.109-0.064-0.198-0.152-0.231-0.23l-0.054-0.126-0.333 0.023c-0.377 0.026-0.406 0.031-0.999 0.167-0.782 0.179-0.917 0.193-1.167 0.114-0.122-0.038-0.242-0.094-0.266-0.123-0.048-0.057-0.116-0.073-0.109-0.024 0.025 0.157-0.119 0.173-0.235 0.027-0.102-0.13-0.213-0.511-0.183-0.63 0.038-0.153 0.101-0.103 0.094 0.075-0.007 0.174 0.127 0.538 0.197 0.538 0.022 0 0.005-0.075-0.036-0.166s-0.076-0.21-0.076-0.264c-0.001-0.082 0.019-0.066 0.126 0.103 0.186 0.293 0.432 0.423 0.793 0.419 0.151-0.002 0.38-0.033 0.509-0.070 0.32-0.091 0.992-0.209 1.361-0.239l0.304-0.024v-0.21c0-0.172-0.016-0.221-0.087-0.271-0.094-0.066-0.067-0.083 0.041-0.025 0.044 0.024 0.091 0.018 0.141-0.019 0.070-0.051 0.065-0.058-0.079-0.118-0.216-0.090-0.614-0.054-1.063 0.098-0.35 0.118-0.656 0.152-0.863 0.097-0.166-0.044-0.088-0.076 0.208-0.084 0.176-0.005 0.449-0.050 0.676-0.112 0.271-0.074 0.482-0.105 0.736-0.108 0.332-0.004 0.365 0.003 0.499 0.106 0.173 0.132 0.182 0.184 0.032 0.184-0.108 0-0.113 0.008-0.137 0.242-0.034 0.322 0.043 0.479 0.308 0.632 0.108 0.062 0.241 0.156 0.297 0.208l0.101 0.095 0.072-0.079c0.040-0.044 0.080-0.071 0.090-0.061 0.030 0.030-0.111 0.224-0.243 0.332-0.545 0.449-0.576 0.544-0.266 0.829l0.198 0.182-0.021 0.21c-0.012 0.116-0.048 0.316-0.080 0.445-0.185 0.746-0.199 0.894-0.128 1.351 0.044 0.284 0.191 0.875 0.335 1.351 0.221 0.73 0.244 1.273 0.094 2.213-0.148 0.925-0.155 0.991-0.155 1.43-0 0.46 0.064 0.791 0.186 0.958 0.173 0.236 0.542 0.298 0.73 0.121 0.193-0.181 0.333-0.625 0.396-1.262 0.014-0.143 0.030-0.751 0.035-1.351 0.011-1.244 0.030-1.35 0.362-1.972 0.241-0.452 0.644-1.135 0.684-1.16 0.052-0.032 0.035 0.113-0.026 0.22-0.084 0.147-0.073 0.236 0.016 0.129 0.091-0.109 0.195-0.541 0.209-0.863 0.011-0.257 0.027-0.284 0.111-0.183 0.047 0.057 0.056 0.056 0.103-0.007 0.106-0.145 0.027-0.738-0.131-0.979-0.054-0.083-0.053-0.087 0.025-0.067 0.057 0.015 0.096 0.074 0.128 0.192 0.027 0.101 0.057 0.152 0.074 0.124 0.061-0.099-0.045-0.403-0.224-0.643-0.050-0.068-0.097-0.147-0.103-0.176s-0.029-0.068-0.051-0.086c-0.022-0.018 0.005-0.020 0.059-0.005s0.138 0.063 0.186 0.107c0.048 0.044 0.101 0.067 0.117 0.051 0.037-0.037-0.064-0.117-0.558-0.44-0.215-0.141-0.401-0.268-0.412-0.282s-0.097-0.096-0.19-0.182l-0.169-0.157 0.087 0.168c0.17 0.33 0.041 0.609-0.365 0.794-0.112 0.051-0.21 0.096-0.217 0.101s-0.030 0.203-0.050 0.441-0.063 0.493-0.094 0.568c-0.059 0.141-0.227 0.299-0.318 0.299-0.094 0-0.345-0.288-0.464-0.53-0.094-0.193-0.115-0.289-0.121-0.547-0.004-0.193 0.012-0.336 0.040-0.372 0.026-0.032 0.092-0.138 0.148-0.235 0.139-0.241 0.416-0.502 0.565-0.532 0.183-0.037 0.258 0.101 0.279 0.512l0.017 0.324 0.158-0.062c0.087-0.034 0.217-0.118 0.289-0.186 0.157-0.148 0.176-0.35 0.053-0.565-0.126-0.221-0.353-0.661-0.353-0.686 0-0.013 0.016-0.013 0.035-0.002s0.058-0.036 0.085-0.105c0.028-0.070 0.1-0.184 0.161-0.255 0.156-0.182 0.173-0.292 0.079-0.51-0.066-0.152-0.132-0.228-0.234-0.267-0.006-0.002-0-0.032 0.013-0.065s0.12-0.107 0.237-0.162c0.199-0.094 0.253-0.101 0.773-0.101 0.579 0 0.946-0.046 1.129-0.141 0.165-0.085 0.165 0-0 0.093-0.178 0.1-0.603 0.173-0.937 0.161-0.135-0.005-0.257 0.003-0.271 0.017s-0.066 0.026-0.114 0.026c-0.048 0-0.2 0.034-0.336 0.076-0.241 0.074-0.246 0.074-0.158 0.002 0.049-0.041 0.173-0.085 0.274-0.098 0.29-0.038 0.315-0.049 0.123-0.054-0.209-0.005-0.542 0.098-0.573 0.178-0.012 0.030 0.009 0.089 0.047 0.131 0.082 0.091 0.185 0.499 0.133 0.531-0.020 0.012-0.036 0.037-0.036 0.054s0.11-0.013 0.245-0.068c0.353-0.145 0.81-0.16 1.463-0.048 0.278 0.047 0.558 0.078 0.623 0.067 0.227-0.037 0.447-0.159 0.508-0.281 0.032-0.065 0.059-0.094 0.059-0.064s-0.036 0.114-0.081 0.186c-0.045 0.073-0.064 0.132-0.043 0.132 0.051 0 0.28-0.372 0.284-0.461 0.002-0.041 0.011-0.048 0.023-0.019 0.032 0.078 0.092 0.057 0.092-0.033 0-0.133-0.119-0.347-0.3-0.538-0.093-0.098-0.162-0.185-0.153-0.193s0.070 0.013 0.136 0.048c0.201 0.104 0.138-0.008-0.085-0.15-0.407-0.26-1.003-0.424-1.543-0.424-0.318 0-0.427-0.044-0.231-0.093 0.053-0.013 0.119-0.051 0.147-0.085 0.044-0.053 0.038-0.057-0.047-0.031-0.349 0.107-0.542 0.242-0.979 0.688-0.599 0.611-0.598 0.611-1.006 0.447-0.291-0.117-0.408-0.1-0.677 0.095-0.286 0.207-0.47 0.155-1.019-0.289-0.509-0.411-0.561-0.43-1.155-0.435-0.28-0.002-0.606-0.015-0.725-0.029-0.22-0.026-0.209-0.008 0.059 0.098 0.115 0.046 0.112 0.047-0.122 0.072-0.172 0.018-0.316 0.068-0.509 0.176-0.298 0.166-0.721 0.562-0.719 0.673 0.001 0.054 0.033 0.036 0.131-0.076 0.071-0.081 0.142-0.147 0.158-0.147 0.063 0-0.035 0.183-0.149 0.28-0.111 0.094-0.129 0.099-0.189 0.044-0.063-0.056-0.063-0.068 0.008-0.207 0.107-0.209 0.473-0.521 0.809-0.69 0.281-0.141 0.334-0.189 0.241-0.22-0.027-0.009-0.035-0.045-0.019-0.086 0.021-0.054 0.048-0.063 0.115-0.040 0.048 0.017 0.339 0.034 0.646 0.039s0.635 0.020 0.73 0.034c0.168 0.025 0.175 0.022 0.333-0.162 0.088-0.103 0.216-0.292 0.284-0.418l0.123-0.231-0.083-0.172c-0.046-0.095-0.083-0.213-0.083-0.264 0-0.059-0.028-0.1-0.078-0.113-0.089-0.023-0.109-0.211-0.036-0.347 0.034-0.063 0.028-0.090-0.029-0.134-0.068-0.053-0.066-0.061 0.043-0.157 0.1-0.089 0.109-0.112 0.065-0.181-0.072-0.115-0.002-0.169 0.15-0.116 0.066 0.023 0.12 0.033 0.12 0.023s-0.082-0.199-0.183-0.419c-0.185-0.404-0.46-0.896-0.601-1.075-0.090-0.114-0.073-0.168 0.044-0.138 0.071 0.019 0.077 0.011 0.043-0.053-0.059-0.111-0.093-0.557-0.058-0.776 0.032-0.206 0.128-0.299 0.128-0.124 0 0.056 0.019 0.101 0.043 0.101s0.033-0.026 0.021-0.057c-0.038-0.1 0.086-0.434 0.366-0.98 0.279-0.544 0.431-0.965 0.459-1.274 0.025-0.269 0.045-0.309 0.111-0.219 0.030 0.041 0.045 0.089 0.034 0.107s-0.002 0.064 0.020 0.102c0.037 0.063 0.040 0.063 0.042-0.009 0.002-0.127 0.229-0.755 0.412-1.145 0.112-0.238 0.186-0.461 0.214-0.65 0.056-0.368 0.174-0.758 0.257-0.85zM6.593 0.238c-0.053 0.126-0.216 0.898-0.268 1.268-0.062 0.445-0.602 2.266-0.808 2.727-0.415 0.928-0.373 1.937 0.132 3.141 0.115 0.274 0.123 0.283 0.17 0.196 0.030-0.055 0.041-0.156 0.027-0.256-0.030-0.227 0.038-0.47 0.27-0.952 0.517-1.074 0.655-1.397 0.657-1.537 0.001-0.074-0.084-0.018-0.12 0.078-0.043 0.116-0.203 0.284-0.269 0.284-0.022 0-0.003-0.093 0.043-0.206 0.097-0.239 0.425-1.187 0.45-1.302 0.126-0.578 0.203-1.327 0.139-1.366-0.020-0.012-0.047 0.064-0.059 0.171-0.025 0.213-0.118 0.427-0.158 0.363-0.014-0.022-0.007-0.135 0.015-0.25 0.071-0.368 0.094-0.666 0.095-1.209 0.001-0.547-0.014-0.712-0.096-1.027-0.071-0.273-0.141-0.312-0.221-0.123zM6.135 1.751c-0.029 0.070-0.111 0.304-0.182 0.519s-0.175 0.514-0.232 0.664c-0.090 0.239-0.104 0.258-0.116 0.157-0.011-0.096-0.032-0.061-0.124 0.207-0.061 0.178-0.215 0.521-0.344 0.764-0.293 0.553-0.362 0.752-0.396 1.146l-0.027 0.313-0.064-0.137c-0.040-0.086-0.065-0.111-0.067-0.066-0.007 0.146 0.086 0.638 0.139 0.742 0.030 0.059 0.041 0.108 0.022 0.108s0.121 0.311 0.309 0.692c0.3 0.608 0.449 0.831 0.556 0.834 0.036 0.001-0.006-0.196-0.055-0.258-0.068-0.086-0.299-0.826-0.366-1.167-0.052-0.265-0.064-0.473-0.049-0.862 0.016-0.447 0.035-0.561 0.146-0.885 0.070-0.205 0.142-0.391 0.161-0.414s0.040-0.076 0.048-0.118c0.008-0.041 0.024-0.102 0.036-0.134 0.066-0.177 0.547-1.707 0.613-1.949 0.082-0.302 0.078-0.366-0.009-0.157zM8.577 3.142c-0.361 0.886-0.921 1.815-1.513 2.508-0.41 0.481-0.588 0.875-0.555 1.227l0.019 0.193-0.236 0.204c-0.233 0.202-0.236 0.203-0.21 0.087 0.023-0.104 0.017-0.1-0.057 0.039-0.046 0.086-0.109 0.186-0.141 0.223-0.037 0.043-0.049 0.105-0.034 0.176 0.013 0.061 0.033 0.159 0.044 0.219 0.032 0.18 0.171 0.501 0.321 0.744 0.138 0.223 0.143 0.227 0.189 0.139 0.071-0.136 0.178-0.83 0.191-1.246 0.001-0.032 0.016-0.081 0.034-0.108 0.021-0.032 0.010-0.049-0.029-0.049-0.034 0-0.061 0.016-0.061 0.036s-0.053 0.063-0.117 0.095c-0.116 0.058-0.144 0.046-0.088-0.036 0.016-0.023 0.135-0.118 0.264-0.212s0.24-0.174 0.246-0.178c0.022-0.016 0.043-0.175 0.023-0.175-0.046 0-0.289 0.209-0.291 0.249-0.003 0.058-0.382 0.347-0.433 0.33-0.081-0.027 0.204-0.341 0.471-0.518 0.153-0.102 0.278-0.21 0.278-0.24s0.014-0.056 0.032-0.056c0.017 0 0.054-0.088 0.082-0.196s0.066-0.206 0.086-0.218c0.020-0.012 0.036-0.053 0.036-0.091s0.169-0.35 0.376-0.693c0.417-0.692 0.66-1.157 0.843-1.613 0.144-0.359 0.359-1.029 0.337-1.051-0.008-0.008-0.056 0.086-0.107 0.21zM7.93 4.6c-0.013 0.022-0.006 0.039 0.017 0.039s0.041-0.018 0.041-0.039c0-0.022-0.008-0.039-0.017-0.039s-0.028 0.018-0.041 0.039zM7.684 4.997c-0.102 0.154-0.216 0.325-0.253 0.382s-0.114 0.189-0.17 0.294c-0.056 0.105-0.136 0.227-0.177 0.271-0.081 0.087-0.134 0.217-0.102 0.249 0.011 0.011 0.041-0.021 0.067-0.071s0.076-0.124 0.111-0.164c0.035-0.040 0.108-0.148 0.161-0.241 0.088-0.152 0.261-0.442 0.507-0.852 0.153-0.255 0.048-0.159-0.145 0.132zM11.695 6.461c-0.032 0.032-0.086 0.048-0.12 0.035-0.091-0.035-0.382 0.152-0.578 0.371-0.366 0.407-0.501 0.858-0.366 1.22 0.134 0.359 0.217 0.638 0.236 0.794 0.011 0.088 0.026 0.167 0.034 0.174s0.076-0.026 0.152-0.076l0.138-0.090 0.014-0.411c0.015-0.436 0.067-0.592 0.353-1.061 0.135-0.221 0.217-0.448 0.235-0.648 0.012-0.135 0.003-0.153-0.081-0.165l-0.094-0.013 0.114-0.093c0.063-0.051 0.093-0.094 0.068-0.094s-0.073 0.025-0.105 0.057zM5.090 6.671c0 0.022 0.018 0.050 0.039 0.063s0.039 0.007 0.039-0.015c0-0.022-0.018-0.050-0.039-0.063s-0.039-0.007-0.039 0.015zM11.698 6.715c-0.011 0.032-0.032 0.107-0.045 0.167s-0.127 0.297-0.254 0.529c-0.25 0.458-0.306 0.597-0.241 0.597 0.023 0 0.042-0.019 0.042-0.043s0.096-0.213 0.213-0.421c0.219-0.389 0.358-0.747 0.325-0.836-0.014-0.039-0.024-0.037-0.040 0.008zM5.169 6.84c-0 0.036 0.017 0.077 0.039 0.090 0.050 0.031 0.050-0.021 0-0.098-0.033-0.051-0.038-0.050-0.039 0.007zM6.595 6.93c-0.066 0.050-0.067 0.057-0.009 0.058 0.036 0.001 0.078-0.018 0.092-0.041 0.043-0.069-0.002-0.079-0.083-0.018zM5.247 6.995c0 0.065 0.091 0.268 0.12 0.268 0.019 0 0.014-0.048-0.011-0.108-0.046-0.108-0.109-0.201-0.109-0.161zM7.39 7.616c0.037 0.043 0.083 0.078 0.104 0.078s0.005-0.035-0.034-0.078c-0.039-0.043-0.086-0.078-0.104-0.078s-0.003 0.035 0.034 0.078zM7.374 8.233c-0.013 0.038-0.032 0.082-0.040 0.098s0.001 0.029 0.021 0.029c0.020 0 0.045-0.044 0.056-0.098 0.022-0.113-0-0.13-0.036-0.029zM11.964 8.421c-0.15 0.077-0.532 0.451-0.505 0.494 0.043 0.069 0.239 0.030 0.329-0.065 0.138-0.147 0.235-0.13 0.235 0.041 0 0.076-0.028 0.181-0.061 0.232-0.055 0.084-0.055 0.106-0.003 0.207 0.032 0.062 0.084 0.135 0.116 0.161 0.055 0.045 0.117 0.307 0.124 0.515 0.002 0.054 0.016 0.119 0.032 0.144s0.011 0.057-0.011 0.071c-0.022 0.014-0.040 0.068-0.040 0.121 0 0.109-0.259 0.408-0.354 0.408-0.033 0-0.097 0.026-0.142 0.058-0.077 0.054-0.089 0.048-0.184-0.088-0.076-0.11-0.119-0.257-0.175-0.596-0.041-0.248-0.087-0.481-0.104-0.519-0.018-0.042-0.012-0.069 0.015-0.069 0.067 0 0.189 0.225 0.242 0.447 0.064 0.266 0.13 0.416 0.23 0.522 0.15 0.16 0.329 0.090 0.395-0.153 0.086-0.319-0.039-0.741-0.323-1.096-0.239-0.298-0.457-0.341-0.747-0.149-0.177 0.118-0.42 0.362-0.42 0.423 0 0.017 0.080 0.134 0.178 0.26 0.266 0.343 0.512 0.875 0.641 1.39 0.139 0.551 0.155 0.684 0.158 1.244 0.002 0.414 0.007 0.441 0.080 0.441 0.043 0 0.078 0.023 0.078 0.051 0 0.039-0.082 0.050-0.343 0.045-0.499-0.010-1.092-0.132-1.694-0.35-0.14-0.051-0.44-0.158-0.666-0.238s-0.429-0.159-0.45-0.175c-0.022-0.016-0.096-0.041-0.166-0.056s-0.127-0.042-0.127-0.059c0-0.039 0.099-0.079 0.197-0.079 0.040 0 0.085-0.020 0.1-0.043 0.032-0.052-0.388-0.012-0.498 0.046-0.092 0.049-0.135-0.025-0.044-0.078 0.127-0.074 0.013-0.044-0.136 0.036-0.080 0.043-0.204 0.089-0.274 0.102s-0.128 0.036-0.128 0.050c0 0.071 0.648 0.652 0.94 0.841 0.183 0.119 0.403 0.264 0.489 0.322l0.156 0.106 1.529-0.002-0.705 0.031c-0.388 0.017-0.756 0.050-0.818 0.075-0.169 0.066-0.1 0.090 0.117 0.041 0.12-0.027 0.67-0.040 1.49-0.036 0.715 0.004 1.323-0.006 1.352-0.022s-0.026 0.043-0.123 0.131c-0.196 0.178-0.16 0.216 0.062 0.066 0.079-0.054 0.16-0.087 0.18-0.075s0.082-0.026 0.138-0.086l0.101-0.109-0.080-0.218c-0.044-0.12-0.093-0.253-0.109-0.296-0.068-0.183 0.055 0.015 0.14 0.225 0.050 0.124 0.098 0.217 0.107 0.208 0.034-0.034-0.088-0.331-0.355-0.864-0.151-0.302-0.297-0.61-0.325-0.685-0.040-0.107-0.051-0.118-0.053-0.049-0.002 0.048 0.068 0.245 0.154 0.436 0.162 0.361 0.183 0.435 0.119 0.435-0.021 0-0.057-0.073-0.081-0.162s-0.077-0.208-0.118-0.264c-0.041-0.056-0.101-0.217-0.133-0.357-0.074-0.318-0.073-0.352 0.005-0.255 0.061 0.076 0.062 0.076 0.038-0.020-0.013-0.054-0.024-0.129-0.024-0.166s-0.025-0.069-0.055-0.069c-0.072 0-0.111-0.166-0.065-0.281 0.035-0.088 0.037-0.087 0.042 0.026s0.007 0.112 0.063-0.044c0.061-0.172 0.139-0.21 0.426-0.21 0.233 0 0.412-0.244 0.412-0.563 0-0.117 0.001-0.117-0.135-0.065-0.065 0.025-0.1 0.025-0.1 0 0-0.021 0.026-0.038 0.057-0.038 0.080 0 0.401-0.34 0.498-0.526 0.142-0.273 0.040-0.561-0.251-0.713-0.059-0.031-0.145-0.13-0.191-0.222-0.158-0.313-0.231-0.353-0.446-0.242zM12.196 8.53c0.013 0.039 0.023 0.088 0.023 0.108s0.018 0.036 0.039 0.036c0.057 0 0.048-0.052-0.023-0.139-0.057-0.070-0.060-0.070-0.039-0.004zM12.337 8.821c-0.001 0.027 0.015 0.049 0.035 0.049s0.049 0.099 0.064 0.22c0.021 0.168 0.012 0.252-0.037 0.356-0.047 0.098-0.051 0.132-0.015 0.12 0.159-0.052 0.177-0.528 0.026-0.708-0.039-0.047-0.072-0.064-0.073-0.037zM5.58 8.87c0.013 0.022 0.032 0.039 0.041 0.039s0.017-0.018 0.017-0.039c0-0.022-0.019-0.039-0.041-0.039s-0.031 0.018-0.017 0.039zM7.331 8.949c-0.043 0.069-0.030 0.113 0.106 0.343 0.139 0.235 0.276 0.549 0.272 0.625-0.004 0.072 0.079 0.042 0.139-0.050 0.061-0.094 0.062-0.109 0.005-0.171-0.099-0.11-0.071-0.143 0.036-0.043 0.164 0.154 0.11 0.052-0.119-0.225-0.119-0.144-0.246-0.329-0.282-0.41-0.075-0.17-0.091-0.177-0.159-0.068zM11.795 8.949c-0.075 0.061-0.083 0.088-0.048 0.154 0.056 0.105 0.066 0.102 0.14-0.042 0.078-0.151 0.028-0.211-0.093-0.112zM5.463 9.085c-0.038 0.086-0.121 0.298-0.185 0.47-0.136 0.367-0.128 0.574 0.031 0.745 0.116 0.125 0.151 0.111 0.095-0.037-0.022-0.058-0.040-0.176-0.040-0.262 0-0.087-0.016-0.146-0.037-0.134-0.046 0.028-0.019-0.128 0.059-0.345 0.158-0.438 0.177-0.504 0.162-0.547-0.009-0.026-0.047 0.024-0.085 0.11zM7.271 9.285c0.202 0.496 0.195 0.851-0.023 1.122-0.038 0.047-0.041 0.069-0.009 0.069 0.025 0 0.081-0.057 0.123-0.127s0.108-0.127 0.145-0.127c0.182-0.001 0.158-0.512-0.034-0.751-0.066-0.082-0.154-0.224-0.195-0.315-0.139-0.309-0.144-0.209-0.006 0.13zM12.597 9.194c0.024 0.258 0.004 0.3-0.231 0.469-0.047 0.034-0.057 0.066-0.032 0.106 0.031 0.049 0.049 0.046 0.121-0.020 0.188-0.17 0.262-0.412 0.209-0.679-0.043-0.217-0.091-0.13-0.067 0.123zM5.098 9.332c-0.071 0.124-0.191 0.293-0.266 0.375s-0.132 0.154-0.126 0.159c0.168 0.124 0.394 0.259 0.409 0.244 0.011-0.011 0.002-0.053-0.019-0.094-0.059-0.111-0.019-0.388 0.092-0.629 0.054-0.118 0.098-0.23 0.098-0.249 0-0.085-0.069-0.014-0.188 0.193zM11.396 9.121c0 0.009 0.061 0.054 0.136 0.101 0.23 0.142 0.501 0.792 0.429 1.027-0.011 0.037-0.044 0.058-0.072 0.047-0.064-0.024-0.114 0.144-0.060 0.198 0.026 0.026 0.062 0.025 0.106-0.003 0.052-0.033 0.070-0.109 0.079-0.337 0.010-0.254-0.003-0.326-0.096-0.521-0.119-0.252-0.358-0.527-0.458-0.527-0.036 0-0.065 0.007-0.065 0.016zM5.468 9.432c-0.090 0.211-0.077 0.271 0.018 0.090 0.043-0.082 0.072-0.17 0.063-0.196s-0.045 0.022-0.081 0.105zM12.806 9.422c0 0.031-0.089 0.166-0.198 0.3-0.234 0.29-0.222 0.319 0.025 0.058 0.168-0.178 0.249-0.338 0.197-0.39-0.013-0.013-0.024 0.001-0.024 0.032zM6.684 9.901c-0.011 0.029-0.004 0.077 0.015 0.108 0.025 0.040 0.035 0.026 0.036-0.053 0.001-0.117-0.019-0.138-0.050-0.055zM6.408 10.221c-0.035 0.091-0.033 0.098 0.034 0.098s0.073-0.034 0.024-0.111c-0.026-0.042-0.038-0.039-0.058 0.013zM12.382 10.364c-0.028 0.079-0.098 0.191-0.156 0.249l-0.105 0.105 0.095-0.014c0.119-0.017 0.247-0.226 0.229-0.375-0.013-0.108-0.014-0.107-0.063 0.034zM7.988 10.319c-0.050 0.032-0.049 0.038 0.010 0.039 0.038 0 0.069-0.017 0.069-0.039 0-0.048-0.004-0.048-0.078 0zM6.373 10.596c-0.123 0.072-0.073 0.095 0.206 0.095 0.151 0 0.274-0.010 0.274-0.023 0-0.041-0.197-0.114-0.305-0.113-0.058 0.001-0.137 0.019-0.174 0.041zM11.592 10.591c0 0.043 0.154 0.136 0.181 0.109 0.010-0.010-0.027-0.047-0.082-0.082s-0.099-0.048-0.099-0.026zM6.441 10.882c-0.124 0.054-0.241 0.169-0.206 0.203 0.011 0.011 0.085-0.018 0.165-0.065 0.12-0.071 0.184-0.082 0.379-0.064 0.166 0.015 0.23 0.008 0.22-0.023-0.033-0.1-0.374-0.131-0.557-0.051zM9.72 11.241c0.030 0.030 0.382 0.033 0.412 0.004 0.014-0.014-0.078-0.025-0.204-0.025s-0.219 0.009-0.208 0.021zM6.363 11.319c-0.086 0.031-0.161 0.057-0.166 0.057s-0.010 0.014-0.010 0.030c0 0.016 0.174 0.029 0.387 0.029 0.412 0 0.485-0.047 0.204-0.132-0.187-0.056-0.221-0.055-0.414 0.015zM7.487 11.418c-0.049 0.085-0.073 0.154-0.054 0.154 0.041 0 0.188-0.263 0.162-0.29-0.010-0.010-0.058 0.051-0.107 0.136zM2.897 11.621c0 0.016 0.11 0.028 0.245 0.025 0.265-0.005 0.239-0.024-0.059-0.043-0.102-0.007-0.186 0.001-0.186 0.018zM5.403 11.964c0 0.022 0.019 0.039 0.041 0.039s0.031-0.018 0.017-0.039c-0.013-0.022-0.032-0.039-0.041-0.039s-0.017 0.018-0.017 0.039zM7.283 12.215c0 0.009 0.070 0.137 0.156 0.284s0.156 0.246 0.157 0.22c0.001-0.051-0.266-0.521-0.295-0.521-0.010 0-0.018 0.008-0.018 0.017zM12.023 12.669c0 0.022 0.019 0.039 0.041 0.039s0.031-0.018 0.017-0.039c-0.013-0.022-0.032-0.039-0.041-0.039s-0.017 0.018-0.017 0.039zM6.808 13.324c-0.017 0.671-0.040 0.712-0.415 0.721-0.112 0.003-0.113 0.089-0.005 0.267 0.151 0.247 0.302 0.302 0.404 0.147 0.165-0.252 0.226-1.319 0.090-1.578-0.056-0.107-0.060-0.083-0.073 0.442zM5.725 12.899c0.006 0.051 0.055 0.121 0.109 0.155 0.095 0.060 0.096 0.060 0.035-0.015-0.035-0.042-0.084-0.112-0.109-0.155-0.043-0.075-0.045-0.074-0.035 0.015zM7.283 13.201l-0.098 0.059 0.098-0.026c0.054-0.014 0.115-0.041 0.135-0.060 0.060-0.056-0.026-0.039-0.135 0.027zM6.402 13.296c-0.083 0.092-0.123 0.458-0.059 0.548 0.106 0.149 0.279-0.312 0.198-0.526-0.046-0.121-0.048-0.121-0.139-0.022zM8.654 13.392c0 0.010 0.040 0.039 0.088 0.065 0.080 0.043 0.083 0.041 0.034-0.018-0.050-0.061-0.123-0.088-0.123-0.047zM7.536 13.756c0.033 0.135 0.28 0.516 0.354 0.544 0.030 0.012 0.045 0.046 0.033 0.076-0.013 0.034 0.003 0.056 0.042 0.056 0.088 0 0.080-0.030-0.055-0.183-0.065-0.074-0.171-0.239-0.236-0.367-0.126-0.25-0.18-0.299-0.138-0.126zM7.52 14.014c-0.001 0.018 0.032 0.080 0.072 0.137s0.097 0.174 0.125 0.261c0.075 0.224 0.111 0.25 0.103 0.074-0.004-0.084-0.034-0.186-0.066-0.226-0.153-0.192-0.233-0.276-0.234-0.246zM4.561 14.184c-0.372 0.085-0.939 0.395-1.227 0.67l-0.183 0.175 0.176-0.14c0.243-0.193 0.657-0.44 0.822-0.488 0.185-0.055 0.553-0.195 0.579-0.221 0.024-0.024-0.050-0.021-0.168 0.006zM4.346 14.517c-0.548 0.233-0.912 0.462-1.115 0.703l-0.109 0.13 0.171 0.153c0.276 0.246 0.723 0.532 1.147 0.733 0.404 0.192 1.12 0.474 1.12 0.44 0-0.010-0.144-0.233-0.319-0.495s-0.345-0.538-0.377-0.614c-0.055-0.131-0.059-0.133-0.091-0.049-0.018 0.049-0.051 0.088-0.072 0.088-0.057 0-0.159-0.213-0.159-0.331 0-0.063-0.022-0.1-0.059-0.1-0.068 0-0.081-0.309-0.023-0.558 0.037-0.159 0.033-0.162-0.114-0.1zM1.927 15.706c-0.020 0.036-0.027 0.111-0.015 0.169l0.021 0.104 0.023-0.117c0.016-0.081 0.044-0.116 0.092-0.112 0.084 0.007 0.064-0.079-0.023-0.096-0.034-0.007-0.078 0.017-0.098 0.053zM2.27 15.946c0 0.080 0.333 0.281 0.383 0.231 0.011-0.011-0.031-0.039-0.093-0.063s-0.153-0.080-0.201-0.125-0.088-0.065-0.088-0.043zM7.33 15.987c-0.17 0.119-0.577 0.748-0.546 0.843 0.008 0.024 0.083-0.078 0.166-0.228s0.239-0.364 0.346-0.477c0.193-0.205 0.206-0.259 0.033-0.138zM2.857 16.155c0 0.046 0.168 0.118 0.267 0.114 0.044-0.002 0.033-0.016-0.032-0.043-0.054-0.022-0.129-0.056-0.166-0.076-0.044-0.023-0.069-0.021-0.069 0.005zM3.302 16.365c0.040 0.032 0.145 0.070 0.235 0.085s0.196 0.044 0.237 0.066c0.041 0.021 0.242 0.073 0.446 0.115s0.422 0.102 0.482 0.133c0.126 0.065 0.153 0.069 0.153 0.025 0-0.040-0.278-0.164-0.368-0.164-0.064 0-0.255-0.053-0.65-0.181-0.097-0.031-0.212-0.063-0.255-0.069s-0.14-0.025-0.215-0.040c-0.125-0.025-0.131-0.022-0.065 0.030zM3.706 16.768c-0.037 0.037-0.032 0.091 0.009 0.091 0.019 0 0.045-0.026 0.058-0.059 0.023-0.060-0.019-0.080-0.066-0.033zM3.889 16.803c-0.034 0.088 0.013 0.115 0.081 0.047 0.032-0.032 0.048-0.070 0.035-0.083-0.042-0.042-0.091-0.027-0.115 0.036zM4.219 16.867c-0.009 0.027 0.016 0.135 0.056 0.24 0.042 0.11 0.062 0.227 0.047 0.276-0.023 0.074-0.014 0.071 0.075-0.024 0.056-0.059 0.131-0.108 0.167-0.108 0.054 0 0.060 0.023 0.037 0.127-0.034 0.152-0.034 0.161-0.001 0.362 0.043 0.264 0.044 0.264 0.165 0.201 0.288-0.15 0.637-0.51 0.637-0.658 0-0.102-0.349-0.258-0.862-0.385-0.097-0.024-0.205-0.052-0.241-0.063s-0.072 0.003-0.081 0.030zM4.989 16.894c0.012 0.019 0.070 0.044 0.129 0.055 0.101 0.019 0.103 0.017 0.032-0.035-0.083-0.061-0.195-0.075-0.161-0.021zM3.995 16.955c-0.040 0.048-0.042 0.076-0.010 0.109s0.050 0.027 0.069-0.020c0.040-0.104 0.002-0.162-0.059-0.089zM3.518 17.065c-0.037 0.087-0.054 0.296-0.054 0.656 0 0.526 0.028 0.744 0.095 0.744 0.020 0 0.018-0.062-0.005-0.144-0.042-0.151-0.015-0.573 0.048-0.777 0.061-0.196 0.072-0.606 0.016-0.606-0.027 0-0.072 0.057-0.102 0.127zM3.745 16.995c-0.027 0.071 0.044 0.124 0.097 0.072 0.024-0.024 0.017-0.054-0.018-0.084-0.044-0.036-0.061-0.034-0.078 0.012zM4.106 17.155c-0.003 0.042-0.002 0.098 0.002 0.125 0.011 0.089-0.077 0.051-0.115-0.049-0.079-0.208-0.175-0.068-0.295 0.433-0.080 0.334-0.087 0.866-0.013 1.007 0.052 0.1 0.054 0.098 0.059-0.084 0.008-0.256 0.258-1.157 0.334-1.204 0.022-0.013 0.027 0.055 0.014 0.167l-0.023 0.189 0.097-0.098c0.089-0.090 0.094-0.113 0.060-0.292-0.040-0.209-0.111-0.326-0.119-0.195zM4.346 17.565c-0.027 0.050-0.028 0.078-0.003 0.078 0.022 0 0.058-0.035 0.081-0.078 0.027-0.050 0.028-0.078 0.003-0.078-0.022 0-0.058 0.035-0.081 0.078zM5.922 17.9c-0.027 0.030-0.045 0.070-0.039 0.090s-0.004 0.037-0.022 0.038c-0.048 0.003-0.184 0.187-0.182 0.247 0.001 0.029 0.045-0 0.099-0.065 0.079-0.095 0.064-0.041-0.082 0.291-0.099 0.224-0.215 0.477-0.258 0.562s-0.071 0.162-0.061 0.172c0.023 0.023 0.512-0.976 0.574-1.171 0.054-0.171 0.042-0.24-0.029-0.163zM6.152 18.151c-0.084 0.328-0.358 0.884-0.403 0.819-0.026-0.038-0.030-0.029-0.013 0.031 0.014 0.052-0.028 0.21-0.111 0.411-0.185 0.45-0.328 0.884-0.353 1.071-0.012 0.086-0.032 0.227-0.046 0.313-0.024 0.152 0.020 0.994 0.098 1.879 0.073 0.833-0.039 1.734-0.324 2.605-0.032 0.097-0.069 0.247-0.082 0.333l-0.024 0.157 0.095-0.191c0.052-0.105 0.114-0.209 0.137-0.232 0.076-0.076 0.089 0.002 0.022 0.132-0.077 0.148-0.107 0.445-0.073 0.712 0.031 0.241 0.097 0.203 0.071-0.040-0.022-0.205 0.022-0.407 0.094-0.43 0.033-0.011 0.047 0.059 0.047 0.238 0 0.265 0.021 0.351 0.294 1.183 0.193 0.59 0.354 1.225 0.417 1.652 0.052 0.347 0.052 0.346-0.317 0.49-0.318 0.124-0.895 0.124-1.295-0-0.285-0.088-0.913-0.4-0.96-0.477-0.013-0.021-0.041-0.038-0.063-0.038-0.074 0 0.008 0.077 0.299 0.279 0.16 0.112 0.282 0.217 0.271 0.235-0.034 0.055-0.639-0.19-1.051-0.426-0.217-0.124-0.456-0.248-0.532-0.276-0.193-0.072-0.55-0.1-0.666-0.053-0.096 0.039-0.095 0.040 0.032 0.042 0.144 0.003 0.137 0.081-0.007 0.081-0.113 0-0.527 0.25-0.727 0.438-0.336 0.317-0.717 0.947-0.768 1.269-0.021 0.135-0.013 0.158 0.067 0.193 0.070 0.030 0.090 0.068 0.086 0.163-0.004 0.102 0.012 0.128 0.093 0.148 0.054 0.014 0.102 0.019 0.106 0.013 0.034-0.049 0.082-0.384 0.056-0.384-0.066 0-0.032-0.161 0.069-0.324 0.27-0.434 0.931-0.932 1.322-0.995 0.216-0.035 0.173 0.049-0.064 0.127-0.363 0.119-0.472 0.188-0.761 0.486-0.184 0.189-0.462 0.715-0.504 0.951-0.032 0.178 0.008 0.421 0.070 0.421 0.025 0 0.082 0.035 0.127 0.077s0.14 0.081 0.211 0.087c0.071 0.005 0.139 0.026 0.151 0.045s-0.050 0.028-0.14 0.020c-0.1-0.010-0.157-0-0.148 0.025 0.023 0.064 0.462 0.041 0.603-0.033 0.095-0.049 0.124-0.088 0.114-0.153-0.007-0.048 0.009-0.17 0.035-0.271 0.059-0.225 0.031-0.265-0.086-0.121-0.133 0.162-0.11 0.051 0.047-0.23 0.246-0.442 0.617-0.698 1.207-0.834 0.081-0.019 0.107-0.012 0.095 0.024-0.009 0.027-0.070 0.061-0.136 0.074-0.568 0.116-1.072 0.741-1.069 1.325 0.001 0.151 0.023 0.204 0.139 0.329 0.158 0.17 0.274 0.224 0.479 0.223 0.341-0.001 0.766-0.18 1.177-0.495 1.078-0.827 1.546-1.066 2.64-1.35 0.2-0.052 0.304-0.172 0.304-0.353 0-0.081-0.071-0.361-0.159-0.623-0.14-0.421-0.332-1.168-0.371-1.448-0.008-0.054-0.041-0.265-0.074-0.47-0.118-0.736-0.141-1.537-0.081-2.877 0.060-1.324 0.097-1.584 0.269-1.856 0.188-0.298 0.555-0.519 0.954-0.573 0.22-0.030 0.255 0 0.131 0.113-0.073 0.066-0.069 0.079 0.142 0.523 0.264 0.556 0.427 1.023 0.502 1.439 0.066 0.364 0.073 1.178 0.016 1.684-0.044 0.39-0.242 1.218-0.333 1.394-0.032 0.062-0.057 0.118-0.055 0.123s-0.015 0.060-0.038 0.12c-0.023 0.061-0.042 0.117-0.042 0.126 0 0.039-0.388 0.819-0.575 1.158-0.114 0.207-0.208 0.403-0.208 0.437s0.035 0.142 0.077 0.241c0.056 0.13 0.093 0.173 0.137 0.156 0.033-0.013 0.060-0.004 0.060 0.020 0 0.049-0.152 0.058-0.221 0.013-0.025-0.016-0.072-0.090-0.105-0.166-0.035-0.081-0.061-0.109-0.063-0.067-0.002 0.038 0.021 0.127 0.049 0.196 0.055 0.132 0.065 0.164 0.065 0.216 0 0.017 0.181 0.054 0.401 0.081 0.771 0.096 1.431 0.264 2.066 0.524 0.659 0.271 1.059 0.355 1.417 0.298 0.192-0.030 0.363-0.131 0.325-0.192-0.010-0.016 0.016-0.073 0.057-0.125 0.194-0.246-0.173-0.877-0.662-1.139-0.217-0.116-0.099-0.125 0.136-0.010 0.121 0.059 0.311 0.198 0.423 0.309 0.231 0.229 0.39 0.496 0.311 0.524-0.091 0.032-0.054 0.226 0.065 0.34 0.105 0.101 0.13 0.107 0.316 0.082 0.45-0.062 0.633-0.48 0.415-0.948-0.281-0.604-0.719-0.837-1.638-0.873-0.016-0.001-0.029-0.019-0.029-0.040 0-0.106 0.84 0.027 1.144 0.18 0.328 0.166 0.62 0.486 0.639 0.701 0.002 0.022 0.017 0.080 0.034 0.129 0.026 0.076 0.040 0.082 0.090 0.040 0.046-0.038 0.055-0.102 0.040-0.273-0.037-0.409-0.311-0.776-0.742-0.997-0.224-0.115-0.581-0.212-0.78-0.212-0.228 0-0.817 0.173-1.063 0.312-0.287 0.162-0.291 0.096-0.005-0.094 0.121-0.080 0.209-0.156 0.196-0.169s-0.054 0.005-0.092 0.038c-0.309 0.275-1.369 0.601-2.027 0.623-0.161 0.005-0.25 0.027-0.281 0.069-0.075 0.1-0.057-0.167 0.033-0.487 0.109-0.387 0.271-0.77 0.621-1.469 0.168-0.334 0.36-0.752 0.429-0.93s0.14-0.332 0.159-0.344c0.019-0.012 0.070 0.045 0.113 0.127l0.078 0.148 0.002-0.285c0.002-0.246-0.014-0.313-0.116-0.493-0.153-0.271-0.152-0.33 0.002-0.087 0.066 0.104 0.13 0.178 0.143 0.165s0.005-0.046-0.017-0.073c-0.086-0.108-0.486-1.057-0.656-1.558-0.199-0.584-0.32-1.052-0.352-1.351-0.102-0.972-0.218-1.718-0.278-1.778-0.039-0.039-0.012 0.234 0.058 0.583 0.079 0.399 0.145 0.974 0.106 0.937-0.013-0.012-0.062-0.268-0.109-0.568l-0.086-0.546-0.093 0.287c-0.084 0.259-0.192 0.466-0.333 0.634-0.028 0.033-0.139 0.093-0.246 0.134-0.201 0.075-0.466 0.227-0.56 0.321-0.029 0.029-0.064 0.053-0.077 0.053-0.054 0 0.216-0.247 0.343-0.314l0.137-0.072-0.113-0.043c-0.195-0.075-0.319-0.186-0.425-0.382-0.205-0.377-0.207-0.92-0.007-2.323 0.011-0.075 0.046-0.263 0.079-0.416s0.054-0.339 0.047-0.411c-0.012-0.124-0.016-0.12-0.067 0.082zM4.417 18.24c-0.004 0.135-0.011 0.306-0.015 0.382s0.006 0.199 0.023 0.274c0.024 0.106 0.032 0.061 0.035-0.2 0.002-0.186 0.015-0.419 0.029-0.519 0.017-0.124 0.011-0.182-0.020-0.182-0.028 0-0.047 0.092-0.052 0.245zM4.822 18.411c-0.086 0.129-0.109 0.198-0.084 0.245 0.019 0.036 0.045 0.114 0.058 0.174 0.038 0.18 0.112 0.080 0.085-0.115-0.018-0.131-0.005-0.201 0.054-0.298 0.085-0.14 0.096-0.186 0.042-0.186-0.019 0-0.089 0.081-0.155 0.18zM5.578 18.468c-0.042 0.068 0.006 0.083 0.060 0.018 0.031-0.037 0.034-0.060 0.008-0.060-0.023 0-0.053 0.019-0.067 0.042zM5.5 18.673c-0.077 0.089-0.097 0.14-0.065 0.16 0.018 0.011 0.063-0.032 0.101-0.095 0.067-0.114 0.043-0.157-0.036-0.065zM5.311 19.034c-0.012 0.032-0.005 0.059 0.015 0.059s0.038-0.026 0.038-0.059-0.007-0.059-0.015-0.059c-0.008 0-0.026 0.026-0.038 0.059zM4.502 19.712c0 0.053 0.209 0.232 0.304 0.26 0.068 0.020 0.117-0.002 0.21-0.095 0.138-0.138 0.122-0.217-0.018-0.086-0.127 0.119-0.312 0.113-0.379-0.013-0.050-0.094-0.117-0.132-0.117-0.066zM3.954 20.577c0.032 0.023 0.105 0.042 0.162 0.042s0.125 0.027 0.152 0.059 0.077 0.058 0.112 0.058c0.055-0 0.055-0.006 0.006-0.037-0.032-0.020-0.048-0.046-0.036-0.058 0.031-0.031 0.387 0.096 0.387 0.139 0 0.020-0.090 0.035-0.201 0.035s-0.265 0.017-0.343 0.037c-0.078 0.020-0.274 0.066-0.435 0.103-0.315 0.070-0.541 0.168-0.626 0.271-0.047 0.057-0.042 0.062 0.042 0.043 0.187-0.042 0.568-0.099 0.715-0.108 0.082-0.005 0.159-0.024 0.17-0.043s-0.038-0.024-0.111-0.013c-0.072 0.011-0.228 0.029-0.347 0.040l-0.215 0.020 0.137-0.061c0.081-0.036 0.302-0.070 0.539-0.082 0.341-0.018 0.401-0.012 0.401 0.038 0 0.096-0.325 0.322-0.868 0.602-0.575 0.297-0.886 0.551-1.037 0.849-0.102 0.201-0.1 0.273 0.005 0.186 0.033-0.028 0.051-0.080 0.039-0.117-0.049-0.153 0.612-0.62 0.972-0.687 0.14-0.026 0.144-0.024 0.144 0.089 0 0.146-0.159 0.37-0.544 0.766-0.355 0.365-0.496 0.581-0.573 0.879-0.067 0.257-0.079 0.574-0.019 0.48 0.021-0.032 0.038-0.107 0.039-0.165 0.001-0.211 0.155-0.528 0.357-0.732 0.108-0.11 0.213-0.2 0.234-0.2 0.048 0 0.047 0.064-0.001 0.155-0.066 0.123-0.196 1.075-0.222 1.617-0.050 1.071 0.153 1.793 0.503 1.793 0.296 0 0.48-0.262 0.592-0.842 0.090-0.463 0.101-0.566 0.142-1.273 0.034-0.593 0.102-1.088 0.144-1.046 0.009 0.009 0.024 0.156 0.032 0.326s0.043 0.388 0.076 0.485l0.061 0.176-0.024-0.176c-0.070-0.524-0.034-1.287 0.042-0.882 0.028 0.148 0.173 0.411 0.228 0.411 0.016 0 0.029-0.010 0.029-0.022 0-0.039-0.089-0.192-0.125-0.216-0.019-0.012-0.043-0.092-0.054-0.176-0.019-0.152 0.016-0.118 0.078 0.077 0.047 0.145 0.059 0.035 0.021-0.194-0.051-0.309-0.050-0.996 0.001-0.996 0.022 0 0.039 0.039 0.039 0.086 0 0.080 0.151 0.344 0.197 0.345 0.012 0 0.006-0.163-0.012-0.362-0.045-0.489-0.019-0.918 0.067-1.082 0.049-0.095 0.056-0.14 0.025-0.16s-0.033-0.057-0.003-0.137c0.023-0.060 0.037-0.114 0.031-0.118s-0.138-0.056-0.294-0.115c-0.291-0.11-0.959-0.193-0.834-0.104zM4.189 21.129c0 0.022 0.018 0.039 0.039 0.039s0.039-0.018 0.039-0.039c0-0.022-0.018-0.039-0.039-0.039s-0.039 0.018-0.039 0.039zM6.893 21.304c-0.031 0.037-0.034 0.060-0.008 0.060 0.047 0 0.103-0.074 0.075-0.101-0.010-0.010-0.040 0.009-0.067 0.042zM4.811 21.661c-0.003 0.041-0.003 0.087-0.001 0.102s0.008 0.080 0.013 0.144c0.005 0.064 0.021 0.11 0.036 0.1s0.019-0.101 0.008-0.203c-0.020-0.197-0.048-0.269-0.056-0.144zM6.572 21.961c-0.347 0.199-0.497 0.43-0.562 0.861-0.046 0.309-0.121 2.074-0.114 2.674 0.012 0.915 0.143 1.857 0.415 2.967 0.046 0.189 0.094 0.343 0.107 0.342s0.129-0.199 0.257-0.441c0.749-1.407 0.981-2.135 1.082-3.386 0.043-0.526 0.040-0.636-0.022-1.014-0.086-0.522-0.308-1.177-0.58-1.708-0.147-0.288-0.228-0.405-0.284-0.413-0.043-0.006-0.178 0.047-0.3 0.117zM3.267 22.12c-0.22 0.096-0.621 0.377-0.587 0.412 0.012 0.012 0.070-0.024 0.129-0.080 0.141-0.134 0.541-0.343 0.657-0.343 0.050 0 0.103-0.018 0.116-0.039 0.040-0.065-0.105-0.041-0.315 0.051zM6.041 22.118c-0.072 0.094-0.094 0.147-0.059 0.147 0.019 0 0.055-0.044 0.080-0.098 0.048-0.106 0.039-0.127-0.021-0.049zM4.858 22.245c-0.001 0.043 0.015 0.105 0.036 0.137 0.034 0.052 0.038 0.052 0.036 0-0.001-0.032-0.017-0.094-0.036-0.137l-0.034-0.078-0.002 0.078zM4.567 22.334c-0.033 0.133 0.005 0.704 0.048 0.73 0.022 0.014 0.017-0.512-0.007-0.761-0.009-0.088-0.013-0.085-0.041 0.030zM4.1 24.367c-0.010 0.018-0.029 0.244-0.041 0.502-0.026 0.566 0 0.52 0.045-0.078 0.032-0.427 0.032-0.485-0.005-0.424zM8.589 25.026c0.012 0.043 0.034 0.127 0.048 0.186s0.043 0.108 0.064 0.108c0.054 0-0.003-0.242-0.074-0.313-0.053-0.052-0.057-0.050-0.037 0.020zM3.993 25.455c0 0.12 0.022 0.13 0.051 0.022 0.011-0.043 0.005-0.088-0.015-0.1s-0.035 0.023-0.035 0.078zM8.362 25.541c-0.042 0.221-0.379 0.921-0.434 0.9-0.026-0.010-0.067 0.025-0.091 0.078-0.064 0.14-0.054 0.153 0.037 0.048 0.045-0.051 0.070-0.070 0.056-0.044s-0.009 0.049 0.011 0.049c0.036 0 0.194-0.325 0.405-0.836 0.119-0.288 0.131-0.339 0.076-0.339-0.019 0-0.047 0.064-0.062 0.143zM3.837 26.103c-0.025 0.047-0.037 0.094-0.026 0.105s0.040-0.019 0.065-0.065c0.025-0.047 0.037-0.094 0.026-0.105s-0.040 0.019-0.065 0.065zM7.91 26.221c0 0.022 0.018 0.039 0.039 0.039s0.039-0.018 0.039-0.039c0-0.022-0.018-0.039-0.039-0.039s-0.039 0.018-0.039 0.039zM3.7 26.377c-0.013 0.022-0.006 0.039 0.017 0.039s0.041-0.018 0.041-0.039c0-0.022-0.008-0.039-0.017-0.039s-0.028 0.018-0.041 0.039zM7.721 26.83c-0.067 0.146-0.054 0.168 0.033 0.057 0.083-0.106 0.098-0.157 0.045-0.157-0.018 0-0.053 0.045-0.078 0.1zM7.616 27.043c-0.013 0.022-0.006 0.039 0.017 0.039s0.041-0.018 0.041-0.039c0-0.022-0.008-0.039-0.017-0.039s-0.028 0.018-0.041 0.039zM7.381 27.67c-0.013 0.022-0.006 0.039 0.017 0.039s0.041-0.018 0.041-0.039c0-0.022-0.008-0.039-0.017-0.039s-0.028 0.018-0.041 0.039zM7.223 28.064c-0.014 0.023-0.017 0.050-0.007 0.060s0.029-0.009 0.042-0.042c0.026-0.069 0.004-0.081-0.035-0.019zM11.318 28.667c0 0.011 0.062 0.089 0.137 0.173 0.185 0.205 0.305 0.489 0.317 0.749 0.013 0.273 0.010 0.265 0.055 0.196 0.104-0.161-0.017-0.625-0.235-0.901-0.113-0.142-0.274-0.27-0.274-0.216zM10.588 29.394c0.053 0.096 0.11 0.246 0.125 0.332 0.039 0.22 0.093 0.308 0.095 0.154 0.002-0.18-0.107-0.465-0.218-0.569l-0.098-0.092 0.097 0.175zM12.179 29.383c0 0.049 0.112 0.147 0.138 0.121 0.010-0.010-0.016-0.051-0.060-0.090s-0.079-0.053-0.079-0.031zM6.343 29.489c0 0.034 0.018 0.061 0.039 0.061s0.039-0.017 0.039-0.037c0-0.020-0.018-0.048-0.039-0.061s-0.039 0.003-0.039 0.037zM7.354 29.459c0.028 0.011 0.062 0.010 0.075-0.003s-0.010-0.022-0.051-0.021c-0.046 0.002-0.055 0.011-0.024 0.024zM7.511 29.498c0.028 0.011 0.062 0.010 0.075-0.003s-0.010-0.022-0.051-0.021c-0.046 0.002-0.055 0.011-0.024 0.024zM7.832 29.573c0.118 0.029 0.233 0.047 0.255 0.040 0.058-0.019-0.258-0.103-0.372-0.098-0.057 0.002-0.009 0.026 0.117 0.058zM6.264 29.709c-0.054 0.041-0.079 0.075-0.056 0.076 0.057 0.001 0.198-0.105 0.173-0.13-0.011-0.011-0.064 0.014-0.117 0.055zM8.334 29.694c0.028 0.011 0.062 0.010 0.075-0.003s-0.010-0.022-0.051-0.021c-0.046 0.002-0.055 0.011-0.024 0.024zM8.458 29.72c0 0.027 0.362 0.147 0.382 0.127 0.009-0.009-0.016-0.033-0.056-0.054-0.088-0.046-0.326-0.1-0.326-0.073zM8.968 29.917c0.054 0.031 0.265 0.113 0.47 0.184 0.32 0.11 0.428 0.129 0.767 0.132 0.284 0.002 0.414-0.012 0.461-0.051 0.096-0.079 0.062-0.086-0.114-0.024-0.085 0.030-0.217 0.056-0.293 0.057-0.162 0.002-0.85-0.166-1.007-0.247-0.060-0.031-0.17-0.067-0.246-0.081-0.134-0.025-0.135-0.025-0.039 0.030zM11.866 29.933c0 0.019 0.038 0.069 0.084 0.11 0.083 0.074 0.084 0.074 0.039-0.011-0.050-0.095-0.123-0.154-0.123-0.099zM5.191 30.045c-0.27 0.097-0.476 0.21-0.383 0.21 0.027 0 0.115-0.033 0.195-0.074s0.22-0.096 0.312-0.124 0.166-0.065 0.166-0.083c0-0.018-0.004-0.032-0.010-0.030s-0.132 0.047-0.28 0.1zM10.887 30.052c0 0.018 0.044 0.074 0.098 0.124 0.073 0.069 0.098 0.077 0.098 0.032 0-0.033-0.032-0.089-0.072-0.124-0.078-0.071-0.124-0.083-0.124-0.032zM4.531 30.375c-0.102 0.063-0.2 0.115-0.219 0.115-0.048 0-0.332 0.274-0.309 0.297 0.011 0.011 0.045-0.006 0.076-0.037s0.187-0.14 0.347-0.242c0.334-0.213 0.329-0.209 0.306-0.232-0.009-0.009-0.1 0.035-0.202 0.098zM0.2 30.747c-0.066 0.145-0.056 0.159 0.033 0.046 0.085-0.108 0.097-0.146 0.045-0.146-0.018 0-0.053 0.045-0.078 0.1zM3.797 30.884c0 0.023 0.018 0.031 0.039 0.017s0.039-0.032 0.039-0.041c0-0.010-0.018-0.017-0.039-0.017s-0.039 0.019-0.039 0.041zM3.62 31.002c-0.042 0.067-0.004 0.074 0.078 0.014 0.064-0.046 0.066-0.056 0.012-0.056-0.035 0-0.076 0.019-0.090 0.042zM3.445 31.136c-0.027 0.032-0.072 0.059-0.099 0.059s-0.057 0.014-0.064 0.031c-0.026 0.061-0.252 0.191-0.413 0.237-0.154 0.044-0.263 0.124-0.171 0.124 0.163 0 0.864-0.387 0.864-0.477 0-0.052-0.064-0.038-0.118 0.026zM0.68 31.401l-0.065 0.127 0.103-0.095c0.106-0.098 0.131-0.16 0.065-0.16-0.021 0-0.067 0.057-0.103 0.127zM1.772 31.596c-0.089 0.115-0.094 0.161-0.009 0.080 0.050-0.048 0.082-0.097 0.070-0.109s-0.039 0.001-0.060 0.028zM2.094 31.587c0.013 0.022 0.042 0.039 0.063 0.039s0.028-0.018 0.015-0.039c-0.013-0.022-0.042-0.039-0.063-0.039s-0.028 0.018-0.015 0.039zM2.505 31.587c0 0.022 0.026 0.039 0.059 0.039s0.059-0.018 0.059-0.039c0-0.022-0.026-0.039-0.059-0.039s-0.059 0.018-0.059 0.039z"></path>

</symbol>
</defs>
</svg>
