<svg aria-hidden="true" style="position: absolute; width: 0; height: 0; overflow: hidden;" version="1.1" xmlns="http://www.w3.org/2000/svg" xmlns:xlink="http://www.w3.org/1999/xlink">
<defs>
<symbol id="icon-goit-lens" viewBox="0 0 35 32">
<path fill="#000" style="fill: var(--color1, #000)" d="M9.798 0.086c-2.674 0.336-4.847 1.415-6.667 3.304-1.285 1.337-2.070 2.639-2.605 4.321-0.725 2.26-0.681 4.813 0.121 7.038 1.328 3.674 4.52 6.383 8.392 7.125 1.113 0.216 3.002 0.198 4.132-0.043 1.432-0.302 2.812-0.863 3.881-1.587l0.449-0.302 0.725 0.621 0.897-1.018 0.405 0.336c0.233 0.19 0.431 0.293 0.474 0.25 0.388-0.431 1.561-1.863 1.561-1.906 0-0.026-0.155-0.181-0.345-0.345s-0.345-0.328-0.345-0.354c0-0.035 0.172-0.276 0.388-0.535l0.397-0.474-0.354-0.336-0.354-0.328 0.259-0.664c0.587-1.44 0.785-2.519 0.785-4.166 0-2.984-1.070-5.615-3.148-7.711-1.596-1.604-3.485-2.622-5.762-3.088-0.811-0.172-2.484-0.241-3.286-0.138zM12.559 1.716c0.043 0.043 0.449 0.172 0.897 0.302 3.269 0.914 5.736 3.407 6.616 6.676 0.207 0.75 0.233 0.992 0.233 2.346 0 1.363-0.026 1.596-0.233 2.372-0.957 3.571-3.916 6.236-7.599 6.866-0.88 0.147-2.941 0.052-3.769-0.172-3.14-0.854-5.632-3.2-6.581-6.202-0.267-0.854-0.483-2.105-0.483-2.82 0-0.768 0.224-2.148 0.483-2.933 1.044-3.183 3.735-5.598 7.012-6.271 0.63-0.129 1.087-0.155 2.036-0.138 0.681 0.017 1.216 0 1.19-0.043-0.052-0.086 0.095-0.078 0.198 0.017z"></path>
<path fill="#000" style="fill: var(--color1, #000)" d="M6.021 4.382c-3.614 2.881-4.295 8.194-1.527 11.92 0.457 0.621 1.233 1.397 1.829 1.837 0.742 0.561 0.75 0.492 0.043-0.293-0.423-0.457-0.759-0.871-0.759-0.923 0-0.043-0.173-0.414-0.388-0.819-0.837-1.57-1.199-3.079-1.199-5.020 0-2.648 0.776-4.847 2.381-6.797 0.19-0.224 0.319-0.405 0.302-0.405-0.026 0-0.336 0.224-0.681 0.5z"></path>
<path fill="#000" style="fill: var(--color1, #000)" d="M21.667 19.838c-0.63 0.759-1.164 1.432-1.19 1.501-0.035 0.078 1.026 1.208 3.105 3.303 2.406 2.432 3.166 3.148 3.243 3.071 0.086-0.078 0.138-0.009-0.043-0.241 0.052 0.172-0.129-0.172 0 0-0.052-0.172-0.043 0-0.043 0 0.155 0.155 0.267 0.104 0.19 0.224-0.086 0.129 0.017 0.259 0.656 0.88 1.259 1.225 3.649 3.381 3.769 3.407 0.535 0.121 2.924-2.406 3.674-3.881 0.138-0.276 0.25-0.552 0.25-0.612 0-0.069-0.75-0.699-1.656-1.406-2.355-1.829-2.277-1.768-2.501-1.716-0.285 0.069-0.638-0.276-0.595-0.578 0.017-0.155-7.383-5.339-7.608-5.322-0.060 0-0.621 0.621-1.251 1.371z"></path>
<path fill="#000" style="fill: var(--color1, #000)" d="M30.637 23.996c0.164 0.241 0.388 0.38 0.474 0.293 0.069-0.069-0.38-0.483-0.526-0.483-0.043 0-0.017 0.086 0.052 0.19z"></path>
<path fill="#fff" style="fill: var(--color2, #fff)" d="M24.296 21.98l-0.662 0.762 2.352 2.043 0.596-0.137c0.328-0.075 0.602-0.144 0.609-0.152s0.037-0.289 0.065-0.624l0.052-0.608-2.35-2.045-0.662 0.762zM25.628 22.55c0.022 0.034 0.051 0.096 0.066 0.138l0.024 0.074-0.103 0.016c-0.058 0.008-0.107 0.016-0.111 0.015-0.003 0.001-0.020-0.031-0.037-0.070-0.044-0.102-0.096-0.154-0.176-0.175-0.101-0.028-0.163-0.010-0.242 0.069-0.059 0.057-0.070 0.078-0.075 0.137-0.012 0.121 0.059 0.234 0.174 0.276 0.046 0.017 0.057 0.015 0.089-0.023l0.037-0.043-0.073-0.063-0.073-0.063 0.116-0.133 0.318 0.276-0.263 0.303-0.075-0.012c-0.228-0.035-0.433-0.216-0.483-0.428-0.059-0.25 0.125-0.508 0.388-0.542 0.182-0.025 0.391 0.079 0.499 0.248zM26.505 23.317c0.133 0.221 0.077 0.495-0.128 0.626-0.241 0.154-0.569 0.055-0.705-0.211-0.2-0.391 0.187-0.796 0.594-0.622 0.097 0.041 0.184 0.117 0.238 0.207z"></path>
<path fill="#fff" style="fill: var(--color2, #fff)" d="M26.223 23.334c-0.137-0.086-0.332 0.012-0.359 0.18-0.015 0.092 0.004 0.142 0.080 0.208 0.045 0.039 0.078 0.058 0.109 0.062 0.16 0.024 0.32-0.155 0.276-0.309-0.014-0.048-0.064-0.114-0.106-0.14z"></path>
<path fill="#fff" style="fill: var(--color2, #fff)" d="M27.249 24.548l-0.662 0.762 2.344 2.038 1.325-1.524-2.344-2.038-0.662 0.762zM28.15 25.331l-0.282 0.324-0.225-0.196 0.563-0.648 0.225 0.196-0.281 0.324zM29.241 25.895l-0.091 0.105-0.225-0.196-0.381 0.438-0.225-0.196 0.381-0.438-0.225-0.196 0.182-0.21 0.675 0.587-0.091 0.105z"></path>
</symbol>
</defs>
</svg>
