<svg aria-hidden="true" style="position: absolute; width: 0; height: 0; overflow: hidden;" version="1.1" xmlns="http://www.w3.org/2000/svg" xmlns:xlink="http://www.w3.org/1999/xlink">
<defs>
<symbol id="icon-happyCoyote" viewBox="0 0 13 32">
<path d="M4.742 0.060c-0.032 0.040-0.201 0.374-0.375 0.742-0.344 0.728-0.75 1.428-1.212 2.094-0.163 0.235-0.343 0.523-0.398 0.64-0.095 0.2-0.108 0.207-0.204 0.12-0.121-0.11-0.149-0.063-0.174 0.293-0.014 0.198-0.033 0.226-0.144 0.214-0.105-0.011-0.128 0.014-0.127 0.142 0.002 0.244 0.185 0.892 0.474 1.671 0.48 1.297 0.586 1.864 0.494 2.641-0.104 0.873-0.139 0.945-0.513 1.056-0.368 0.109-0.569 0.21-0.569 0.284 0 0.029 0.045 0.039 0.1 0.023s0.010 0.042-0.099 0.13c-0.46 0.372-0.669 0.597-0.87 0.937-0.224 0.379-0.289 0.639-0.126 0.504 0.138-0.115 0.155-0.032 0.059 0.291-0.111 0.374-0.111 0.403 0 0.382 0.060-0.011 0.115 0.056 0.165 0.201 0.095 0.273 0.235 0.432 0.469 0.531 0.206 0.087 0.585 0.104 0.585 0.026 0-0.028 0.133-0.083 0.296-0.122 0.237-0.057 0.372-0.142 0.674-0.426 0.776-0.729 1.020-0.793 1.561-0.409 0.32 0.227 0.829 0.778 0.829 0.897 0 0.030-0.178 0.055-0.396 0.055s-0.461 0.030-0.541 0.066c-0.165 0.075-0.195 0.218-0.045 0.22 0.069 0.001 0.025 0.064-0.143 0.205-0.301 0.253-0.526 0.627-0.526 0.876 0 0.185 0.002 0.187 0.114 0.085 0.063-0.057 0.13-0.088 0.149-0.069s-0.022 0.298-0.090 0.621c-0.152 0.721-0.438 1.332-0.923 1.975-0.804 1.066-0.901 1.216-0.901 1.4 0 0.099 0.035 0.227 0.077 0.285 0.072 0.098 0.082 0.092 0.15-0.089l0.074-0.194 0.043 0.262c0.048 0.291 0.199 0.621 0.284 0.621 0.031 0 0.055-0.043 0.055-0.095 0-0.078 0.026-0.071 0.145 0.041 0.108 0.102 0.157 0.118 0.19 0.065s0.129-0.020 0.378 0.13c0.184 0.111 0.354 0.201 0.378 0.201s0.189 0.064 0.367 0.143l0.322 0.143-0.154 0.121c-0.14 0.111-0.174 0.115-0.375 0.049-0.294-0.097-0.478 0.017-0.575 0.356-0.095 0.334-0.14 0.367-0.239 0.176-0.083-0.161-0.228-0.262-0.472-0.33-0.202-0.056-0.381 0.141-0.417 0.459l-0.032 0.278-0.285 0.040c-0.775 0.109-1.59 0.499-1.791 0.857-0.108 0.192-0.057 0.24 0.236 0.223l0.235-0.014-0.202 0.224c-0.292 0.324-0.504 0.711-0.623 1.141-0.196 0.706-0.101 1.258 0.169 0.988 0.108-0.108 0.11-0.103 0.143 0.409 0.040 0.625 0.16 0.998 0.409 1.262 0.244 0.259 0.473 0.267 0.678 0.023 0.156-0.185 0.166-0.215 0.428-1.309 0.094-0.393 0.195-0.777 0.224-0.854 0.052-0.136 0.054-0.135 0.085 0.059 0.018 0.11 0.048 0.388 0.067 0.618s0.049 0.454 0.066 0.498c0.057 0.149 0.132 0.080 0.132-0.122 0-0.371 0.176-1.076 0.362-1.446 0.197-0.392 0.367-0.549 0.258-0.239-0.135 0.388-0.027 0.374 0.307-0.040 0.181-0.224 0.412-0.449 0.512-0.5s0.261-0.166 0.356-0.256l0.173-0.164 0.248 0.611c0.67 1.653 0.653 1.597 0.656 2.156 0.003 0.489-0.009 0.543-0.205 0.925-0.199 0.388-0.203 0.404-0.079 0.373 0.121-0.030 0.132-0.010 0.169 0.318 0.031 0.272 0.058 0.344 0.122 0.319 0.055-0.021 0.112 0.038 0.174 0.18 0.051 0.116 0.104 0.18 0.119 0.141 0.056-0.149 0.143-0.058 0.338 0.352 0.233 0.491 0.357 1.089 0.273 1.327-0.123 0.352-0.812 0.394-1.719 0.106-0.759-0.241-1.092-0.29-1.362-0.201-0.202 0.067-0.204 0.069-0.077 0.137 0.125 0.067 0.119 0.075-0.183 0.245-0.601 0.339-0.923 0.891-0.991 1.697l-0.036 0.421 0.193 0.081c0.106 0.045 0.253 0.162 0.326 0.261l0.133 0.18 0.921-0.018c0.771-0.015 0.957-0.036 1.142-0.128 0.489-0.243 2.399-1.907 2.567-2.236 0.003-0.006 0.248 0.025 0.545 0.071 0.776 0.119 2.886 0.175 3.386 0.089 0.485-0.083 1.519-0.565 1.654-0.77 0.084-0.128 0.084-0.155-0.005-0.343-0.119-0.25-0.579-0.671-0.981-0.899-0.227-0.128-0.286-0.187-0.241-0.242 0.088-0.106-0.242-0.226-0.607-0.22-0.205 0.003-0.307-0.020-0.328-0.075-0.051-0.133-0.656 0.214-1.342 0.771-0.405 0.329-0.913 0.563-1.324 0.611l-0.327 0.038v-0.367c0-0.268 0.054-0.527 0.2-0.962 0.283-0.845 0.251-0.783 0.34-0.663 0.069 0.093 0.080 0.080 0.116-0.134 0.029-0.172 0.057-0.219 0.102-0.174 0.115 0.115 0.167 0.065 0.127-0.123-0.022-0.102-0.038-0.282-0.036-0.401 0.003-0.177-0.072-0.327-0.414-0.836-0.23-0.341-0.488-0.794-0.573-1.006-0.168-0.42-0.293-1.205-0.351-2.214-0.034-0.577-0.023-0.68 0.137-1.31 0.095-0.376 0.253-0.901 0.349-1.167 0.198-0.544 1.002-1.984 1.044-1.869 0.043 0.122 0.107 0.016 0.14-0.233 0.017-0.128 0.051-0.232 0.075-0.232 0.118 0 0.599 0.564 1.002 1.173 0.453 0.686 0.647 0.855 0.647 0.564 0-0.145 0.008-0.149 0.253-0.112 0.222 0.033 0.27 0.020 0.399-0.108 0.165-0.165 0.191-0.322 0.054-0.322-0.066 0-0.079-0.028-0.047-0.1 0.104-0.234 0.091-0.57-0.033-0.858-0.069-0.16-0.161-0.321-0.204-0.357-0.065-0.054-0.079-0.033-0.079 0.112 0 0.31-0.104 0.194-0.261-0.292-0.126-0.389-0.157-0.607-0.18-1.269l-0.028-0.8 0.205-0.18c0.263-0.231 0.472-0.267 1.189-0.202 0.87 0.079 1.068-0.008 1.068-0.467 0-0.425-0.289-0.713-0.714-0.713-0.126 0-0.373 0.083-0.627 0.21-0.231 0.116-0.437 0.194-0.457 0.174s0.056-0.163 0.169-0.318c0.113-0.154 0.206-0.336 0.206-0.404 0-0.136-0.365-0.83-0.627-1.192-0.153-0.211-0.525-0.463-0.684-0.463-0.036 0-0.048 0.046-0.029 0.107 0.022 0.069 0.001 0.12-0.057 0.142-0.061 0.023-0.079 0.073-0.055 0.149 0.050 0.157-0.061 0.146-0.29-0.028-0.103-0.078-0.233-0.146-0.29-0.151-0.203-0.018-0.303 0.010-0.303 0.084 0 0.041-0.092 0.119-0.205 0.172-0.145 0.069-0.195 0.124-0.17 0.187 0.020 0.052-0.025 0.16-0.107 0.257-0.078 0.092-0.173 0.272-0.211 0.4-0.072 0.241-0.066 0.27 0.186 0.885 0.079 0.192 0.022 0.499-0.089 0.486-0.097-0.011-0.097-0.118 0.001-0.138 0.073-0.015 0.044-0.068-0.125-0.238-0.12-0.12-0.289-0.256-0.375-0.3-0.194-0.101-0.199-0.169-0.014-0.216 0.433-0.109-0.223-0.261-0.683-0.158-0.157 0.035-0.342 0.080-0.413 0.101-0.212 0.062-0.299-0.244-0.299-1.050 0-0.861 0.028-0.905 0.616-0.979 0.401-0.050 0.425-0.046 0.716 0.118 0.363 0.205 0.66 0.219 1.188 0.056 0.487-0.151 0.842-0.464 1.097-0.97 0.137-0.271 0.255-0.423 0.403-0.514 0.442-0.273 0.628-1.116 0.303-1.379-0.207-0.168-0.382-0.082-0.849 0.414-0.475 0.505-0.706 0.613-0.912 0.426-0.080-0.073-0.095-0.122-0.054-0.172 0.075-0.090-0.209-0.197-0.523-0.197-0.157 0-0.219-0.024-0.219-0.085 0-0.193-0.647-0.009-1.093 0.31-0.353 0.253-0.444 0.252-0.899-0.003-0.301-0.169-0.297-0.259 0.004-0.105 0.128 0.065 0.247 0.105 0.265 0.088s-0.024-0.176-0.092-0.353c-0.090-0.235-0.107-0.342-0.062-0.396 0.089-0.107-0.078-0.402-0.304-0.54-0.1-0.061-0.182-0.143-0.182-0.182 0-0.164-0.216-0.102-0.432 0.125l-0.224 0.236-0.057-0.149c-0.12-0.317-0.080-0.387 0.442-0.778 0.274-0.205 0.68-0.48 0.902-0.61 0.552-0.323 0.877-0.61 0.877-0.773 0-0.072-0.040-0.147-0.089-0.166-0.070-0.027-0.021-0.12 0.236-0.447 0.499-0.634 0.671-1.101 0.429-1.164-0.1-0.026-0.094-0.063 0.096-0.578 0.184-0.499 0.203-0.607 0.207-1.16 0.003-0.495-0.014-0.628-0.091-0.704-0.126-0.126-0.178-0.084-0.444 0.363-0.208 0.35-1.087 1.493-2.059 2.68-0.287 0.35-0.392 0.445-0.392 0.357 0-0.172-0.086-0.15-0.247 0.064-0.323 0.431-0.57 1.103-0.72 1.962-0.034 0.194-0.093 0.412-0.131 0.484-0.107 0.202-0.341 0.501-0.393 0.501-0.166 0 0.121-0.964 0.548-1.837 0.205-0.42 0.374-0.816 0.374-0.878s-0.048-0.137-0.106-0.166c-0.099-0.048-0.089-0.096 0.163-0.792 0.365-1.005 0.369-1.026 0.219-1.176l-0.124-0.124 0.102-0.614c0.111-0.667 0.098-1.284-0.035-1.673-0.081-0.235-0.216-0.316-0.318-0.188zM5.054 0.93c0.024 0.464-0.089 1.298-0.254 1.88-0.032 0.113-0.031 0.113 0.090 0.004 0.086-0.077 0.141-0.092 0.183-0.050s-0.046 0.367-0.292 1.078c-0.443 1.283-0.445 1.292-0.262 1.077 0.278-0.326 0.22-0.080-0.181 0.765-0.31 0.654-0.434 0.99-0.528 1.438-0.068 0.322-0.144 0.607-0.169 0.634-0.069 0.074-0.147-0.113-0.32-0.764-0.138-0.52-0.158-0.697-0.157-1.42 0.001-1.002 0.082-1.308 0.728-2.764 0.318-0.716 0.474-1.157 0.604-1.705 0.096-0.407 0.216-0.802 0.266-0.878l0.091-0.138 0.086 0.165c0.050 0.096 0.098 0.38 0.113 0.679zM8.313 1.708c0 0.538-0.089 0.899-0.381 1.558-0.345 0.775-0.341 0.76-0.151 0.584 0.187-0.173 0.305-0.201 0.305-0.072 0 0.106-0.438 0.794-0.681 1.071-0.099 0.113-0.27 0.261-0.379 0.329-0.241 0.149-0.215 0.203 0.053 0.106 0.108-0.039 0.242-0.053 0.298-0.032 0.091 0.035 0.085 0.057-0.064 0.212-0.091 0.095-0.435 0.343-0.763 0.55s-0.785 0.518-1.015 0.69c-0.337 0.253-0.427 0.298-0.469 0.232-0.029-0.045-0.052-0.128-0.053-0.183-0.002-0.224 0.367-0.886 0.88-1.583 0.875-1.186 1.391-2.056 1.824-3.071 0.113-0.266 0.261-0.595 0.329-0.73 0.111-0.223 0.129-0.237 0.196-0.146 0.043 0.058 0.073 0.261 0.073 0.485zM4.212 1.739c-0.038 0.12-0.27 0.691-0.514 1.271-0.601 1.424-0.65 1.619-0.647 2.562 0.002 0.634 0.029 0.875 0.154 1.379 0.159 0.64 0.291 1.013 0.36 1.013 0.023 0 0.088-0.043 0.146-0.095s0.113-0.084 0.123-0.071c0.022 0.027 0.208 1.164 0.249 1.518l0.028 0.242h-0.522c-0.287 0-0.509-0.020-0.494-0.045s0.070-0.376 0.122-0.78c0.077-0.597 0.083-0.8 0.029-1.080-0.089-0.467-0.309-1.192-0.579-1.902-0.248-0.653-0.408-1.261-0.331-1.261 0.027 0 0.077 0.051 0.111 0.114 0.104 0.195 0.155 0.126 0.127-0.172-0.024-0.247-0.015-0.281 0.065-0.25 0.057 0.022 0.093 0.006 0.094-0.042 0.003-0.185 0.291-0.753 0.664-1.311 0.222-0.332 0.499-0.774 0.616-0.983 0.23-0.411 0.309-0.454 0.198-0.107zM7.236 2.886c-0.313 0.62-0.806 1.393-1.329 2.083-0.508 0.671-0.726 1.029-0.913 1.5-0.096 0.242-0.169 0.285-0.319 0.19-0.105-0.067-0.053-0.388 0.171-1.056 0.201-0.601 0.264-0.7 0.36-0.567 0.057 0.078 0.096 0.046 0.278-0.227 0.116-0.175 0.486-0.648 0.823-1.051s0.71-0.853 0.831-1c0.121-0.147 0.231-0.255 0.246-0.24s-0.052 0.181-0.147 0.37zM5.010 7.065c0.061 0.101 0.141 0.325 0.176 0.498 0.101 0.494 0.137 0.518 0.28 0.185 0.156-0.362 0.251-0.453 0.371-0.353 0.047 0.039 0.168 0.113 0.267 0.164s0.193 0.13 0.207 0.176c0.021 0.067-0.004 0.064-0.125-0.016-0.191-0.125-0.19-0.090 0.008 0.206 0.169 0.253 0.313 0.553 0.281 0.585-0.011 0.011-0.172-0.043-0.358-0.12s-0.38-0.14-0.43-0.141c-0.114-0.002-0.252 0.148-0.338 0.369-0.062 0.157-0.071 0.162-0.115 0.057-0.026-0.063-0.087-0.255-0.136-0.427s-0.112-0.35-0.141-0.395c-0.084-0.13-0.317 0.009-0.532 0.317-0.394 0.567-0.396 0.567-0.361 0.035 0.019-0.294 0.010-0.47-0.026-0.47-0.112 0 0.129-0.352 0.317-0.463 0.122-0.072 0.181-0.144 0.161-0.195-0.021-0.055 0.007-0.082 0.085-0.082 0.064 0 0.132-0.026 0.152-0.057 0.062-0.101 0.141-0.061 0.256 0.127zM4.984 8.233c0.164 0.591 0.198 0.666 0.403 0.875 0.2 0.204 0.2 0.207 0.069 0.239-0.073 0.018-0.329 0.050-0.57 0.072l-0.437 0.039-0.040-0.212c-0.078-0.418 0.053-0.955 0.304-1.241 0.136-0.155 0.174-0.124 0.271 0.228zM6.315 9.071c0.097 0.050 0.176 0.113 0.176 0.139 0 0.073-0.762 0.12-0.806 0.050-0.067-0.109-0.169-0.727-0.13-0.79 0.023-0.037 0.147 0.052 0.311 0.224 0.15 0.157 0.352 0.327 0.449 0.377zM6.61 8.996c0.224 0.067 0.273 0.125 0.162 0.193s-0.786-0.433-0.922-0.685c-0.034-0.062 0.073 0.008 0.238 0.156s0.399 0.299 0.522 0.336zM10.647 8.472c0 0.030-0.063 0.126-0.141 0.214l-0.141 0.16-0.002-0.154c-0.001-0.088 0.041-0.179 0.098-0.212 0.126-0.074 0.185-0.076 0.185-0.008zM8.045 8.698c0.275-0.079 0.681-0.067 0.651 0.019-0.014 0.040 0.051 0.098 0.148 0.132 0.437 0.154 0.282 0.437-0.278 0.506-0.176 0.022-0.463 0.089-0.637 0.149-0.363 0.125-0.559 0.138-0.618 0.043-0.038-0.062 0.035-0.141 0.298-0.319 0.097-0.066 0.093-0.069-0.036-0.036-0.078 0.020-0.207 0.097-0.287 0.171s-0.266 0.172-0.416 0.217c-0.276 0.083-0.58 0.251-0.535 0.296 0.014 0.014 0.117-0.014 0.231-0.062 0.285-0.119 0.308-0.109 0.149 0.064-0.076 0.083-0.112 0.139-0.081 0.125s0.148-0.067 0.259-0.118c0.111-0.051 0.272-0.11 0.357-0.131 0.126-0.032 0.148-0.022 0.119 0.053-0.026 0.068 0.076 0.040 0.401-0.108 0.443-0.202 0.852-0.278 0.643-0.119-0.134 0.102-0.127 0.167 0.010 0.094 0.173-0.092 0.195-0.071 0.092 0.088-0.092 0.14-0.091 0.144 0.008 0.090 0.057-0.031 0.219-0.176 0.36-0.322 0.247-0.255 0.553-0.463 0.605-0.41 0.014 0.014-0.005 0.091-0.041 0.171-0.084 0.184-0.027 0.421 0.113 0.465 0.059 0.019 0.218 0.009 0.354-0.021s0.254-0.049 0.262-0.040c0.008 0.008-0.051 0.147-0.131 0.309-0.17 0.342-0.395 0.548-0.792 0.728-0.59 0.268-1.045 0.234-1.433-0.106-0.124-0.109-0.213-0.152-0.237-0.114-0.042 0.068-1.137 0.257-1.214 0.21-0.027-0.017-0.049-0.070-0.049-0.119 0-0.077-0.049-0.082-0.356-0.039-0.196 0.027-0.582 0.047-0.859 0.044-0.434-0.005-0.52-0.023-0.626-0.129-0.172-0.172-0.073-0.31 0.252-0.354l0.25-0.034-0.313-0.015c-0.715-0.033-0.853 0.019-1.404 0.531-0.224 0.208-0.506 0.422-0.626 0.474-0.147 0.064-0.187 0.102-0.123 0.116 0.154 0.035 0.504-0.176 0.911-0.55 0.209-0.192 0.484-0.385 0.612-0.43l0.232-0.082 0.001 0.154c0.001 0.211 0.054 0.277 0.298 0.38 0.232 0.097 0.882 0.113 1.295 0.033 0.233-0.046 0.27-0.037 0.413 0.098l0.157 0.149-0.114 0.121c-0.133 0.142-0.153 0.246-0.027 0.141 0.048-0.040 0.097-0.062 0.109-0.050s0.045 0.363 0.074 0.778c0.061 0.891 0.069 0.906 0.732 1.406 0.491 0.37 1.364 1.185 1.457 1.359 0.043 0.080 0.038 0.121-0.018 0.156-0.063 0.039-0.057 0.12 0.030 0.46 0.059 0.227 0.084 0.42 0.056 0.43s-0.042 0.273-0.032 0.586c0.015 0.475 0.005 0.564-0.063 0.538-0.061-0.023-0.091 0.038-0.118 0.246-0.026 0.195-0.142 0.454-0.389 0.871-0.48 0.811-0.686 1.323-0.989 2.459-0.294 1.102-0.387 1.314-0.749 1.701-0.405 0.433-0.55 0.363-0.617-0.299l-0.037-0.364 0.267-0.363c0.259-0.352 0.428-0.714 0.428-0.918 0-0.055-0.050-0.163-0.112-0.241l-0.112-0.142 0.223-0.506c0.253-0.576 0.486-1.343 0.58-1.91 0.035-0.213 0.083-0.374 0.107-0.36s0.061 0.155 0.083 0.312c0.022 0.157 0.060 0.285 0.085 0.285 0.146 0 0.038-1.725-0.15-2.39-0.049-0.173-0.289-0.738-0.534-1.254s-0.514-1.113-0.599-1.326c-0.109-0.274-0.252-0.489-0.489-0.74-0.184-0.194-0.335-0.376-0.335-0.404s-0.186-0.038-0.413-0.023c-0.558 0.036-0.952 0.232-1.525 0.758-0.322 0.295-0.518 0.432-0.659 0.459-0.208 0.039-0.542 0.009-0.726-0.065-0.090-0.036-0.1-0.023-0.066 0.084 0.039 0.124 0.036 0.125-0.128 0.040-0.206-0.107-0.354-0.403-0.354-0.708 0-0.126-0.026-0.237-0.059-0.248-0.035-0.012-0.002-0.157 0.080-0.361 0.147-0.361 0.149-0.431 0.008-0.314-0.12 0.099-0.108 0.009 0.027-0.213 0.193-0.317 0.618-0.677 0.999-0.847 0.35-0.156 0.45-0.242 0.297-0.254-0.039-0.003-0.007-0.026 0.071-0.051 0.257-0.082 1.462-0.062 1.92 0.033 0.503 0.104 0.718 0.078 1.014-0.123 0.134-0.091 0.233-0.124 0.267-0.091s0.005 0.088-0.077 0.146c-0.188 0.132-0.079 0.114 0.364-0.060 0.285-0.112 0.501-0.256 0.82-0.547 0.466-0.424 0.775-0.604 0.806-0.469 0.013 0.058 0.061 0.064 0.199 0.024zM4.357 9.504c0.026 0.082 0.019 0.112-0.021 0.087-0.133-0.082-0.241-0.806-0.136-0.912 0.023-0.024 0.060 0.124 0.080 0.328s0.055 0.427 0.077 0.496zM5.447 8.945c-0.016 0.039-0.029 0.007-0.029-0.071s0.013-0.11 0.029-0.071c0.016 0.039 0.016 0.103 0 0.142zM6.491 9.452c0 0.043-0.149 0.106-0.25 0.106-0.038 0-0.117-0.035-0.175-0.077-0.093-0.068-0.076-0.076 0.16-0.071 0.146 0.003 0.265 0.022 0.265 0.042zM5.58 9.585c-0.118 0.142-0.482 0.212-0.741 0.143-0.125-0.034-0.228-0.086-0.228-0.116 0-0.073 0.268-0.071 0.313 0.002 0.054 0.087 0.24 0.068 0.277-0.028 0.021-0.054 0.108-0.085 0.241-0.085 0.178 0 0.198 0.012 0.138 0.085zM9.793 11.778c0.063 0.123 0.117 0.321 0.121 0.439s0.025 0.293 0.047 0.387l0.041 0.171 0.037-0.199c0.020-0.11 0.044-0.259 0.052-0.332l0.015-0.133 0.228 0.164c0.397 0.286 0.409 0.261 0.043-0.087-0.196-0.186-0.356-0.368-0.356-0.404s0.063-0.094 0.141-0.129c0.077-0.035 0.124-0.090 0.104-0.122-0.023-0.036 0.003-0.043 0.068-0.018 0.062 0.024 0.122 0.011 0.149-0.033 0.031-0.050 0.063-0.054 0.104-0.013 0.125 0.125 0.686 1.124 0.686 1.222 0 0.056-0.11 0.239-0.245 0.407-0.355 0.441-0.496 0.654-0.459 0.692 0.018 0.018 0.086-0.017 0.151-0.078s0.189-0.11 0.274-0.11c0.086 0 0.343-0.090 0.571-0.199 0.609-0.292 0.95-0.26 1.102 0.104 0.098 0.234 0.048 0.489-0.107 0.547-0.066 0.025-0.424 0.021-0.796-0.010-0.794-0.065-1.026-0.006-1.356 0.341l-0.203 0.213 0.046 0.775c0.051 0.865 0.152 1.332 0.402 1.858 0.179 0.378 0.245 0.43 0.295 0.236 0.017-0.066 0.059-0.103 0.092-0.082 0.102 0.063 0.068 0.433-0.060 0.639-0.117 0.189-0.117 0.197-0.014 0.273s0.103 0.079-0.003 0.12c-0.068 0.026-0.173 0.006-0.275-0.053-0.218-0.125-0.265-0.12-0.321 0.032-0.042 0.114-0.088 0.064-0.425-0.456-0.208-0.321-0.532-0.73-0.72-0.909-0.317-0.301-0.342-0.343-0.342-0.576 0-0.216 0.012-0.241 0.085-0.18 0.121 0.1 0.113 0.014-0.055-0.596-0.143-0.518-0.141-0.663 0.005-0.458 0.045 0.063 0.22 0.298 0.39 0.524 0.422 0.56 0.486 0.701 0.486 1.071 0 0.198 0.022 0.306 0.057 0.284 0.091-0.056 0.069-1.213-0.031-1.593-0.164-0.628-0.269-0.797-0.627-1.006-0.18-0.105-0.381-0.264-0.447-0.352l-0.12-0.161 0.327-0.618c0.312-0.588 0.396-0.853 0.27-0.853-0.031 0-0.057 0.032-0.057 0.071-0.001 0.117-0.275 0.669-0.331 0.669-0.079 0-0.294-0.537-0.294-0.732 0-0.109 0.071-0.258 0.199-0.416 0.109-0.136 0.229-0.304 0.265-0.375s0.109-0.128 0.16-0.128c0.052 0 0.143-0.036 0.204-0.080 0.148-0.109 0.281-0.030 0.424 0.251zM5.382 12.020c0.34 0.343 0.435 0.483 0.565 0.829 0.086 0.229 0.293 0.681 0.46 1.005 0.497 0.965 0.831 2.090 0.82 2.758l-0.004 0.206-0.092-0.185c-0.132-0.265-0.185-0.229-0.185 0.123 0 0.623-0.302 1.812-0.657 2.582-0.105 0.227-0.225 0.413-0.268 0.413s-0.2-0.077-0.349-0.172c-0.201-0.128-0.263-0.198-0.239-0.273 0.156-0.492 0.134-1.326-0.056-2.132-0.104-0.439-0.162-0.53-0.218-0.341-0.016 0.055-0.016-0.067 0-0.27l0.030-0.37-0.298 0.342 0.038-0.256c0.054-0.367 0.16-0.54 0.478-0.783 0.154-0.118 0.34-0.258 0.412-0.313l0.131-0.099-0.17 0.060c-0.415 0.147-0.843 0.538-1.137 1.040-0.316 0.538-0.658 1.397-0.656 1.647 0.003 0.649 0.76 1.472 1.866 2.030 0.197 0.099 0.374 0.22 0.392 0.268 0.057 0.148-0.096 0.548-0.323 0.848-0.119 0.157-0.358 0.505-0.531 0.775s-0.353 0.505-0.4 0.523c-0.256 0.098-0.794-0.255-1.049-0.69-0.132-0.224-0.156-0.329-0.153-0.665 0.004-0.488 0.108-0.733 0.321-0.758 0.23-0.027 0.319 0.163 0.378 0.803 0.053 0.578 0.145 0.78 0.356 0.78 0.121 0 0.203-0.23 0.252-0.712 0.056-0.538 0.087-0.652 0.214-0.771 0.175-0.163 0.082-0.198-0.103-0.039-0.139 0.119-0.169 0.209-0.249 0.729-0.050 0.326-0.116 0.589-0.147 0.584-0.105-0.016-0.192-0.387-0.196-0.829-0.003-0.407 0.008-0.449 0.153-0.584 0.11-0.102 0.22-0.145 0.37-0.145 0.118 0 0.214-0.023 0.214-0.051s-0.275-0.16-0.612-0.293c-0.903-0.358-1.248-0.552-1.392-0.785-0.068-0.111-0.134-0.171-0.147-0.134-0.038 0.113-0.112 0.075-0.15-0.075-0.041-0.165-0.127-0.187-0.165-0.043-0.014 0.055-0.029-0.008-0.033-0.139s0.020-0.308 0.052-0.392c0.076-0.2 0.036-0.233-0.142-0.116-0.079 0.052-0.144 0.082-0.144 0.067s0.214-0.294 0.476-0.619c0.799-0.994 1.054-1.526 1.309-2.744 0.152-0.725 0.143-0.835-0.055-0.649-0.237 0.223-0.147 0.016 0.108-0.246 0.143-0.147 0.377-0.306 0.567-0.385 0.29-0.12 0.313-0.142 0.226-0.211-0.085-0.067-0.068-0.072 0.13-0.040 0.125 0.021 0.298 0.073 0.384 0.117 0.138 0.070 0.157 0.069 0.157-0.009 0-0.138-0.266-0.629-0.46-0.85-0.097-0.11-0.326-0.313-0.51-0.451-0.344-0.258-0.367-0.321-0.121-0.321 0.102 0 0.26 0.118 0.552 0.413zM7.313 12.943c-0.104 0.079-0.098 0.084 0.094 0.085 0.272 0.002 0.706 0.234 0.707 0.377 0 0.060 0.069 0.211 0.153 0.337s0.171 0.305 0.194 0.399c0.037 0.156 0.004 0.136-0.393-0.24-0.239-0.226-0.593-0.526-0.787-0.668-0.341-0.248-0.349-0.259-0.216-0.312 0.076-0.030 0.187-0.057 0.248-0.059 0.109-0.004 0.109-0.003 0 0.080zM9.148 14.656c0.277 0.163 0.44 0.43 0.5 0.823 0.022 0.141 0.052 0.301 0.068 0.356 0.103 0.366-0.451-0.331-0.771-0.968-0.199-0.396-0.168-0.428 0.203-0.211zM7.96 15.315c0.067 0.383 0.072 0.601 0.024 1.104-0.033 0.344-0.051 0.635-0.040 0.646 0.048 0.048 0.151-0.459 0.182-0.887 0.034-0.483-0.051-1.069-0.18-1.247-0.049-0.067-0.045 0.040 0.015 0.384zM4.726 16.787c-0.067 0.352-0.045 0.401 0.113 0.258 0.113-0.102 0.114-0.1 0.114 0.219s0.093 0.444 0.154 0.208c0.016-0.063 0.052-0.114 0.079-0.114 0.096 0 0.137 0.321 0.137 1.065 0 1.002-0.022 1.020-0.558 0.47-0.44-0.451-0.63-0.769-0.631-1.056-0.001-0.216 0.537-1.467 0.602-1.401 0.026 0.026 0.021 0.184-0.011 0.352zM3.233 20.562c0.067 0.071 0.237 0.377 0.379 0.68s0.34 0.645 0.441 0.76l0.184 0.21-0.254-0.042c-0.14-0.023-0.326-0.079-0.414-0.124-0.268-0.137-0.621-0.49-0.73-0.73-0.101-0.221-0.145-0.768-0.068-0.845 0.083-0.083 0.347-0.031 0.462 0.092zM2.697 21.387c0.075 0.149 0.191 0.319 0.257 0.379s0.12 0.126 0.12 0.148c0 0.022-0.166 0.055-0.369 0.074-0.435 0.041-0.693 0.16-0.785 0.361-0.060 0.132-0.049 0.162 0.113 0.307 0.193 0.173 0.5 0.281 0.798 0.281 0.102 0 0.185 0.013 0.185 0.029s-0.099 0.227-0.221 0.47c-0.121 0.243-0.258 0.53-0.305 0.64l-0.084 0.199-0.041-0.527c-0.023-0.29-0.063-0.513-0.089-0.497-0.083 0.051-0.389 1.048-0.568 1.851-0.095 0.423-0.219 0.833-0.277 0.911-0.15 0.203-0.32 0.209-0.499 0.018-0.358-0.381-0.459-0.987-0.328-1.968 0.103-0.772 0.084-0.928-0.062-0.527-0.193 0.529-0.308 0.768-0.368 0.768-0.148 0 0.008-0.814 0.257-1.34 0.26-0.549 0.699-0.916 1.357-1.132 0.059-0.019 0.095-0.048 0.080-0.064s-0.304 0.025-0.641 0.090c-0.337 0.065-0.627 0.104-0.644 0.087-0.057-0.057 0.182-0.27 0.471-0.419 0.312-0.161 1.105-0.399 1.351-0.406 0.13-0.004 0.178 0.040 0.293 0.266zM5.817 22.483c0.067 0.105 0.099 0.349 0.123 0.939 0.018 0.438 0.072 1.143 0.122 1.566 0.12 1.034 0.559 3.264 0.77 3.915 0.094 0.29 0.171 0.589 0.171 0.664 0 0.162-0.123 0.283-1.253 1.229-0.932 0.78-1.269 0.997-1.633 1.052-0.377 0.057-0.436-0.018-0.404-0.509 0.029-0.442 0.179-0.803 0.41-0.984 0.106-0.083 0.125-0.127 0.076-0.176s-0.037-0.086 0.046-0.149c0.092-0.070 0.095-0.084 0.019-0.086-0.12-0.002-0.392 0.213-0.392 0.31 0 0.042-0.077 0.247-0.171 0.457-0.128 0.285-0.171 0.466-0.171 0.718 0 0.31-0.012 0.342-0.146 0.393-0.262 0.1-0.639 0.068-0.772-0.065-0.107-0.107-0.118-0.169-0.095-0.555 0.042-0.706 0.356-1.238 0.894-1.515l0.262-0.135-0.242-0.040c-0.372-0.062-0.281-0.196 0.133-0.196 0.192 0 0.263-0.077 0.123-0.133-0.039-0.016-0.004-0.031 0.078-0.033s0.403 0.077 0.712 0.177c0.678 0.219 1.404 0.257 1.71 0.090 0.4-0.218 0.375-0.946-0.062-1.806-0.136-0.267-0.265-0.57-0.287-0.674-0.031-0.145-0.057-0.174-0.114-0.127-0.082 0.068-0.144-0.033-0.144-0.237 0-0.080-0.027-0.105-0.088-0.082-0.114 0.044-0.107-0.265 0.020-0.918 0.124-0.64 0.060-0.967-0.409-2.086-0.207-0.495-0.377-0.936-0.377-0.98 0-0.049 0.061-0.080 0.158-0.080 0.217 0 0.371-0.121 0.558-0.439l0.158-0.27 0.063 0.312c0.035 0.172 0.104 0.376 0.154 0.454zM6.97 21.927c0.016 0.102 0.056 0.47 0.089 0.819 0.093 0.973 0.308 1.548 0.882 2.355 0.245 0.345 0.255 0.372 0.144 0.399-0.117 0.028-0.116 0.032 0.029 0.228 0.143 0.193 0.144 0.2 0.031 0.218-0.093 0.015-0.11 0.046-0.082 0.159 0.025 0.1 0.014 0.136-0.040 0.124-0.051-0.011-0.088 0.076-0.115 0.268-0.022 0.157-0.132 0.536-0.245 0.843-0.155 0.423-0.205 0.646-0.205 0.921 0 0.49 0.027 0.543 0.277 0.542 0.523-0.002 1.112-0.262 1.802-0.796 0.55-0.426 0.657-0.488 0.705-0.41 0.023 0.037 0.164 0.015 0.392-0.059 0.196-0.064 0.376-0.097 0.398-0.072s0.010 0.056-0.030 0.070c-0.131 0.047-0.073 0.13 0.090 0.13 0.452 0 1.688 0.951 1.585 1.22-0.036 0.094-0.236 0.231-0.413 0.283-0.090 0.027-0.134 0.001-0.182-0.105-0.207-0.454-1.022-0.995-1.388-0.921-0.219 0.044-0.7 0.255-0.664 0.292 0.015 0.015 0.164-0.013 0.331-0.063 0.231-0.069 0.336-0.075 0.439-0.028 0.075 0.034 0.194 0.062 0.266 0.062 0.189 0 0.627 0.31 0.744 0.527 0.167 0.31 0.108 0.442-0.253 0.572-0.587 0.211-3.081 0.197-4.104-0.023-0.247-0.053-0.275-0.077-0.365-0.313-0.105-0.274-0.095-0.427 0.056-0.933 0.227-0.759 0.211-2.518-0.031-3.445-0.146-0.559-0.531-1.377-0.84-1.785-0.127-0.167-0.219-0.334-0.204-0.37s0.122-0.137 0.238-0.223c0.116-0.086 0.288-0.271 0.382-0.412s0.189-0.255 0.211-0.256c0.022-0.001 0.053 0.082 0.069 0.184zM3.658 22.239c0.274 0.087 0.498 0.176 0.498 0.197 0 0.095-0.407 0.274-0.747 0.329-0.42 0.067-0.937-0-1.203-0.157-0.387-0.228-0.075-0.414 0.868-0.518 0.047-0.005 0.31 0.062 0.583 0.149zM3.426 23.064c-0.041 0.041-0.067 0.044-0.067 0.009 0-0.076 0.067-0.143 0.105-0.105 0.016 0.016-0.001 0.060-0.038 0.097zM6.539 23.727c0.465 0.898 0.666 1.925 0.621 3.162-0.029 0.781-0.168 1.572-0.277 1.572-0.027 0-0.050-0.014-0.050-0.031s-0.101-0.523-0.223-1.125c-0.237-1.16-0.429-2.566-0.493-3.599l-0.038-0.626 0.118 0.105c0.065 0.058 0.219 0.301 0.343 0.541zM2.891 29.762c0.055 0.035 0.043 0.072-0.049 0.156-0.201 0.181-0.394 0.63-0.466 1.080-0.057 0.357-0.085 0.425-0.177 0.425-0.101 0-0.107-0.032-0.076-0.401 0.036-0.425 0.237-0.95 0.452-1.179 0.128-0.136 0.199-0.155 0.316-0.081z"></path>
</symbol>
</defs>
</svg>
