<svg aria-hidden="true" style="position: absolute; width: 0; height: 0; overflow: hidden;" version="1.1" xmlns="http://www.w3.org/2000/svg" xmlns:xlink="http://www.w3.org/1999/xlink">
<defs>
<symbol id="icon-reactjs-spinner" viewBox="0 0 32 32">
<path d="M18.836 0.080c0.378-0.125 1.134-0.074 1.484 0.101 0.333 0.166 0.844 0.692 1.080 1.112 0.762 1.352 1.17 3.856 1.088 6.677l-0.035 1.194 2.251 0c1.879 0 2.364 0.018 2.937 0.109 1.8 0.284 2.986 0.743 3.633 1.408 0.981 1.007 0.706 2.377-0.781 3.893-1.075 1.096-2.502 2.076-4.593 3.154l-0.995 0.513 0.183 0.268c0.312 0.456 1 1.567 1 1.615 0 0.025-0.079 0.063-0.176 0.084s-0.289 0.121-0.428 0.221c-0.287 0.208-0.268 0.218-0.578-0.31-0.087-0.148-0.328-0.533-0.536-0.857-0.287-0.446-0.403-0.581-0.48-0.556-0.056 0.018-0.558 0.218-1.116 0.446s-1.322 0.522-1.698 0.653l-0.683 0.239-0.396 1.157c-0.218 0.636-0.577 1.601-0.798 2.142s-0.416 1.041-0.434 1.11c-0.026 0.104 0.049 0.176 0.437 0.423 2.234 1.421 4.024 2.152 5.423 2.213 0.759 0.033 1.029-0.023 1.442-0.299 0.226-0.151 0.335-0.284 0.498-0.61 0.204-0.406 0.209-0.433 0.2-1.075-0.005-0.362-0.048-0.799-0.095-0.971s-0.073-0.326-0.056-0.343 0.104-0.031 0.194-0.031c0.090 0 0.316-0.081 0.504-0.179s0.349-0.179 0.359-0.179c0.081 0 0.372 1.189 0.442 1.811 0.187 1.647-0.438 2.627-1.816 2.846-1.605 0.256-4.469-0.852-7.623-2.948l-0.16-0.107-0.389 0.796c-1.972 4.032-4.137 6.322-5.85 6.184-1.521-0.122-2.497-2.015-2.789-5.408-0.040-0.469-0.059-1.496-0.044-2.499l0.024-1.703-0.271 0.034c-0.149 0.019-0.698 0.053-1.221 0.075-0.725 0.031-0.939 0.024-0.906-0.030 0.024-0.039 0.043-0.265 0.042-0.502l-0.002-0.431 0.998-0.021c0.549-0.012 1.105-0.039 1.236-0.061 0.211-0.035 0.241-0.061 0.256-0.218 0.053-0.554 0.34-2.592 0.436-3.098l0.112-0.591-0.373-0.423c-0.652-0.74-1.205-1.422-1.897-2.338-0.37-0.49-0.692-0.899-0.717-0.909-0.058-0.024-1.002 0.451-1.719 0.865-2.186 1.262-3.668 2.631-4.046 3.739-0.159 0.465-0.137 0.978 0.054 1.305 0.309 0.527 0.975 0.995 1.776 1.248 0.304 0.096 0.327 0.116 0.313 0.274-0.069 0.745-0.092 0.916-0.126 0.916-0.159-0.002-1.092-0.267-1.476-0.419-0.948-0.376-1.506-0.832-1.798-1.471-0.134-0.291-0.148-0.39-0.126-0.847 0.021-0.45 0.054-0.577 0.248-0.969 0.407-0.823 1.247-1.744 2.329-2.552 1.031-0.771 2.792-1.832 3.895-2.348 0.211-0.099 0.383-0.186 0.383-0.195s-0.164-0.266-0.365-0.571c-1.832-2.786-2.804-5.14-2.809-6.805-0.003-0.882 0.12-1.284 0.53-1.738 0.492-0.544 1.198-0.744 2.28-0.644 1.629 0.151 4.040 1.212 6.475 2.85 0.258 0.173 0.477 0.307 0.487 0.297s0.221-0.421 0.469-0.914c0.59-1.171 0.527-1.093 0.732-0.902 0.094 0.087 0.271 0.205 0.393 0.262 0.223 0.103 0.27 0.18 0.173 0.285-0.071 0.077-0.646 1.177-0.814 1.557l-0.136 0.306 0.964 0.751c0.53 0.413 1.243 0.988 1.584 1.278l0.62 0.527 0.859-0.16c0.472-0.088 1.402-0.232 2.067-0.321s1.295-0.173 1.402-0.189l0.194-0.028v-1.403c0-1.917-0.134-3.082-0.485-4.234-0.715-2.342-2.052-2.81-3.819-1.337l-0.274 0.229-0.165-0.172c-0.091-0.095-0.283-0.235-0.427-0.311s-0.262-0.159-0.262-0.182c0-0.024 0.215-0.258 0.477-0.52 0.631-0.63 1.244-1.046 1.821-1.237zM15.123 2.268c-0.904 0.518-1.057 1.714-0.314 2.456 0.5 0.5 1.153 0.6 1.794 0.275 0.607-0.308 0.947-0.923 0.863-1.56-0.069-0.52-0.358-0.95-0.802-1.192-0.246-0.134-0.365-0.159-0.761-0.158-0.411 0.001-0.508 0.023-0.78 0.178zM6.018 5.154c-1.323 0.376-1.614 1.727-0.847 3.933 0.359 1.031 0.922 2.145 1.774 3.51 0.195 0.312 0.36 0.574 0.366 0.582s0.413-0.157 0.902-0.367c0.73-0.313 2.059-0.824 3.248-1.249 0.193-0.069 0.222-0.114 0.379-0.58 0.271-0.805 0.812-2.26 1.005-2.705 0.097-0.224 0.164-0.443 0.147-0.487-0.072-0.188-2.846-1.771-3.591-2.050-0.098-0.037-0.327-0.123-0.507-0.191-1.050-0.398-2.279-0.567-2.877-0.397zM13.728 8.635c-0.221 0.515-0.541 1.35-0.742 1.938l-0.196 0.573 0.784-0.232c0.431-0.128 1.16-0.326 1.62-0.441 1.118-0.279 1.052-0.242 0.806-0.453-0.16-0.137-1.594-1.256-2.074-1.62-0.054-0.041-0.108 0.024-0.199 0.234zM22.424 9.799c-0.014 0.045-0.084 0.619-0.155 1.275s-0.205 1.65-0.296 2.207l-0.165 1.013 0.604 0.718c0.332 0.395 0.895 1.088 1.25 1.539s0.662 0.821 0.681 0.821c0.136 0 1.937-1.015 2.701-1.522 2.764-1.834 3.744-3.564 2.696-4.758-0.446-0.508-1.505-0.957-2.814-1.194-0.569-0.103-1.010-0.129-2.581-0.153-1.565-0.023-1.899-0.014-1.92 0.053zM21.194 9.857c-0.623 0.070-2.463 0.343-2.896 0.43l-0.358 0.072 3.476 3.464 0.128-0.807c0.133-0.839 0.272-1.967 0.341-2.762 0.046-0.532 0.122-0.488-0.69-0.397zM15.552 10.861c-0.493 0.124-1.349 0.355-1.903 0.513-1.176 0.336-1.021 0.164-1.437 1.593-0.365 1.256-0.71 2.652-0.956 3.873l-0.207 1.028 0.29 0.334c0.497 0.573 2.566 2.573 2.663 2.573 0.52 0 5.73-1.417 6.103-1.66 0.152-0.099 1.070-3.71 1.019-4.008-0.025-0.145-1.382-1.626-2.356-2.571-1.462-1.417-2.025-1.911-2.177-1.906-0.078 0.002-0.545 0.106-1.038 0.23zM11.254 12.135c-0.873 0.29-3.5 1.344-3.602 1.446-0.038 0.038 0.217 0.416 0.827 1.224 0.647 0.857 1.731 2.168 1.765 2.134 0.014-0.014 0.054-0.184 0.089-0.378 0.1-0.55 0.39-1.724 0.779-3.151 0.196-0.718 0.348-1.312 0.338-1.32s-0.098 0.012-0.197 0.045zM21.529 15.686c-0.017 0.057-0.111 0.454-0.209 0.881s-0.272 1.124-0.388 1.55c-0.116 0.426-0.205 0.779-0.198 0.786 0.015 0.015 1.276-0.481 2.085-0.821l0.58-0.243-0.353-0.463c-0.443-0.582-1.431-1.794-1.463-1.794-0.013 0-0.038 0.047-0.055 0.104zM10.813 19.414c-0.169 1.254-0.236 1.864-0.21 1.893 0.042 0.047 2.508-0.321 2.71-0.405 0.064-0.026-0.26-0.382-1.14-1.25l-1.229-1.213-0.131 0.974zM19.493 20.336c-0.458 0.17-2.463 0.727-3.538 0.982-0.927 0.22-1.073 0.27-1.011 0.344 0.205 0.247 2.864 2.333 3.209 2.518 0.104 0.056 0.133 0.025 0.271-0.283 0.494-1.107 1.44-3.663 1.352-3.655-0.024 0.002-0.151 0.044-0.282 0.093zM25.82 20.529c-0.693 0.315-1.057 1.131-0.839 1.882 0.272 0.936 1.36 1.392 2.243 0.94 0.244-0.125 0.39-0.256 0.567-0.512 0.234-0.337 0.239-0.354 0.238-0.86-0.001-0.416-0.026-0.565-0.132-0.763-0.147-0.276-0.399-0.509-0.739-0.682-0.306-0.156-1.001-0.159-1.339-0.005zM4.664 20.542c-0.299 0.12-0.624 0.441-0.772 0.764-0.38 0.831 0.007 1.839 0.816 2.125 0.357 0.126 0.894 0.117 1.211-0.019s0.723-0.565 0.83-0.879c0.264-0.771-0.113-1.677-0.824-1.974-0.219-0.092-1.048-0.102-1.263-0.016zM13.552 21.825c-0.378 0.077-1.214 0.214-1.858 0.305l-1.171 0.165-0.037 0.479c-0.137 1.758 0.075 4.202 0.473 5.465 0.457 1.45 1.116 2.148 2.028 2.148 1.071 0 2.327-1.067 3.622-3.075 0.566-0.878 1.421-2.436 1.421-2.59 0-0.030-0.413-0.366-0.917-0.747s-1.351-1.055-1.881-1.498c-0.53-0.444-0.97-0.804-0.978-0.8s-0.324 0.070-0.701 0.147z"></path>
<path d="M15.778 13.558c-0.066 0.035-0.211 0.117-0.323 0.182s-0.311 0.179-0.443 0.255c-0.909 0.521-1.008 0.581-1.062 0.64-0.104 0.113-0.102 0.086-0.098 1.309 0.004 1.087 0.004 1.092 0.037 1.152 0.059 0.11 0.102 0.14 0.583 0.413 0.153 0.087 0.274 0.123 0.42 0.124 0.198 0.002 0.29-0.030 0.397-0.137 0.151-0.151 0.142-0.068 0.147-1.341 0.003-0.819-0-1.112-0.013-1.127-0.022-0.027-0.269-0.029-0.296-0.003-0.014 0.014-0.018 0.269-0.018 1.056 0 1.134 0.003 1.1-0.087 1.175-0.063 0.053-0.147 0.065-0.246 0.036-0.082-0.024-0.577-0.306-0.599-0.341-0.007-0.011-0.013-0.483-0.013-1.049l-0-1.029 0.049-0.037c0.027-0.020 0.089-0.060 0.139-0.088 0.115-0.065 0.646-0.37 0.901-0.518 0.107-0.062 0.239-0.137 0.293-0.168s0.175-0.1 0.27-0.155 0.18-0.1 0.19-0.1c0.009-0 0.124 0.061 0.255 0.137s0.346 0.199 0.478 0.275c0.272 0.156 0.653 0.376 0.908 0.524 0.095 0.055 0.177 0.108 0.184 0.118s0.012 0.485 0.012 1.055l0 1.037-0.056 0.039c-0.031 0.021-0.198 0.12-0.371 0.218-0.392 0.224-0.629 0.36-1.051 0.603-0.182 0.105-0.341 0.191-0.353 0.192s-0.128-0.060-0.256-0.136c-0.128-0.076-0.243-0.138-0.255-0.138s-0.042 0.011-0.066 0.025c-0.025 0.013-0.092 0.043-0.15 0.066s-0.105 0.050-0.105 0.061c0 0.019 0.156 0.117 0.513 0.322 0.169 0.097 0.211 0.115 0.287 0.122 0.106 0.010 0.151-0.008 0.445-0.178 0.107-0.062 0.357-0.206 0.555-0.319s0.448-0.257 0.555-0.319c0.107-0.062 0.255-0.146 0.328-0.187 0.148-0.083 0.215-0.142 0.258-0.229 0.028-0.056 0.029-0.101 0.029-1.189v-1.131l-0.033-0.061c-0.047-0.088-0.105-0.133-0.365-0.282-0.128-0.073-0.401-0.231-0.607-0.35-1.103-0.638-1.004-0.587-1.139-0.586-0.097 0-0.118 0.006-0.227 0.065zM16.258 14.967c-0.419 0.070-0.625 0.304-0.576 0.652 0.023 0.162 0.11 0.27 0.275 0.343 0.096 0.042 0.316 0.090 0.496 0.107 0.325 0.031 0.543 0.086 0.602 0.15 0.040 0.044 0.038 0.178-0.003 0.234-0.083 0.112-0.205 0.146-0.516 0.146-0.411 0-0.532-0.069-0.591-0.339-0.011-0.048-0.041-0.058-0.183-0.058-0.088-0-0.111 0.005-0.134 0.030-0.025 0.027-0.026 0.039-0.009 0.132 0.037 0.207 0.143 0.349 0.324 0.437 0.193 0.094 0.501 0.136 0.777 0.106 0.355-0.038 0.574-0.156 0.671-0.361 0.035-0.073 0.039-0.101 0.039-0.247 0-0.187-0.022-0.249-0.12-0.335-0.122-0.107-0.284-0.157-0.706-0.219-0.281-0.041-0.443-0.076-0.507-0.108-0.073-0.037-0.091-0.132-0.042-0.226 0.055-0.106 0.17-0.143 0.444-0.143 0.323 0 0.437 0.056 0.516 0.252l0.042 0.105 0.119 0.004c0.193 0.007 0.21-0.005 0.187-0.129-0.053-0.277-0.21-0.438-0.504-0.513-0.153-0.039-0.441-0.050-0.6-0.024z"></path>
</symbol>
</defs>
</svg>
