<svg width="561" height="499" viewBox="0 0 561 499" fill="none" xmlns="http://www.w3.org/2000/svg">
<path fill-rule="evenodd" clip-rule="evenodd" d="M150.825 1.921C137.473 5.523 127.28 14.095 120.289 27.601C112.006 43.601 109.009 58.85 109.007 85C109.005 105.273 109.926 114.439 114.179 136.5C115.876 145.3 117.317 153.098 117.382 153.828C117.457 154.678 112.816 156.699 104.5 159.438C87.023 165.194 77.939 168.924 62.5 176.684C45.133 185.413 32.481 194.323 21 205.911C5.48199 221.575 0.488993 232.199 0.514993 249.5C0.531993 260.462 2.20399 265.941 9.14499 277.779C14.436 286.802 30.726 302.409 44 311.173C62.817 323.596 87.767 335.129 110.5 341.912C116.327 343.65 116.498 343.8 116.446 347.101C116.416 348.97 115.383 355.183 114.151 360.907C107.648 391.119 106.695 423.067 111.599 446.451C115.019 462.756 120.909 474.798 129.889 483.842C140.514 494.543 149.639 497.973 167.5 497.981C179.433 497.986 189.209 496.119 201.5 491.487C210.824 487.973 229.339 478.59 235.252 474.382C237.866 472.522 240.234 471 240.513 471C242.35 471 265.161 452.927 274.866 443.781L281.232 437.783L283.53 439.641C284.794 440.664 289.804 445.056 294.664 449.403C325.564 477.039 359.114 495.007 385.26 497.923C417.004 501.462 436.87 487.529 447.319 454.398C454.868 430.459 454.918 393.04 447.449 356.152C446.06 349.291 445.278 343.363 445.712 342.978C446.145 342.594 450.325 341.039 455 339.521C496.408 326.082 529.512 306.079 547.39 283.694C560.972 266.69 564.532 247.605 557.323 230.446C548.592 209.667 526.818 190.618 493.24 174.385C480.91 168.424 462.876 161.444 450.707 157.922C444.47 156.117 443.04 155.351 443.544 154.083C443.89 153.213 445.238 147.005 446.539 140.29C457.52 83.61 451.897 37.205 431.361 15.024C421.096 3.935 411.319 0 394.039 0C380.834 0 369.137 2.726 354.318 9.257C332.982 18.661 307.567 36.191 286.776 55.844L281.053 61.254L271.068 52.608C256.786 40.241 247.781 33.25 237.5 26.549C203.834 4.605 173.17 -4.107 150.825 1.921ZM383.421 24.423C360.158 29.71 331.018 47.302 303.083 72.924C296.878 78.615 296.471 76.959 307.04 89C315.945 99.146 327.971 114.276 337.353 127.14L345.112 137.779L351.806 138.463C365.259 139.838 393.807 144.129 405.489 146.533C412.083 147.89 418.22 149 419.128 149C420.457 149 421.282 146.321 423.36 135.25C427.264 114.458 428.347 104.015 428.363 87C428.392 55.305 421.359 33.983 408.362 26.366C402.789 23.1 392.702 22.314 383.421 24.423ZM154 26.016C147.895 28.868 144.353 32.433 140.931 39.171C131.962 56.831 129.956 84.168 135.072 119C136.994 132.083 140.238 147.572 141.275 148.608C141.554 148.888 148.851 147.729 157.491 146.033C166.13 144.338 182.9 141.735 194.756 140.25L216.314 137.549L219.178 133.524C227.926 121.231 242.414 103.001 254.721 88.804L263.993 78.107L254.873 70.049C231.476 49.377 207.536 34.441 186.5 27.393C175.258 23.626 160.457 22.999 154 26.016ZM273.316 103.75C266.619 111.276 256.612 123.351 250.318 131.5L247.229 135.5H280.614C298.977 135.5 314 135.393 314 135.261C314 135.13 313.354 134.23 312.565 133.261C311.776 132.293 306.938 126.306 301.815 119.958C290.655 106.129 281.805 96 280.883 96C280.514 96 277.109 99.487 273.316 103.75ZM259.5 159.086C249.05 159.445 238.025 159.802 235 159.879L229.5 160.018L224.342 167.827C211.891 186.674 192.292 220.531 182.115 240.772L178.029 248.898L181.307 255.699C189.804 273.331 209.083 306.889 223.38 328.934C228.252 336.446 229.709 338.013 231.88 338.077C233.321 338.119 235.4 338.34 236.5 338.568C237.6 338.796 250.65 339.272 265.5 339.625C298.084 340.4 330.454 338.804 333.238 336.285C334.207 335.408 335 334.343 335 333.918C335 333.494 337.177 329.851 339.838 325.823C350.585 309.555 365.274 283.953 378.032 259.254L383.325 249.007L377.525 237.754C365.124 213.687 349.43 186.958 334.718 164.848L331.623 160.196L315.061 159.6C284.075 158.485 278.506 158.433 259.5 159.086ZM183 165.675C167.982 167.9 149.048 171.619 148.147 172.52C147.528 173.139 154.083 192.624 160.135 208.153L165.214 221.186L169.607 213.478C172.023 209.238 174 205.623 174 205.443C174 205.263 177.755 198.677 182.345 190.808C186.935 182.938 191.736 174.7 193.014 172.5C194.292 170.3 196.238 167.489 197.339 166.254C198.44 165.019 199.152 163.866 198.921 163.693C198.689 163.52 191.525 164.412 183 165.675ZM363 164.469C363 164.727 364.968 167.989 367.373 171.719C372.451 179.595 389.105 208.302 392.626 215.25C393.95 217.863 395.365 220 395.769 220C396.993 220 414.668 173.24 413.745 172.445C413.312 172.073 386.809 167.076 377 165.517C367.231 163.965 363 163.648 363 164.469ZM110.5 182.43C94.899 187.599 87.946 190.462 73.744 197.567C63.875 202.503 49.399 211.499 46.163 214.706C45.428 215.434 43.281 217.209 41.392 218.65C36.829 222.13 28.486 232.711 26.021 238.143C20.764 249.729 25.097 262.749 38.698 276.237C51.47 288.902 65.131 297.843 86 307.194C102.385 314.536 123.498 322.118 124.245 320.929C124.393 320.693 126.511 314.425 128.952 307C133.157 294.204 143.747 267.08 149.293 254.899L151.843 249.299L147.86 240.399C142.326 228.034 129.394 194.297 126.773 185.388C125.577 181.325 124.352 178.027 124.05 178.061C123.747 178.095 117.65 180.061 110.5 182.43ZM436.494 180.25C436.25 180.938 433.953 187.575 431.39 195C426.752 208.436 415.786 235.579 411.991 243.018C410.896 245.164 410 247.557 410 248.335C410 249.113 411.955 253.969 414.344 259.125C420.583 272.592 428.615 292.583 433.483 306.763C435.798 313.508 437.912 319.246 438.18 319.514C438.783 320.117 448.449 317.038 461 312.246C479.213 305.291 504.315 291.78 513.455 284.012C530.623 269.422 537.211 259.538 537.262 248.297C537.361 226.583 498.215 197.595 447.198 181.602C437.694 178.623 437.098 178.548 436.494 180.25ZM269.263 199.449C240.52 205.995 223.412 236.633 232.977 264.433C235.865 272.828 239.612 278.479 246.348 284.599C257.387 294.629 268.49 298.608 283 297.735C313.473 295.901 334.696 268.638 329.111 238.5C326.821 226.14 316.818 211.6 306.408 205.499C295.495 199.104 281.085 196.756 269.263 199.449ZM160.002 290.719C157.109 298.299 153.037 309.544 150.953 315.709C147.607 325.608 147.359 326.97 148.832 327.371C158.443 329.988 199 336.291 199 335.169C199 334.881 197.496 332.363 195.657 329.573C189.763 320.626 182.856 308.901 173.949 292.719L165.262 276.938L160.002 290.719ZM392.198 283.393C385.166 296.993 365.943 329.991 363.083 333.371C361.557 335.174 361.699 335.217 367 334.554C375.593 333.478 406.997 328.078 411.131 326.965C414.599 326.031 414.793 325.779 414.009 323.232C410.498 311.821 396.932 276.999 396 277.004C395.725 277.006 394.014 279.881 392.198 283.393ZM408.5 351.623C392.931 354.76 374.523 357.545 359.5 359.035C352.9 359.69 346.988 360.367 346.361 360.539C345.735 360.711 341.586 365.948 337.141 372.176C327.841 385.209 313.546 403.286 304.333 413.664L297.974 420.828L306.237 428.174C331.642 450.76 353.385 464.48 375 471.564C386.493 475.331 401.314 475.67 407.595 472.309C416.6 467.49 423.408 455.47 427.059 437.941C429.756 424.993 430.007 398.767 427.603 381C425.777 367.501 422.007 348.956 421.12 349.102C420.779 349.159 415.1 350.293 408.5 351.623ZM137.655 363.75C133.316 386.049 132.646 392.493 132.582 412.5C132.522 431.341 133.182 437.164 136.666 448.5C142.173 466.422 151.938 475.011 166.788 474.993C183.176 474.973 207.613 464.944 231 448.639C245.194 438.744 264 422.82 264 420.697C264 419.896 251.981 405.671 249.893 404C248.539 402.917 226.683 375.203 223.474 370.5C216.712 360.59 218.12 361.294 201.5 359.515C183.542 357.593 162.959 354.55 150.14 351.92C144.992 350.864 140.679 350 140.555 350C140.432 350 139.127 356.188 137.655 363.75ZM280.054 362.979L247.607 363.5L256.488 374.5C266.034 386.323 279.92 402.316 281.05 402.79C281.98 403.18 289.224 395.046 300.901 380.5C313.184 365.2 315.49 361.939 313.818 362.229C313.093 362.355 297.899 362.693 280.054 362.979Z" fill="black"/>
</svg>
